<?xml version="1.0" encoding="UTF-8" standalone="no"?>
<!-- Generator: Adobe Illustrator 18.0.0, SVG Export Plug-In . SVG Version: 6.00 Build 0)  -->

<svg
   version="1.1"
   id="Layer_1"
   x="0px"
   y="0px"
   viewBox="0 0 63.902897 70.794556"
   enable-background="new 0 0 64 64"
   xml:space="preserve"
   sodipodi:docname="loan_given.svg"
   width="63.902897"
   height="70.794556"
   inkscape:version="1.3.2 (091e20e, 2023-11-25, custom)"
   xmlns:inkscape="http://www.inkscape.org/namespaces/inkscape"
   xmlns:sodipodi="http://sodipodi.sourceforge.net/DTD/sodipodi-0.dtd"
   xmlns="http://www.w3.org/2000/svg"
   xmlns:svg="http://www.w3.org/2000/svg"><defs
   id="defs1" /><sodipodi:namedview
   id="namedview1"
   pagecolor="#ffffff"
   bordercolor="#000000"
   borderopacity="0.25"
   inkscape:showpageshadow="2"
   inkscape:pageopacity="0.0"
   inkscape:pagecheckerboard="0"
   inkscape:deskcolor="#d1d1d1"
   inkscape:zoom="4.370905"
   inkscape:cx="-11.210493"
   inkscape:cy="19.789952"
   inkscape:window-width="1920"
   inkscape:window-height="991"
   inkscape:window-x="-9"
   inkscape:window-y="-9"
   inkscape:window-maximized="1"
   inkscape:current-layer="Layer_1" />

<g
   id="rect52"><path
     style="color:#000000;fill:#6fc457;fill-opacity:0;fill-rule:evenodd;-inkscape-stroke:none"
     d="m 15.900391,44.613281 v 5.730469 h -5.855469 v 0.115234 h 5.855469 V 56.625 h 0.115234 v -6.166016 h 6.041016 V 50.34375 h -6.041016 v -5.730469 z"
     id="path53" /></g><path
   id="path3"
   d="m 36.418015,20.723388 h 0.305904 l 0.336497,0.122358 0.244723,0.214133 0.152952,0.305906 0.03058,0.09177 0.03058,0.672991 0.55063,0.152953 0.550627,0.244724 0.458859,0.305905 0.244722,0.214134 0.183541,0.305903 0.03058,0.122359 v 0.397678 l -0.183545,0.367085 -0.275314,0.244723 -0.367087,0.122359 h -0.214132 l -0.275315,-0.09178 -0.550627,-0.336495 -0.152953,-0.09176 v 2.783737 l 0.887123,0.367086 0.458857,0.275315 0.397677,0.336495 0.305906,0.336494 0.305903,0.45886 0.214134,0.520038 0.122359,0.520038 0.03058,0.244725 v 0.489446 l -0.09177,0.581221 -0.183542,0.550629 -0.244727,0.489447 -0.275314,0.397678 -0.275313,0.305903 -0.152952,0.152954 -0.244725,0.214133 -0.428267,0.275316 -0.520038,0.244724 -0.336496,0.09176 0.03058,0.336495 -0.03058,0.520038 -0.183542,0.367086 -0.244725,0.214133 -0.214134,0.09176 -0.152951,0.03058 h -0.275315 l -0.275314,-0.09176 -0.183544,-0.122359 -0.214135,-0.244724 -0.09176,-0.214134 -0.03058,-0.152951 -0.03058,-0.611811 L 34.88848,33.693735 34.307257,33.479601 33.66486,33.143107 33.358955,32.928973 33.14482,32.684249 33.022463,32.378344 v -0.367075 l 0.122357,-0.305905 0.214135,-0.244724 0.367084,-0.183543 h 0.428268 l 0.305905,0.122359 0.458856,0.275314 0.611809,0.244724 0.09176,0.03058 -0.03058,-3.793221 -0.703583,-0.367086 -0.458855,-0.305906 -0.397675,-0.336495 -0.275316,-0.336495 -0.244726,-0.458857 -0.152951,-0.489449 -0.06118,-0.458857 v -0.275314 l 0.06118,-0.489449 0.122359,-0.458856 0.183541,-0.428268 0.214133,-0.336496 0.244725,-0.305904 0.183542,-0.214133 0.397679,-0.305905 0.458857,-0.244724 0.428265,-0.152954 0.03058,-0.611809 0.06118,-0.275312 0.183543,-0.275317 0.214135,-0.183545 0.18354,-0.09176 z m -0.856533,3.548498 -0.183544,0.244723 -0.152953,0.367085 -0.03058,0.152954 v 0.428267 l 0.122358,0.336494 0.244726,0.214134 h 0.06118 v -1.743657 z m 1.957791,4.649756 -0.03058,0.09176 v 2.691964 l 0.152953,-0.06118 0.336494,-0.336496 0.214135,-0.336493 0.122359,-0.336497 0.06118,-0.397674 -0.03058,-0.367087 -0.152954,-0.397678 -0.214134,-0.275313 -0.336493,-0.244725 z m 10.125453,16.488279 h 1.437754 l 0.948305,0.09176 0.887123,0.152953 0.734173,0.183542 0.764761,0.244726 0.856537,0.336496 0.581218,0.275312 0.703582,0.397679 0.672991,0.428267 0.520038,0.367085 0.581219,0.397674 0.703581,0.48945 0.305907,0.214133 5.200383,0.03058 0.336496,0.122358 0.183544,0.15295 0.183543,0.275314 v 0.06118 h 0.06118 v 10.431366 l -0.09177,0.09176 -0.152951,0.214133 -0.305907,0.214133 -0.244727,0.06118 -5.689831,0.03058 -0.978893,0.152953 -9.544237,1.682478 -2.47783,0.428265 -1.009485,0.152952 -1.284803,0.152953 -0.520037,0.06118 h -3.640268 v -0.03058 L 36.69333,63.182963 35.469711,63.03001 34.368453,62.846469 32.99188,62.540562 31.860034,62.234658 31.003498,61.959345 29.871649,61.561667 27.760907,60.766315 26.965554,60.46041 26.659649,60.307457 26.414924,60.032142 26.292567,59.695645 v -0.305903 l 0.122357,-0.305905 0.183545,-0.244725 0.244723,-0.152952 0.183543,-0.06118 h 0.397675 l 0.611812,0.214133 1.621294,0.611811 1.13185,0.428267 0.856533,0.305903 1.009487,0.305907 0.917712,0.244724 1.131851,0.244724 1.070669,0.183544 1.315388,0.152952 1.437754,0.09176 h 1.743658 l 1.376572,-0.09176 1.284801,-0.152952 1.835429,-0.305908 2.753144,-0.489447 3.976765,-0.70358 2.661374,-0.458858 2.233105,-0.397675 0.336496,-0.03058 h 4.710937 v -7.892337 h -4.557987 l -0.275315,-0.122357 -0.336493,-0.214134 -0.703582,-0.489448 -0.489451,-0.336496 -0.70358,-0.489449 -0.458856,-0.305905 -0.61181,-0.367086 -0.581222,-0.305903 -0.734172,-0.305907 -0.825941,-0.275314 -0.764763,-0.183544 -0.489448,-0.09176 -0.978896,-0.09176 h -1.162439 l -0.917714,0.09176 -0.917715,0.183545 -0.825943,0.244722 -0.856534,0.336495 -0.978895,0.458858 -1.009487,0.458856 -0.948307,0.428268 -0.183542,0.06118 -0.764763,0.03058 h -5.200384 l -0.550627,0.03058 -0.458859,0.09176 -0.428267,0.152951 -0.428267,0.214135 -0.397677,0.305903 -0.275315,0.244725 -0.244723,0.305905 -0.275314,0.428269 -0.183543,0.428264 -0.152953,0.55063 -0.06118,0.581221 h 10.370176 l 0.428267,0.03058 0.305904,0.122359 0.183544,0.152953 0.18354,0.275315 0.06118,0.244721 v 0.275316 l -0.122359,0.305905 -0.183542,0.244723 -0.24472,0.152954 -0.183546,0.06118 -0.611811,0.03058 h -9.911319 l -0.61181,-0.03058 -1.284801,-0.336495 -5.139202,-1.376573 -5.934558,-1.590705 -2.049562,-0.550631 -0.397676,-0.06118 -0.428267,0.03058 -0.305905,0.09176 -0.397677,0.214134 -0.183542,0.152952 -0.244725,0.336496 -0.122358,0.244721 -0.09177,0.275317 -0.03058,0.152951 v 0.489447 l 0.122359,0.428268 0.18354,0.336495 0.275316,0.305904 0.397676,0.244726 1.2848,0.489448 1.22362,0.458857 1.284803,0.489449 1.223619,0.458857 1.376572,0.520037 1.13185,0.428267 0.856533,0.336497 0.336495,0.214134 v 0.06118 h 0.06118 l 0.183542,0.367085 0.03058,0.305906 -0.122359,0.397675 -0.275315,0.305907 -0.275312,0.122357 -0.122359,0.03058 H 23.600602 L 23.141745,59.02262 18.614349,57.309552 15.218805,56.02475 14.698767,55.780026 14.331681,55.535301 13.995185,55.259988 13.781052,55.045854 13.444558,54.61759 13.199831,54.189322 12.985699,53.638692 12.863342,53.026882 V 52.23153 l 0.122357,-0.611812 0.183543,-0.489449 0.183541,-0.367084 0.214135,-0.336494 h 0.06118 l 0.06118,-0.122359 0.275316,-0.305903 0.305905,-0.275314 0.428266,-0.275316 0.367086,-0.183543 0.55063,-0.183544 0.305904,-0.06118 0.336495,-0.03058 h 0.458857 l 0.458859,0.06118 0.856532,0.214134 1.254211,0.336495 1.345981,0.367085 1.284802,0.336494 3.884995,1.04008 1.223621,0.336493 1.284798,0.336496 1.498933,0.397676 0.214134,-0.948305 0.214135,-0.581219 0.244723,-0.489448 0.305906,-0.489448 0.244723,-0.305904 0.336495,-0.367087 0.244723,-0.244722 0.520039,-0.397678 0.581219,-0.336494 0.397677,-0.183545 0.550629,-0.183543 0.581219,-0.122358 0.795353,-0.06118 5.720423,-0.03058 1.866021,-0.856533 1.009488,-0.458858 0.703578,-0.275314 0.764764,-0.244727 0.764763,-0.18354 0.672991,-0.122359 0.703581,-0.09177 z M 29.473972,0.65602162 h 14.346942 v 0.0611802 l 0.275315,0.0611802 0.520037,0.24472358 0.336497,0.2447236 0.305904,0.2753139 0.305904,0.4282699 0.244725,0.4894473 0.122357,0.4588572 0.03058,0.2447236 v 0.458857 l -0.06118,0.4282701 -0.244724,0.7341708 -0.550628,1.4377556 -0.428268,1.131845 -0.489449,1.2848027 0.305907,0.091763 0.428264,0.2141321 0.336496,0.2447258 0.336497,0.3059039 0.275314,0.3670864 0.214135,0.3670875 0.214132,0.642399 0.06118,0.489449 -0.03058,0.489448 -0.09176,0.458857 -0.183544,0.458858 -0.244724,0.428266 -0.305903,0.336496 0.15295,0.152951 0.428268,0.336497 0.428269,0.367085 0.305903,0.275315 0.336493,0.275316 0.305908,0.305904 0.244723,0.214133 0.305905,0.305904 0.244725,0.214134 0.122357,0.122359 v 0.06118 h 0.06118 v 0.06118 h 0.06118 l 0.214133,0.244724 0.275316,0.275314 0.214133,0.244723 0.275314,0.305905 0.275314,0.336497 0.336497,0.367085 0.336495,0.428268 0.305904,0.397674 0.428268,0.581221 0.367087,0.520039 0.428265,0.642399 0.367086,0.581221 0.305905,0.520038 0.275314,0.489449 0.458856,0.856532 0.39768,0.825944 0.397674,0.917715 0.336496,0.887123 0.367086,1.101259 0.305907,1.070667 0.214133,0.917716 0.183544,0.948306 0.122358,0.825944 0.09177,0.978897 0.03057,0.611809 v 0.73417 l -0.03057,0.611813 -0.09177,0.887124 -0.152956,0.825942 -0.214134,0.825943 -0.336493,0.948306 -0.367086,0.764763 -0.397676,0.67299 -0.367086,0.520037 -0.275315,0.336497 -0.367084,0.428267 -0.642404,0.642401 -0.336492,0.275315 -0.367087,0.305904 -0.58122,0.397676 -0.428265,0.275315 -0.642401,0.367084 -0.6424,0.336497 -0.764764,0.336495 -0.887124,0.336494 -0.550629,0.183545 -0.367086,0.03058 -0.305905,-0.09177 -0.244723,-0.183546 -0.183545,-0.244721 -0.09176,-0.244724 v -0.336495 l 0.122358,-0.305904 0.06118,-0.122359 h 0.06118 l 0.06118,-0.122359 0.244725,-0.152954 1.223619,-0.458857 0.917714,-0.397676 0.703584,-0.367088 0.6424,-0.397675 0.550627,-0.397677 0.336496,-0.275314 0.305905,-0.275313 0.183545,-0.152955 0.152951,-0.183541 h 0.06118 l 0.06118,-0.122359 0.275314,-0.305904 0.305903,-0.397677 0.36709,-0.581219 0.305907,-0.581222 0.275313,-0.703579 0.214132,-0.703583 0.152953,-0.73417 0.09177,-0.703583 0.03057,-0.367084 v -1.56012 l -0.122364,-1.22362 -0.183544,-1.070666 -0.244723,-1.07067 -0.30591,-1.070667 -0.336493,-1.009486 -0.336495,-0.856536 -0.336496,-0.76476 -0.367085,-0.764763 -0.428269,-0.825945 -0.42824,-0.734171 L 50.3061,21.488133 49.847241,20.815145 49.449564,20.264514 48.837754,19.469161 48.470668,19.040893 48.195355,18.7044 47.85886,18.337313 47.644725,18.092589 47.155275,17.57255 46.298742,16.716016 46.05402,16.501884 45.625752,16.104208 45.289256,15.828893 44.860989,15.461808 44.340951,15.064129 43.943275,14.758225 43.515008,14.45232 h -4.710924 l -0.244726,0.367088 -0.305904,0.336495 -0.03058,0.06118 h -0.06118 l -0.06118,0.122359 -0.336495,0.305903 -0.428263,0.336497 -0.39768,0.244724 -0.581219,0.305905 -0.672989,0.244724 -0.642402,0.152952 -0.672992,0.09176 h -0.70358 l -0.520039,-0.06118 -0.611809,-0.122358 -0.825943,-0.275315 -1.682479,-0.611809 -1.254209,-0.458859 -0.275314,-0.09177 -0.336496,0.275316 -0.428266,0.367084 -0.611809,0.550629 -0.397677,0.367088 -0.948308,0.948306 -0.03058,0.06118 h -0.06118 l -0.06118,0.122359 -0.428267,0.458855 -0.275314,0.336497 -0.367086,0.428266 -0.367087,0.489451 -0.305907,0.367084 -0.214131,0.305905 -0.397675,0.550631 -0.367088,0.550627 -0.458857,0.734174 -0.367087,0.642397 -0.428266,0.795355 -0.489447,1.009484 -0.428268,1.040079 -0.336496,0.917715 -0.305903,0.978895 -0.305908,1.193032 -0.183541,0.948305 -0.122359,0.795352 -0.06118,0.458856 -0.06118,0.917717 v 1.009487 l 0.06118,0.795352 0.152952,0.917717 0.214133,0.795352 0.244724,0.672989 0.244723,0.520038 0.244725,0.428268 0.305906,0.458857 0.305904,0.397677 0.275314,0.305906 0.214134,0.244723 0.244723,0.244726 0.244726,0.214132 0.458856,0.367085 0.428268,0.305904 0.642401,0.397679 0.948304,0.489446 0.642401,0.275314 0.887122,0.336496 1.101261,0.336497 0.978895,0.244724 0.887125,0.183543 1.070665,0.183541 1.407164,0.183544 1.315391,0.122357 0.917715,0.06118 1.713067,0.06118 h 2.294288 l 1.621296,-0.06118 1.315391,-0.09176 1.254209,-0.122359 1.437753,-0.183541 h 0.275315 l 0.367088,0.152952 0.214133,0.214133 0.152952,0.275315 0.03058,0.122357 v 0.367087 l -0.122357,0.305906 -0.214134,0.244724 -0.244724,0.122359 -0.397676,0.09176 -1.101258,0.152952 -1.529525,0.152952 -1.345982,0.09176 -1.621298,0.06118 H 35.224989 L 33.511922,44.400425 31.615309,44.247471 30.3611,44.094516 29.137483,43.910976 27.76091,43.63566 26.782013,43.390938 25.8643,43.115622 24.885403,42.779127 23.998279,42.412039 23.111156,41.983772 22.376983,41.555507 21.64281,41.066058 21.214542,40.729564 20.878048,40.454248 20.480372,40.087164 20.296828,39.934211 20.082696,39.689485 19.746199,39.3224 19.34852,38.802363 19.012026,38.312914 18.736712,37.854056 18.400218,37.211654 18.094312,36.446892 17.880178,35.804494 17.696636,35.039729 17.574277,34.36674 17.5131,33.785521 17.329556,33.724344 13.658708,31.888904 12.893944,31.552409 12.068002,31.246503 11.211468,31.00178 10.416116,30.818237 9.6513524,30.695879 9.1619036,30.634699 7.9382835,30.57352 1.3919173,30.542932 1.0860132,30.420573 0.8412884,30.206441 0.65774556,29.900535 V 12.83104 L 0.87187942,12.494544 1.1471938,12.28041 1.3001445,12.21923 1.4836887,12.18865 10.69143,12.15807 l 0.305903,-0.244722 0.550632,-0.428269 0.489447,-0.397674 0.520037,-0.397678 0.397676,-0.336496 0.275316,-0.214133 0.397675,-0.2753142 0.275315,-0.091774 h 0.305906 l 0.305905,0.1223584 0.214135,0.1529538 0.18354,0.275314 0.06118,0.183541 v 0.428267 l -0.183544,0.367087 -0.214133,0.214133 -0.520038,0.397679 -0.336494,0.275312 -0.397677,0.305906 -0.489449,0.397675 -0.428268,0.336497 -0.489447,0.397675 -0.428267,0.305907 -0.305905,0.122359 -0.611811,0.03058 H 2.5543514 l -0.030588,10.46195 v 3.334361 l -0.030588,0.795356 h 5.5674696 l 0.7953556,0.03058 0.9483031,0.09176 0.9788957,0.152952 0.795353,0.183542 0.795353,0.214133 0.887126,0.305905 0.795353,0.336497 0.550628,0.244724 2.814326,1.407163 0.03058,-0.06118 0.122358,-1.16244 0.183542,-1.162436 0.275315,-1.254213 0.244724,-0.917714 0.244725,-0.795353 0.336496,-0.948305 0.428264,-1.040079 0.275314,-0.642399 0.244726,-0.489447 0.06118,-0.152953 -0.55063,0.214133 -0.917714,0.275313 -0.856535,0.183545 -0.764763,0.122358 -0.948304,0.09176 -0.58122,0.03058 h -0.428268 l -0.275313,-0.06118 -0.244724,-0.152953 -0.214134,-0.244724 -0.122359,-0.275314 v -0.397678 l 0.122359,-0.305904 0.214134,-0.244723 0.183542,-0.122359 0.214134,-0.06118 0.275314,-0.03058 1.162438,-0.06118 0.734173,-0.09176 0.795353,-0.152952 0.764763,-0.214134 0.61181,-0.214132 0.825944,-0.367086 0.734171,-0.428269 0.520038,-0.367085 0.428267,-0.336494 0.397678,-0.367088 0.458857,-0.458856 0.214133,-0.244725 0.397676,-0.520039 0.367087,-0.520037 0.367084,-0.642403 0.489449,-0.978895 0.275314,-0.703581 0.244724,-0.734171 0.214134,-0.856533 0.152952,-0.672992 0.214135,-0.305906 0.275314,-0.183542 0.152951,-0.06118 h 0.428268 l 0.642401,0.214135 1.162439,0.428264 1.193027,0.428269 2.600193,0.948304 0.917716,0.336495 0.428267,0.122358 0.336495,0.06118 0.672991,0.03058 0.550628,-0.06118 0.581221,-0.152951 0.489447,-0.214134 0.428266,-0.244724 0.428267,-0.336496 0.275315,-0.275314 0.397676,-0.520038 V 13.25928 L 36.418028,12.80045 35.836809,12.494546 34.64378,11.882735 32.410674,10.720296 31.401185,10.200259 30.575244,9.7719909 29.810481,9.3743155 29.229262,9.0684116 28.036235,8.4566004 27.332651,8.0895152 26.62907,7.7836113 25.803128,7.5082953 25.007774,7.3247508 24.395963,7.2329759 23.600611,7.1718001 H 22.866438 L 22.162859,7.2329759 21.520457,7.3247502 20.541562,7.5694761 19.776797,7.844791 19.042627,8.1812861 18.491998,8.48719 18.03314,8.7930962 17.482513,9.1907717 17.237788,9.31313 17.115431,9.3437174 h -0.39768 L 16.411847,9.2213624 16.258895,9.099004 16.044761,8.762509 15.983582,8.5483744 V 8.3036508 L 16.105941,7.9671569 16.289483,7.7224333 16.931884,7.232985 17.880189,6.651764 18.400228,6.3764491 19.16499,6.039954 20.174476,5.7034599 20.908647,5.5199168 21.55105,5.3975583 l 0.764764,-0.091775 0.428264,-0.030577 h 1.009486 l 0.795355,0.061176 0.978896,0.1529519 0.856532,0.2141335 0.917717,0.3059038 0.703579,0.305905 0.214133,0.091774 L 27.883283,5.5199259 27.455016,4.3574885 27.332657,3.9292228 27.30207,3.745675 V 3.0726859 l 0.122357,-0.5506283 0.183544,-0.3976796 0.183543,-0.3059007 0.244725,-0.3059081 0.244723,-0.2447237 0.397676,-0.2753141 0.458859,-0.21413316 0.305901,-0.0917717 z m 0.611809,1.83543058 -0.275314,0.030578 -0.275315,0.1529522 -0.152953,0.1223626 -0.183542,0.3670852 -0.03058,0.091763 v 0.2753149 l 0.152952,0.4894458 0.458857,1.2236235 0.672992,1.7742487 0.244725,0.642399 0.122357,0.1223583 1.407162,0.7341718 0.09177,0.030587 H 42.16903 L 42.260797,8.4565801 42.627881,7.4776835 43.23969,5.8563846 43.637367,4.8163113 44.035044,3.7456419 44.096221,3.4703271 44.065638,3.1644222 43.912698,2.858524 43.759747,2.7055721 43.515022,2.5526199 43.147935,2.491439 Z m 5.873375,7.9229388 0.152954,0.122359 0.856532,0.428268 1.284802,0.67299 0.305904,0.214133 0.183546,0.152952 0.275314,0.397677 0.122357,0.152953 h 4.221488 l 0.397677,-0.06118 0.275314,-0.152952 0.183545,-0.152952 0.18354,-0.305906 0.06118,-0.214133 v -0.367082 l -0.09176,-0.305906 -0.244722,-0.336494 -0.244725,-0.152955 -0.305905,-0.09177 z"
   style="stroke-width:0.0305903" /></svg>
