<?xml version="1.0" encoding="UTF-8" standalone="no"?>
<!-- Created with Inkscape (http://www.inkscape.org/) -->

<svg
   version="1.1"
   id="svg1"
   width="13.188523"
   height="18.868368"
   viewBox="0 0 13.188523 18.868368"
   sodipodi:docname="loan_market.svg"
   xml:space="preserve"
   inkscape:version="1.3.2 (091e20e, 2023-11-25, custom)"
   xmlns:inkscape="http://www.inkscape.org/namespaces/inkscape"
   xmlns:sodipodi="http://sodipodi.sourceforge.net/DTD/sodipodi-0.dtd"
   xmlns="http://www.w3.org/2000/svg"
   xmlns:svg="http://www.w3.org/2000/svg"><defs
     id="defs1" /><sodipodi:namedview
     id="namedview1"
     pagecolor="#ffffff"
     bordercolor="#000000"
     borderopacity="0.25"
     inkscape:showpageshadow="2"
     inkscape:pageopacity="0.0"
     inkscape:pagecheckerboard="0"
     inkscape:deskcolor="#d1d1d1"
     showgrid="false"
     inkscape:zoom="16"
     inkscape:cx="17.625"
     inkscape:cy="1.21875"
     inkscape:window-width="1920"
     inkscape:window-height="991"
     inkscape:window-x="-9"
     inkscape:window-y="-9"
     inkscape:window-maximized="1"
     inkscape:current-layer="g1" /><g
     inkscape:groupmode="layer"
     inkscape:label="Image"
     id="g1"
     transform="translate(-5.8353899,-3.3700852)"><g
       id="g2"
       transform="matrix(0.01157144,0,0,0.01157144,2.1325291,2.397057)"><path
         id="path17"
         transform="translate(1325,191)"
         d="m 0,0 m -1004,139 m 0,8 m 0,18 m 11,1209 m 157,137 m 1,1 M -1005,144 h 2 l -1,2 z m 0,5 h 2 v 2 h -2 z m 1,4 1,4 z m 555,290 h 12 l 23,3 7,3 4,4 1,8 v 30 l 13,2 21,5 20,8 16,9 14,10 11,10 9,11 9,16 4,13 1,7 v 19 l -4,10 -5,7 -10,4 h -8 l -10,-5 -9,-9 -20,-30 -8,-10 -1,-3 -4,-2 -7,-6 -16,-8 -13,-4 -22,-3 h -30 l -18,3 -13,5 -14,8 -11,9 -4,2 -2,4 -7,10 -4,7 -3,13 1,9 4,9 7,8 8,8 15,9 16,6 29,7 27,6 25,7 29,9 21,7 21,9 13,7 11,9 9,9 10,14 12,23 5,15 2,8 v 24 l -5,19 -7,16 -14,22 -12,14 -8,8 -13,9 -16,9 -16,6 -27,8 -17,5 -3,1 -3,19 -5,16 -4,6 -8,6 -6,2 h -13 l -5,-3 -3,-5 -3,-18 -2,-20 -15,-6 -28,-10 -23,-10 -15,-8 -12,-9 -12,-11 -9,-11 -12,-18 -8,-15 -6,-16 -1,-4 v -8 l 4,-12 7,-8 9,-8 6,-2 7,1 11,8 6,8 11,21 11,16 11,11 11,8 16,9 16,7 25,7 16,2 h 21 l 15,-3 20,-8 15,-8 14,-10 9,-8 7,-9 7,-14 v -13 l -2,-10 -6,-12 -7,-8 -14,-10 -16,-9 -22,-8 -58,-14 -38,-10 -24,-8 -19,-9 -14,-10 -10,-9 -9,-9 -9,-13 -8,-16 -4,-11 -2,-10 v -24 l 4,-18 4,-12 8,-15 7,-9 8,-10 h 2 l 1,-3 13,-10 15,-9 14,-6 15,-5 15,-4 21,-2 2,-43 z m 529,775 h 15 c 30.18353,3.5683 40.67996,14.2932 39.68368,57.3105 C 128.47072,1297.2958 128.71484,1308.961 117,1325 l -7,11 -8,10 -11,13 -14,14 -14,11 -8,5 -13,5 -9,2 -20,2 -33,1 -863,2 c -2.73961,2.6381 1.92938,3.4409 3,5.3503 10.4265,10.2984 10.69889,8.6799 16,13.6497 l 14,10 20,15 17,12 14,11 6,7 3,7 1,11 -4,15 -5,9 -4,5 c -4.23184,3.5058 -5.09221,1.079 -14,-3 l -14,-10 -13,-10 -18,-14 -17,-13 -15,-12 -16,-12 -17,-14 -11,-9 -28,-24 -12,-11 -5,-5 -9,-10 c -3.3362,-2.8675 -0.6163,-6.3837 1,-8 l 6,-7 11,-9 13,-11 14,-11 11,-9 15,-13 17,-14 13,-10 36,-28 14,-11 18,-12 15,-8 h 6 l 5,6 4,13 2,9 v 11 l -6,9 -10,9 -9,7 -10,9 -14,11 -16,13 -17,13 -7,7 c -3.103,3.1507 -3.35475,4.0257 -5,6 H -4 l 27,-2 11,-4 9,-6 5,-4 11,-14 6,-9 7,-19 4,-18 2,-25 1,-26 z M -30.726076,-99.974539 -24.700615,-94.98727 -16,-89 l 14,11 21,16 16,12 14,11 17,14 17,13 13,10 14,12 9,9 c 16.49664,16.97227 8.18153,26.08089 -1,36 l -11,10 -8,7 -10,9 -11,9 -14,12 -11,9 -16,13 -17,13 -12,10 -11,9 -20,15 -19,10 -7,2 -7,-1 -7,-8 -4,-4 -3,-5 -3,-12 1,-5 4,-7 12,-11 13,-10 19,-14 L -4,90 9,78 22,65 -315,66 h -549 l -25,2 -11,4 -9,7 -7,8 -7,11 -4,8 -5,17 -1,19 v 22 l -2,13 -5,8 -6,5 -9,4 -8,2 -10,-1 -8,-4 -13,-11 -3,-4 -1,-12 v -15 l 3,-21 7,-20 5,-12 10,-17 12,-16 14,-15 8,-8 11,-9 11,-7 10,-5 15,-5 11,-2 16,-1 h 822 l 64,1 -17,-16 -14,-14 -8,-7 -7,-7 -11,-9 -12,-11 -8,-7 -5,-4 -6,-8 -3,-7 -1,-8 3,-10 c 4.164499,-5.74106 8.279125,-8.854 12.462724,-10.15955 7.777501,-2.42707 15.793375,1.39229 24.8112,6.185011 z M -993,168 l 1,4 z m 564,95 41,1 36,4 21,4 26,7 28,10 20,9 25,12 19,10 19,12 18,12 12,9 18,14 15,13 10,9 24,24 9,11 11,14 10,14 14,21 10,18 10,19 15,33 10,28 7,24 6,28 6,42 2,27 v 28 l -2,31 -5,36 -6,29 -11,33 -11,27 -12,26 -11,21 -10,17 -9,13 -14,19 -13,16 -12,14 -2,3 h -2 l -2,4 -25,25 -28,22 -19,14 -19,12 -25,14 -27,13 -27,11 -33,11 -26,6 -40,6 -36,3 h -41 l -35,-3 -31,-5 -32,-8 -21,-7 -23,-10 -25,-12 -16,-8 -21,-12 -24,-16 -16,-12 -13,-11 -10,-8 -7,-7 -8,-7 -16,-16 -7,-8 -13,-15 -16,-21 -10,-15 -12,-20 -10,-18 -15,-33 -10,-25 -12,-36 -6,-24 -4,-22 -2,-19 -1,-19 v -56 l 2,-26 5,-27 6,-25 9,-29 11,-28 14,-30 13,-23 9,-14 14,-20 13,-18 14,-18 12,-13 5,-6 5,-5 h 2 v -2 l 8,-7 12,-11 14,-11 15,-12 30,-20 15,-9 22,-12 23,-11 31,-12 31,-9 28,-6 30,-4 11,-1 z m -14,53 -31,2 -28,4 -27,6 -27,8 -22,8 -27,13 -28,17 -12,8 -18,13 -10,9 -11,9 -15,14 -16,16 -14,16 -11,14 -13,17 -10,16 -11,19 -8,16 -9,20 -6,15 -8,26 -8,33 -4,27 -2,28 v 35 l 2,26 4,25 7,29 8,27 8,21 12,26 13,24 14,21 12,16 13,16 12,13 7,8 19,19 11,9 13,11 19,13 13,8 15,9 23,12 25,11 19,7 26,7 26,5 25,3 12,1 h 66 l 29,-3 30,-5 25,-7 24,-9 20,-9 19,-9 14,-8 22,-14 16,-11 16,-13 13,-11 27,-27 9,-11 13,-15 13,-18 11,-17 9,-16 8,-16 13,-30 10,-30 4,-16 4,-27 3,-40 1,-23 v -28 l -2,-26 -4,-31 -5,-22 -6,-20 -12,-29 -7,-16 -12,-22 -8,-14 -13,-19 -12,-16 -11,-13 -12,-13 -25,-25 -11,-9 -18,-14 -17,-11 -20,-12 -23,-12 -22,-10 -27,-10 -21,-6 -31,-6 -26,-4 -21,-2 -19,-1 z" /></g></g></svg>
