<svg width="167" height="189" viewBox="0 0 167 189" fill="none" xmlns="http://www.w3.org/2000/svg">
<path d="M77.1209 1.64194C77.3466 1.64144 77.3466 1.64144 77.5769 1.64093C77.7435 1.64116 77.91 1.6414 78.0766 1.64166C78.2526 1.6415 78.4274 1.64129 78.6034 1.64103C79.0794 1.64049 79.5555 1.6407 80.0327 1.64107C80.5312 1.64137 81.0285 1.6411 81.5211 1.64091C82.3574 1.6407 83.1985 1.64098 84.0253 1.64154C84.9928 1.64218 85.9626 1.64198 86.9312 1.64132C87.7616 1.64079 88.5968 1.64071 89.4237 1.64102C89.9198 1.64121 90.4159 1.64123 90.912 1.64084C91.3774 1.6405 91.844 1.64073 92.3059 1.64142C92.4772 1.64158 92.6485 1.64153 92.8198 1.64127C93.0525 1.64095 93.2863 1.64142 93.519 1.64194C93.7151 1.64201 93.7151 1.64201 93.9148 1.64207C94.2207 1.65696 94.2207 1.65696 94.457 1.77556V2.60243C94.633 2.54396 94.633 2.54396 94.8113 2.48431C94.9826 2.47334 95.1551 2.46883 95.3275 2.4686C95.431 2.46837 95.5343 2.46814 95.6406 2.4679C95.7519 2.46844 95.8626 2.46897 95.9772 2.46952C96.0922 2.46975 96.2076 2.46998 96.3257 2.47021C97.2305 2.47547 98.133 2.50872 99.0308 2.56034C99.6261 2.59389 100.212 2.60488 100.814 2.59295C101.067 2.60241 101.067 2.60241 101.422 2.72052V3.5474H101.776C101.815 3.46943 101.854 3.39147 101.894 3.31115C102.393 3.32508 102.891 3.33985 103.394 3.35509C103.563 3.3602 103.733 3.36513 103.902 3.36985C104.146 3.37668 104.39 3.38415 104.633 3.39183C104.853 3.39832 104.853 3.39832 105.078 3.40494C105.443 3.42915 105.443 3.42915 105.797 3.54787V4.37474C105.914 4.33576 106.031 4.29678 106.151 4.25662C106.488 4.26402 106.82 4.27847 107.155 4.30092C107.247 4.30609 107.337 4.31127 107.432 4.31663C107.815 4.34049 108.149 4.37108 108.514 4.49263V5.31951C108.631 5.28053 108.748 5.24154 108.868 5.20138C109.185 5.18999 109.497 5.18496 109.813 5.18662C109.899 5.18616 109.984 5.1857 110.073 5.18523C110.451 5.18593 110.752 5.19929 111.113 5.3199V6.14677C111.287 6.0883 111.287 6.0883 111.467 6.02865C111.784 6.01726 112.095 6.01223 112.412 6.01388C112.497 6.01342 112.583 6.01297 112.672 6.0125C113.05 6.0132 113.351 6.02656 113.711 6.14716V7.09216C113.886 7.03369 113.886 7.03369 114.066 6.97404C114.243 6.96313 114.42 6.95868 114.597 6.95927C114.689 6.95897 114.78 6.95866 114.874 6.95835C115.129 6.97406 115.129 6.97406 115.483 7.09183V7.9187C115.658 7.86023 115.658 7.86023 115.838 7.80058C116.015 7.78968 116.192 7.78522 116.369 7.78581C116.46 7.78551 116.552 7.7852 116.646 7.78489C116.901 7.8006 116.901 7.8006 117.255 7.91837V8.74525C117.394 8.72091 117.533 8.69658 117.676 8.67142C118.188 8.6048 118.543 8.69209 119.022 8.86278V9.68966C119.197 9.63118 119.197 9.63118 119.377 9.57153C119.673 9.56017 119.966 9.55511 120.263 9.55677C120.343 9.55631 120.422 9.55585 120.505 9.55538C120.87 9.5561 121.154 9.57334 121.503 9.69005C121.518 9.82353 121.532 9.95819 121.547 10.0964C121.571 10.2358 121.596 10.374 121.621 10.5169C121.699 10.5559 121.777 10.5949 121.857 10.635C121.896 10.5571 121.935 10.4791 121.975 10.3988C122.17 10.4768 122.365 10.5547 122.566 10.635V11.4619H122.92C122.959 11.384 122.998 11.306 123.038 11.2257C123.623 11.3426 123.623 11.3426 124.22 11.4619V12.2888C124.288 12.2775 124.357 12.2662 124.428 12.2547C125.018 12.1708 125.429 12.1618 125.987 12.407V13.2339H126.341C126.38 13.156 126.419 13.078 126.459 12.9977C126.81 13.0756 127.161 13.1536 127.523 13.2339V14.0608H127.995C128.034 13.9828 128.073 13.9049 128.113 13.8245C128.23 13.9025 128.347 13.9805 128.468 14.0608C128.549 14.4896 128.549 14.4896 128.586 14.8877C128.685 14.8863 128.785 14.8849 128.887 14.8835C129.017 14.8824 129.146 14.8814 129.279 14.8803C129.473 14.8782 129.473 14.8782 129.669 14.8761C130.002 14.8877 130.002 14.8877 130.238 15.0061V15.8329L130.578 15.7666C130.947 15.7148 130.947 15.7148 131.183 15.8329V16.7779H131.656C131.695 16.7 131.734 16.622 131.774 16.5417C132.125 16.6196 132.475 16.6976 132.837 16.7779V17.6048C132.972 17.572 132.972 17.572 133.11 17.5384C133.428 17.4867 133.428 17.4867 133.782 17.6048C133.821 17.8777 133.86 18.1505 133.9 18.4317C134.173 18.4707 134.446 18.5096 134.727 18.5498V19.3767C134.788 19.3572 134.849 19.3377 134.911 19.3176C135.42 19.2131 135.887 19.2121 136.376 19.3767V20.2036C136.466 20.1792 136.557 20.1549 136.649 20.1297C136.967 20.0854 136.967 20.0854 137.321 20.3211C137.343 20.7487 137.343 20.7487 137.321 21.148H138.148V21.9748C138.343 21.9359 138.538 21.8969 138.738 21.8567V22.093H139.093V22.9198C139.366 22.9588 139.639 22.9978 139.92 23.038V23.7467L140.26 23.7393C140.628 23.7467 140.628 23.7467 140.865 23.8646V24.6914H141.692V25.5183H142.518V26.3452H143.463V27.2902H144.29V28.1171L144.631 28.1097C144.999 28.1171 144.999 28.1171 145.235 28.2349V29.0618H146.062V29.8886C146.263 29.885 146.263 29.885 146.469 29.8812C146.889 29.8886 146.889 29.8886 147.007 30.0065C147.012 30.2817 147.012 30.5581 147.007 30.8333H147.834C147.873 31.3791 147.912 31.9248 147.952 32.4871H148.661C148.7 32.76 148.739 33.0328 148.779 33.314C149.052 33.3529 149.325 33.3919 149.606 33.4321C149.645 33.705 149.684 33.9778 149.724 34.259C149.958 34.2979 150.192 34.3369 150.433 34.3771C150.472 34.9228 150.511 35.4686 150.551 36.0308H151.378V36.9758H152.205C152.244 37.2487 152.283 37.5216 152.323 37.8027C152.557 37.8417 152.791 37.8807 153.032 37.9208C153.071 38.4666 153.11 39.0123 153.15 39.5746H153.977C154.016 40.1203 154.055 40.6661 154.095 41.2283C154.329 41.2673 154.563 41.3063 154.803 41.3465C154.842 41.6193 154.881 41.8922 154.922 42.1733C155.194 42.2123 155.467 42.2513 155.748 42.2915V43.9452C156.021 43.9842 156.294 44.0232 156.575 44.0633V45.7171C156.77 45.6781 156.965 45.6391 157.166 45.599C157.283 45.6379 157.4 45.6769 157.52 45.7171V47.489H158.347V49.2608C158.542 49.2219 158.737 49.1829 158.938 49.1427C159.055 49.1817 159.172 49.2207 159.292 49.2608V51.0327H160.001C160.099 51.6281 160.132 52.1915 160.126 52.7928C160.126 52.8736 160.125 52.9546 160.125 53.0373C160.123 53.2334 160.121 53.4306 160.119 53.6267C160.211 53.6048 160.304 53.5829 160.4 53.5603C160.709 53.5086 160.709 53.5086 160.946 53.6267V55.3986H161.773V57.9974H162.599C162.638 58.8939 162.677 59.7929 162.718 60.7142H163.544V63.313H164.371C164.41 64.7541 164.449 66.1952 164.489 67.6836H165.198C165.303 68.3168 165.336 68.9239 165.341 69.5736C165.342 69.6763 165.343 69.7791 165.345 69.8843C165.348 70.2209 165.351 70.5576 165.354 70.8942C165.357 71.1293 165.359 71.3632 165.362 71.5983C165.368 72.2137 165.374 72.8268 165.38 73.441C165.386 74.0694 165.392 74.6931 165.399 75.331C165.411 76.5595 165.423 77.7998 165.435 79.0283H166.144C166.147 80.5049 166.149 81.9815 166.15 83.458C166.151 84.1431 166.151 84.8283 166.153 85.5134C166.154 86.1749 166.155 86.8364 166.155 87.4979C166.155 87.7507 166.156 88.0035 166.156 88.2563C166.157 88.6095 166.157 88.9615 166.157 89.3147C166.158 89.4203 166.158 89.5261 166.158 89.6348C166.157 90.3553 166.157 90.3553 166.026 90.4876C165.79 90.4925 165.554 90.4927 165.317 90.4876C165.318 90.5656 165.319 90.6436 165.319 90.7239C165.322 91.0806 165.323 91.4374 165.325 91.7941C165.326 91.917 165.327 92.0398 165.328 92.1662C165.33 92.8017 165.312 93.4065 165.199 94.0326H164.49C164.451 96.0643 164.412 98.0843 164.372 100.175C164.138 100.214 163.904 100.253 163.663 100.293C163.624 101.734 163.585 103.175 163.545 104.664H162.718C162.715 104.763 162.713 104.863 162.709 104.965C162.698 105.334 162.687 105.702 162.675 106.07C162.669 106.229 162.664 106.388 162.66 106.548C162.653 106.777 162.645 107.006 162.638 107.235C162.633 107.374 162.629 107.512 162.625 107.654C162.6 107.97 162.6 107.97 162.482 108.088C162.245 108.093 162.009 108.093 161.773 108.088C161.774 108.163 161.774 108.237 161.775 108.314C161.777 108.649 161.779 108.985 161.78 109.321C161.781 109.439 161.782 109.557 161.783 109.677C161.784 109.789 161.784 109.9 161.785 110.015C161.785 110.118 161.786 110.222 161.786 110.328C161.773 110.569 161.773 110.569 161.655 110.687C161.419 110.692 161.183 110.692 160.947 110.687C160.948 110.813 160.949 110.941 160.951 111.071C160.952 111.241 160.953 111.41 160.954 111.58C160.955 111.663 160.956 111.747 160.957 111.832C160.959 112.368 160.917 112.874 160.828 113.403H160.119V115.175H159.293C159.294 115.294 159.295 115.414 159.297 115.537C159.298 115.697 159.299 115.856 159.3 116.016C159.301 116.094 159.302 116.173 159.303 116.254C159.305 116.735 159.268 117.184 159.174 117.66C158.901 117.699 158.628 117.738 158.347 117.778V119.55H157.52V121.322H156.575V123.094H155.749V124.747C155.476 124.786 155.203 124.825 154.922 124.866C154.883 125.372 154.844 125.879 154.804 126.401C154.531 126.44 154.258 126.479 153.977 126.519V127.346C153.704 127.385 153.431 127.424 153.15 127.464V129.118C152.838 129.157 152.526 129.196 152.205 129.236V130.063C151.932 130.102 151.659 130.141 151.378 130.181V131.835H150.433V132.78H149.606C149.567 133.326 149.528 133.871 149.488 134.434C149.254 134.473 149.02 134.512 148.779 134.552C148.74 134.825 148.701 135.098 148.661 135.379H147.834V136.206H147.007V137.151H146.062V138.096H145.235C145.196 138.641 145.157 139.187 145.117 139.749H144.29V140.576H143.464V141.521H142.519V142.348H141.692V143.293H140.865V144.12H139.92V145.065H139.093V145.774C138.773 145.933 138.501 145.9 138.148 145.892V146.719C137.602 146.758 137.056 146.797 136.494 146.837C136.455 148.006 136.416 149.176 136.376 150.381H137.321V152.152H138.148V152.979C138.283 152.943 138.283 152.943 138.421 152.905C138.739 152.861 138.739 152.861 139.093 153.097C139.128 153.482 139.128 153.482 139.115 153.938C139.112 154.089 139.109 154.24 139.105 154.396C139.101 154.513 139.097 154.629 139.093 154.749H139.92V155.576H140.747C140.847 156.176 140.876 156.74 140.865 157.348H141.692V158.293H142.519C142.558 158.839 142.597 159.385 142.637 159.947H143.464V160.892H144.291C144.329 161.438 144.368 161.983 144.409 162.546H145.117C145.236 162.664 145.236 162.664 145.243 163.084C145.24 163.218 145.238 163.352 145.235 163.491H146.062V164.436H146.889C146.989 165.036 147.018 165.599 147.007 166.208H147.834V167.034H148.661C148.7 167.58 148.739 168.126 148.779 168.688C149.052 168.727 149.325 168.766 149.606 168.806V169.751H150.433V171.405H151.26C151.378 171.523 151.378 171.523 151.385 171.944C151.382 172.077 151.38 172.212 151.377 172.35H152.204C152.243 172.896 152.282 173.442 152.322 174.004C152.595 174.043 152.868 174.082 153.149 174.122V175.067H153.976V176.721H154.803C154.842 177.266 154.881 177.812 154.921 178.374H155.748V179.319H156.575C156.614 179.904 156.653 180.489 156.693 181.091H157.52V182.036H158.347C158.386 182.582 158.425 183.128 158.465 183.69C158.738 183.729 159.011 183.768 159.292 183.808V185.462H160.119V186.407H160.946V187.116C160.361 187.155 159.776 187.194 159.174 187.234C159.135 186.961 159.096 186.688 159.056 186.407C158.51 186.368 157.964 186.329 157.402 186.289C157.363 186.055 157.324 185.821 157.284 185.58C156.777 185.541 156.27 185.502 155.748 185.462C155.709 185.189 155.67 184.916 155.63 184.635C155.284 184.52 155.044 184.507 154.685 184.517C154.663 184.346 154.663 184.346 154.641 184.17C154.604 183.99 154.604 183.99 154.567 183.808C154.255 183.652 154.014 183.678 153.667 183.683C153.489 183.685 153.49 183.685 153.308 183.686C153.217 183.688 153.126 183.689 153.031 183.69C152.992 183.417 152.953 183.145 152.913 182.863C152.142 182.745 152.142 182.745 151.377 182.863C151.299 182.591 151.221 182.318 151.141 182.037C150.634 181.998 150.128 181.959 149.606 181.918C149.567 181.646 149.528 181.373 149.487 181.092H148.661C148.626 180.958 148.592 180.823 148.557 180.685C148.513 180.546 148.469 180.408 148.425 180.265C148.113 180.109 147.872 180.135 147.525 180.139C147.348 180.141 147.348 180.141 147.166 180.143C147.075 180.144 146.984 180.145 146.889 180.147C146.85 179.874 146.811 179.601 146.771 179.32H145.117C145.078 178.969 145.039 178.618 144.999 178.257C144.454 178.296 143.908 178.335 143.346 178.375C143.307 178.102 143.268 177.829 143.227 177.548H141.692C141.653 177.197 141.614 176.846 141.574 176.485C141.301 176.524 141.028 176.563 140.747 176.603V175.776H139.093V174.949H137.321V174.004H135.667V173.296H135.431V173.059C135.197 173.098 134.963 173.137 134.722 173.178V172.351C134.516 172.331 134.309 172.311 134.102 172.292C133.987 172.281 133.872 172.27 133.754 172.258C133.487 172.237 133.219 172.233 132.951 172.233C132.912 171.96 132.873 171.687 132.832 171.406H131.179C131.14 171.094 131.101 170.782 131.061 170.461H129.525C129.447 170.188 129.369 169.915 129.289 169.634H128.58C128.541 169.361 128.502 169.088 128.462 168.807H126.808C126.769 168.495 126.73 168.183 126.69 167.862H125.036C124.997 167.589 124.958 167.316 124.918 167.035C124.809 167.036 124.699 167.038 124.586 167.039C124.373 167.041 124.373 167.041 124.157 167.042C124.017 167.044 123.875 167.045 123.73 167.047C123.382 167.035 123.382 167.035 123.264 166.917C123.221 166.641 123.181 166.366 123.146 166.09H121.611C121.572 165.856 121.533 165.622 121.492 165.381C121.22 165.342 120.947 165.303 120.666 165.263C120.627 164.99 120.588 164.717 120.547 164.436C120.361 164.416 120.173 164.396 119.986 164.377C119.83 164.361 119.83 164.361 119.671 164.344C119.339 164.311 119.339 164.311 118.894 164.318C118.855 164.045 118.816 163.772 118.776 163.491H117.122C117.083 163.179 117.044 162.867 117.004 162.546H116.295C116.256 162.312 116.217 162.078 116.177 161.837C115.904 161.798 115.631 161.759 115.35 161.719C115.335 161.586 115.321 161.451 115.306 161.313C115.281 161.173 115.257 161.035 115.232 160.892C114.97 160.739 114.97 160.739 114.523 160.774C114.484 160.228 114.445 159.683 114.405 159.12H113.578C113.572 159.002 113.566 158.884 113.561 158.762C113.552 158.61 113.543 158.458 113.534 158.301C113.526 158.148 113.517 157.996 113.509 157.84C113.493 157.717 113.477 157.593 113.46 157.467C113.198 157.313 113.198 157.313 112.751 157.348C112.712 156.764 112.673 156.179 112.633 155.577H111.924C111.885 154.953 111.846 154.324 111.806 153.687C111.572 153.726 111.338 153.765 111.097 153.805C111.091 153.73 111.086 153.656 111.079 153.579C111.052 153.244 111.023 152.908 110.994 152.572C110.985 152.454 110.975 152.336 110.966 152.216C110.956 152.104 110.946 151.993 110.936 151.878C110.927 151.775 110.919 151.671 110.91 151.565C110.894 151.485 110.878 151.406 110.861 151.324C110.599 151.171 110.599 151.171 110.152 151.206C110.138 151.073 110.123 150.938 110.108 150.8C110.084 150.66 110.059 150.522 110.034 150.379C109.772 150.226 109.772 150.226 109.326 150.261C109.32 150.186 109.314 150.112 109.308 150.035C109.28 149.7 109.251 149.364 109.222 149.028C109.213 148.91 109.204 148.793 109.194 148.672C109.184 148.561 109.174 148.449 109.164 148.334C109.155 148.231 109.147 148.128 109.138 148.021C109.122 147.942 109.106 147.862 109.089 147.78C108.827 147.627 108.827 147.627 108.381 147.662V144.237C108.653 144.198 108.926 144.159 109.207 144.118V143.292C109.793 143.136 110.378 143.163 110.979 143.173V142.465C111.565 142.309 112.15 142.336 112.751 142.347V141.638C113.336 141.56 113.921 141.482 114.523 141.402V140.693C115.109 140.537 115.694 140.564 116.295 140.575V139.866C116.841 139.788 117.386 139.71 117.949 139.63C117.988 139.396 118.027 139.162 118.067 138.921C118.34 138.882 118.613 138.843 118.894 138.803V138.094C119.478 138.016 120.063 137.938 120.666 137.858V137.149C120.938 137.11 121.211 137.071 121.492 137.031V136.322C122.038 136.244 122.584 136.166 123.146 136.086V135.495C123.81 135.259 123.81 135.259 124.209 135.259V134.55C124.482 134.511 124.755 134.472 125.036 134.432V133.605C125.348 133.566 125.66 133.527 125.981 133.487V132.778C126.254 132.74 126.527 132.701 126.808 132.66V131.952C127.12 131.913 127.432 131.874 127.753 131.833V131.007C128.026 130.968 128.299 130.929 128.58 130.888V130.18C128.814 130.141 129.048 130.102 129.289 130.062C129.367 129.789 129.445 129.516 129.525 129.235C129.798 129.196 130.071 129.157 130.352 129.117V128.408C130.625 128.369 130.898 128.33 131.179 128.29V127.581C131.858 127.345 131.858 127.345 132.124 127.345V126.636C132.397 126.597 132.669 126.558 132.951 126.518V125.691C133.223 125.652 133.496 125.613 133.777 125.573V124.864C134.089 124.825 134.401 124.786 134.722 124.746V123.092C134.995 123.053 135.268 123.014 135.549 122.974V122.265C135.861 122.226 136.173 122.187 136.494 122.147V121.32C136.767 121.281 137.04 121.242 137.321 121.202V119.548C137.633 119.51 137.945 119.471 138.266 119.43V117.895C138.539 117.856 138.812 117.817 139.093 117.777V116.95C139.366 116.911 139.639 116.872 139.92 116.832C139.959 116.286 139.998 115.74 140.038 115.178C140.233 115.139 140.428 115.1 140.629 115.06C140.668 114.514 140.707 113.968 140.747 113.406C140.981 113.367 141.215 113.328 141.456 113.288C141.533 112.742 141.611 112.196 141.692 111.634C141.965 111.595 142.238 111.556 142.519 111.516V109.035C142.753 108.996 142.986 108.957 143.227 108.917C143.266 108.371 143.305 107.826 143.346 107.263C143.579 107.225 143.813 107.186 144.054 107.145C144.161 106.578 144.207 106.022 144.239 105.444C144.244 105.357 144.249 105.271 144.254 105.181C144.266 104.968 144.278 104.756 144.29 104.544C144.524 104.505 144.758 104.466 144.999 104.426C145.038 103.335 145.077 102.241 145.117 101.119C145.351 101.08 145.585 101.041 145.826 101C145.924 100.48 145.965 99.9763 145.982 99.4531C145.984 99.3754 145.987 99.2983 145.989 99.218C145.997 98.9723 146.004 98.7266 146.011 98.4821C146.016 98.3143 146.021 98.1466 146.026 97.98C146.039 97.5713 146.051 97.1638 146.063 96.7515C146.297 96.7126 146.53 96.6736 146.771 96.6334C146.81 94.9206 146.849 93.2078 146.89 91.4359C147.123 91.3969 147.357 91.3579 147.598 91.3178C147.758 87.018 147.78 82.7183 147.665 78.4422C147.661 78.3063 147.661 78.3063 147.658 78.1669C147.651 77.9177 147.643 77.6673 147.636 77.418C147.631 77.2798 147.627 77.1416 147.622 76.9987C147.632 76.701 147.632 76.701 147.479 76.5746H146.889C146.85 74.8264 146.811 73.0663 146.771 71.259H146.062C146.058 71.142 146.058 71.142 146.053 71.0227C146.039 70.666 146.025 70.3093 146.01 69.9525L145.996 69.5804C145.97 68.9508 145.931 68.3401 145.826 67.7141H145.117C145.078 66.8175 145.039 65.9186 144.999 64.9972H144.29C144.252 64.1396 144.213 63.2844 144.172 62.3984H143.818H143.345C143.307 61.5408 143.268 60.6856 143.227 59.7997H142.519C142.48 59.215 142.441 58.6302 142.4 58.0278H141.692L141.644 57.6699C141.623 57.5175 141.603 57.3651 141.581 57.208C141.55 56.98 141.55 56.98 141.519 56.7473C141.496 56.3918 141.496 56.3918 141.337 56.2559H140.746V54.484H140.038C139.937 53.884 139.909 53.3205 139.919 52.7122H139.093C139.054 52.4393 139.015 52.1664 138.974 51.8853C138.741 51.8463 138.507 51.8073 138.266 51.7672V50.1134H137.321V48.3415H136.494V47.6328C136.36 47.6158 136.226 47.5987 136.087 47.5811C135.667 47.5147 135.667 47.5147 135.549 47.3968C135.54 47.1381 135.539 46.8794 135.541 46.6219C135.542 46.4801 135.544 46.3384 135.545 46.1931C135.546 46.0836 135.547 45.9746 135.549 45.8612C135.276 45.8222 135.003 45.7832 134.722 45.743V44.9162H134.486C134.447 44.8382 134.408 44.7602 134.368 44.6799C134.173 44.7189 133.978 44.7579 133.777 44.798C133.699 44.4862 133.621 44.1743 133.541 43.853C133.346 43.892 133.151 43.931 132.95 43.9712C132.928 43.7703 132.928 43.7703 132.906 43.5648C132.881 43.4254 132.857 43.2872 132.832 43.1443C132.57 42.9907 132.57 42.9907 132.123 43.0262C132.109 42.9167 132.095 42.8076 132.08 42.6942C132.06 42.5525 132.04 42.4107 132.02 42.2654C132.001 42.1249 131.981 41.9831 131.962 41.8378C131.937 41.7231 131.912 41.6087 131.887 41.4905C131.625 41.337 131.625 41.337 131.178 41.3724C131.139 41.0606 131.1 40.7487 131.06 40.4274H130.351C130.312 40.1545 130.273 39.8817 130.233 39.6005H129.879C129.72 39.5644 129.562 39.5255 129.406 39.4824C129.367 39.2095 129.328 38.9367 129.288 38.6555H128.579C128.54 38.3827 128.501 38.1098 128.461 37.8287H127.753C127.636 37.5168 127.519 37.205 127.398 36.8837H126.808C126.769 36.5718 126.73 36.26 126.689 35.9387C126.417 35.9776 126.144 36.0166 125.863 36.0568C125.824 35.8229 125.785 35.589 125.744 35.348C125.472 35.2701 125.199 35.1921 124.918 35.1118C124.879 34.8779 124.84 34.644 124.799 34.403C124.293 34.3641 123.786 34.3251 123.264 34.2849C123.225 33.9731 123.186 33.6612 123.146 33.3399H122.909H122.437C122.359 33.067 122.281 32.7942 122.201 32.513H121.492C121.453 32.2402 121.414 31.9673 121.374 31.6862C121.206 31.6662 121.039 31.6466 120.872 31.6271C120.779 31.6161 120.685 31.6051 120.589 31.5939C120.279 31.5608 120.279 31.5608 119.838 31.568C119.76 31.2952 119.682 31.0223 119.602 30.7412H118.893C118.854 30.4683 118.815 30.1954 118.775 29.9143H117.121C117.082 29.6024 117.043 29.2906 117.003 28.9693H116.176C116.137 28.6964 116.098 28.4235 116.058 28.1424H114.523C114.484 27.8695 114.445 27.5967 114.404 27.3155C113.859 27.2766 113.313 27.2376 112.751 27.1974C112.712 26.9245 112.673 26.6517 112.633 26.3705H110.979C110.94 26.0977 110.901 25.8248 110.861 25.5437C110.693 25.5204 110.526 25.4985 110.359 25.4773C110.265 25.465 110.172 25.4526 110.076 25.4399C109.798 25.4257 109.591 25.4616 109.325 25.5438C109.247 25.2709 109.169 24.998 109.089 24.7169C108.555 24.6126 108.052 24.5858 107.506 24.5917C107.358 24.5928 107.212 24.5938 107.061 24.5949C106.949 24.5963 106.838 24.5977 106.724 24.5991V23.7722C105.866 23.7332 105.011 23.6942 104.125 23.6541C104.047 23.3812 103.969 23.1083 103.889 22.8272H101.408V22.1185C101.018 21.9885 100.731 21.9873 100.322 21.9885C100.179 21.9889 100.036 21.9893 99.8892 21.9897C99.7404 21.9907 99.5903 21.9917 99.4368 21.9927C99.2868 21.9932 99.1356 21.9937 98.9808 21.9943C98.6087 21.9957 98.2366 21.9976 97.8645 22.0001C97.8256 21.7272 97.7866 21.4543 97.7464 21.1732C96.6325 21.0558 95.5257 21.0409 94.4153 21.048C94.2452 21.0486 94.0751 21.0491 93.905 21.0496C93.4939 21.0509 93.0828 21.0529 92.6765 21.0553C92.6375 20.7825 92.5985 20.5096 92.5584 20.2285C89.9832 20.2257 87.4199 20.2236 84.8448 20.2224C83.6517 20.2217 82.4587 20.2209 81.2656 20.2196C80.2249 20.2184 79.1866 20.2176 78.1471 20.2174C77.5966 20.2172 77.045 20.2169 76.4934 20.216C75.9748 20.2152 75.455 20.2149 74.9341 20.2151C74.7439 20.2151 74.5537 20.2149 74.3636 20.2144C74.1037 20.2138 73.8426 20.214 73.5828 20.2143C73.4375 20.2142 73.2922 20.2141 73.1422 20.214C72.6767 20.2298 72.2314 20.2826 71.7719 20.3463C71.7329 20.5412 71.6939 20.7361 71.6538 20.9369C71.5485 20.9413 71.5485 20.9413 71.4412 20.9458C71.1187 20.9597 70.795 20.9741 70.4725 20.9886C70.3621 20.9932 70.2516 20.9979 70.1382 21.0027C69.4956 21.0318 68.8625 21.0838 68.2246 21.1728C68.1856 21.4456 68.1466 21.7185 68.1065 21.9996H64.5627V22.7084C62.8617 22.8253 62.8617 22.8253 61.1371 22.9446V23.6534C60.5524 23.6924 59.9677 23.7313 59.3652 23.7715V24.4803C58.803 24.5928 58.282 24.6078 57.7115 24.5984V25.3071C57.4339 25.4453 57.2449 25.4489 56.9354 25.4631C56.8296 25.468 56.724 25.473 56.6153 25.4781C56.5046 25.4827 56.3944 25.4873 56.2798 25.4921C56.1682 25.4972 56.0566 25.5023 55.942 25.5076C55.6656 25.5201 55.3903 25.5322 55.1139 25.5439V26.2526C54.2374 26.3696 54.2374 26.3696 53.342 26.4889V27.0795C52.9321 27.1964 52.9321 27.1964 52.5152 27.3157C52.4762 27.5496 52.4372 27.7835 52.397 28.0245C51.8123 28.0635 51.2276 28.1024 50.6252 28.1426V28.9695C50.0794 29.0085 49.5337 29.0474 48.9714 29.0876V29.7964C48.6596 29.8353 48.3477 29.8743 48.0264 29.9145V30.6232C47.2078 30.7402 47.2078 30.7402 46.3727 30.8595C46.3337 31.1324 46.2947 31.4052 46.2545 31.6864H45.4277C45.4301 31.8008 45.4325 31.9155 45.435 32.0336C45.4277 32.3951 45.4277 32.3951 45.3098 32.5132C45.0346 32.5181 44.7582 32.5182 44.483 32.5132V33.3401C43.9372 33.3791 43.3915 33.4181 42.8292 33.4582V34.2851H41.8842V35.112C41.6113 35.151 41.3385 35.1899 41.0573 35.2301C41.0184 35.503 40.9794 35.7758 40.9392 36.057H40.1123V36.8839C39.8395 36.9228 39.5666 36.9618 39.2855 37.002C39.2465 37.2749 39.2075 37.5477 39.1673 37.8289H38.3405V38.6557C38.0676 38.6947 37.7947 38.7337 37.5136 38.7739C37.4746 39.0077 37.4356 39.2416 37.3955 39.4826C37.1616 39.5216 36.9277 39.5606 36.6867 39.6007C36.6477 39.8736 36.6087 40.1465 36.5686 40.4276H35.7417V41.1364C35.6106 41.1583 35.4783 41.1802 35.3424 41.2027C35.131 41.2868 35.131 41.2868 34.9148 41.3728C34.7329 41.7875 34.7329 41.7875 34.6786 42.1997H33.9698V42.7903C33.8364 42.8318 33.7017 42.8731 33.5635 42.9156C33.332 43.0019 33.332 43.0019 33.143 43.1447C33.0177 43.5688 33.0177 43.5688 33.0248 43.9716H32.198C32.2016 44.1724 32.2016 44.1724 32.2053 44.3779C32.198 44.7985 32.198 44.7985 32.0801 44.9166H31.3714V46.4522C31.0595 46.4912 30.7477 46.5302 30.4264 46.5703V47.5153H29.5995V49.1691C29.3266 49.2081 29.0538 49.2471 28.7726 49.2872C28.7336 49.5601 28.6947 49.833 28.6545 50.1141H27.8276V51.7678C27.5158 51.8068 27.2039 51.8458 26.8826 51.886V53.4216C26.6487 53.4606 26.4149 53.4996 26.1739 53.5397C26.1349 53.8516 26.0959 54.1634 26.0558 54.4847C25.8219 54.5627 25.588 54.6406 25.347 54.721C25.269 55.5006 25.1911 56.2802 25.1108 57.0835H24.402C24.363 57.6682 24.324 58.2529 24.2839 58.8553H23.5751C23.5361 59.4401 23.4972 60.0248 23.457 60.6272H22.6301C22.5911 61.5238 22.5522 62.4227 22.512 63.3441H21.9214C21.73 63.5355 21.7773 63.7528 21.7655 64.0162C21.7605 64.1277 21.7556 64.2395 21.7505 64.3541C21.7458 64.4714 21.7412 64.5891 21.7364 64.7096C21.7287 64.8868 21.7287 64.8868 21.7209 65.0664C21.7084 65.3581 21.6964 65.6499 21.6847 65.9428H20.8578C20.8188 67.1123 20.7798 68.2817 20.7397 69.4866H20.0309C19.9919 71.164 19.9529 72.8413 19.9128 74.566C19.6789 74.6439 19.445 74.7219 19.204 74.8022C19.0623 75.8027 19.0706 76.7985 19.0729 77.8026C19.0729 77.9987 19.0729 78.1936 19.0729 78.3897C19.0728 78.9177 19.0735 79.4469 19.0744 79.9725C19.0751 80.5254 19.0752 81.0794 19.0753 81.6381C19.0757 82.6847 19.0766 83.7289 19.0778 84.7802C19.0791 85.9733 19.0798 87.1664 19.0804 88.3594C19.0816 90.8164 19.0837 93.2616 19.0863 95.7186C19.3592 95.7576 19.6321 95.7966 19.9132 95.8367V100.089C20.1861 100.128 20.4589 100.167 20.7401 100.207C20.8806 102.487 20.8806 102.487 20.8582 103.633C21.1311 103.672 21.4039 103.711 21.6851 103.751V106.232C21.9579 106.271 22.2308 106.31 22.5119 106.35C22.5509 107.168 22.5899 107.992 22.6301 108.83C22.864 108.869 23.0978 108.908 23.3388 108.949C23.5609 109.171 23.503 109.544 23.5231 109.842C23.533 109.983 23.5429 110.125 23.5531 110.27C23.5603 110.38 23.5674 110.489 23.5748 110.602C23.6698 110.639 23.765 110.675 23.8631 110.713C24.1655 110.838 24.1655 110.838 24.2836 110.956C24.2929 111.168 24.2999 111.379 24.3058 111.592C24.324 111.943 24.324 111.943 24.4017 112.256C24.7384 112.513 24.7384 112.513 25.1105 112.61C25.2617 112.914 25.2676 113.174 25.2947 113.51C25.3046 113.628 25.3146 113.748 25.3247 113.869C25.3319 113.961 25.339 114.051 25.3465 114.146C25.4414 114.182 25.5367 114.219 25.6347 114.257C25.9371 114.382 25.9371 114.382 26.0552 114.5C26.0638 114.719 26.0651 114.938 26.0626 115.157C26.0615 115.276 26.0605 115.395 26.0594 115.519C26.0573 115.658 26.0573 115.658 26.0552 115.799C26.1697 115.836 26.2844 115.873 26.4025 115.91C26.764 116.035 26.764 116.035 26.8821 116.154C26.9289 116.391 26.9699 116.631 27.0073 116.869L27.0705 117.265C27.0862 117.366 27.1019 117.467 27.118 117.571C27.3519 117.649 27.5858 117.727 27.8267 117.807C27.8341 117.919 27.8414 118.032 27.849 118.147C27.8964 118.331 27.8964 118.331 27.9449 118.516C28.2319 118.68 28.2319 118.68 28.5355 118.752C28.7576 118.974 28.6997 119.348 28.7198 119.645C28.7297 119.787 28.7396 119.929 28.7498 120.074C28.7569 120.184 28.7641 120.293 28.7715 120.406C28.9109 120.399 28.9109 120.399 29.0526 120.391C29.3621 120.406 29.3621 120.406 29.5984 120.642C29.63 120.72 29.6617 120.798 29.6943 120.878C29.8467 121.189 29.8467 121.189 30.4255 121.35C30.4645 121.857 30.5035 122.364 30.5436 122.886C30.7775 122.964 31.0114 123.042 31.2524 123.122C31.3355 123.357 31.4142 123.594 31.4886 123.831C31.7816 123.993 31.7816 123.993 32.0792 124.067C32.1974 124.185 32.1974 124.185 32.2045 124.547C32.2008 124.718 32.2008 124.718 32.1971 124.894H33.0239C33.0629 125.128 33.1019 125.362 33.1421 125.603C33.376 125.681 33.6098 125.759 33.8508 125.839C33.9288 126.307 34.0067 126.775 34.0871 127.257C34.321 127.335 34.5548 127.413 34.7958 127.493C34.8348 127.727 34.8738 127.961 34.9139 128.202C35.1868 128.28 35.4597 128.358 35.7408 128.438C35.7798 128.633 35.8188 128.828 35.8589 129.029C36.0928 129.107 36.3267 129.184 36.5677 129.265C36.6067 129.499 36.6457 129.733 36.6858 129.974C36.9587 130.052 37.2316 130.129 37.5127 130.21V131.037C37.5833 131.015 37.6544 130.993 37.7265 130.97C37.9852 130.919 37.9852 130.919 38.3396 131.037C38.3786 131.271 38.4175 131.504 38.4577 131.745C38.6916 131.823 38.9255 131.901 39.1664 131.982C39.2054 132.177 39.2444 132.371 39.2846 132.572C39.3967 132.599 39.509 132.626 39.6248 132.654C39.9933 132.808 39.9933 132.808 40.1492 133.104C40.1894 133.25 40.1894 133.25 40.2305 133.399C40.2695 133.477 40.3085 133.555 40.3486 133.635C40.7066 133.713 40.7066 133.713 41.0574 133.753C41.0964 133.948 41.1354 134.143 41.1755 134.344C41.2851 134.373 41.3952 134.402 41.5074 134.433C41.8843 134.58 41.8843 134.58 42.0426 134.813C42.3012 135.131 42.5151 135.167 42.9096 135.259C43.027 135.288 43.1447 135.317 43.2651 135.346C43.3998 135.376 43.3998 135.376 43.5368 135.407C43.6703 135.85 43.6703 135.85 43.5368 136.116C43.627 136.109 43.7176 136.101 43.8097 136.094C44.1275 136.116 44.1275 136.116 44.3413 136.264C44.4818 136.47 44.4818 136.47 44.4818 136.943C44.7004 137.016 44.9189 137.087 45.1386 137.157C45.4268 137.297 45.4268 137.297 45.5178 137.529C45.6501 137.804 45.6501 137.804 45.9962 137.893C46.125 137.92 46.2537 137.947 46.386 137.976C46.5159 138.004 46.6447 138.033 46.7782 138.062C46.8778 138.082 46.9778 138.103 47.0794 138.123C47.0902 138.216 47.101 138.31 47.1121 138.406C47.1402 138.507 47.1685 138.609 47.1975 138.714C47.6074 138.935 47.6074 138.935 48.0244 139.068V139.777C48.1304 139.741 48.1304 139.741 48.2382 139.703C48.4969 139.659 48.4969 139.659 48.8513 139.895C48.8735 140.322 48.8735 140.322 48.8513 140.722H49.0875C49.1265 140.644 49.1655 140.566 49.2057 140.485C49.3616 140.563 49.5175 140.641 49.6782 140.722V141.548H48.8513V143.202C48.5784 143.241 48.3055 143.28 48.0244 143.32V144.147H47.1975C47.2 144.287 47.2024 144.425 47.2049 144.568C47.2057 145.03 47.1553 145.463 47.0797 145.914H46.2528V146.859H45.4259V148.513C45.1531 148.552 44.8802 148.591 44.5991 148.631C44.5601 149.177 44.5211 149.723 44.4809 150.285H43.6541L43.6582 150.493C43.6644 151.029 43.6443 151.529 43.5354 152.052H42.7085V152.879C42.4746 152.957 42.2407 153.035 41.9998 153.115C41.9608 153.661 41.9218 154.207 41.8816 154.769H40.9366V155.478C40.7004 155.483 40.4641 155.483 40.2279 155.478C40.1098 155.36 40.1098 155.36 40.1027 155.057C40.1063 154.914 40.1063 154.914 40.1101 154.769C39.9671 154.771 39.9671 154.771 39.8206 154.772C38.7989 154.744 38.7989 154.744 38.4858 154.471C38.3441 154.251 38.3441 154.251 38.2201 154.026C38.0488 153.736 37.796 153.632 37.5089 153.469C37.4765 153.39 37.4441 153.31 37.4107 153.228C37.3652 153.152 37.3196 153.076 37.2725 152.997C36.9949 152.923 36.9949 152.923 36.6818 152.923C36.1136 152.901 36.1136 152.901 35.855 152.642V152.169H35.6187V151.933H35.0281C34.9891 151.738 34.9501 151.543 34.91 151.342C34.7812 151.318 34.6513 151.294 34.519 151.269C34.3748 151.215 34.2319 151.161 34.0831 151.106C34.0295 150.986 33.9758 150.867 33.9201 150.744C33.8568 150.63 33.7937 150.515 33.7287 150.397C33.4535 150.325 33.2042 150.308 32.9207 150.303C32.6656 150.279 32.6656 150.279 32.3112 150.043C32.2299 149.674 32.2299 149.674 32.1931 149.334H31.4843C31.4575 149.222 31.4307 149.11 31.4031 148.994C31.2897 148.602 31.2897 148.602 30.9601 148.507C30.8602 148.468 30.7605 148.429 30.6577 148.389C30.5992 148.27 30.5407 148.15 30.4805 148.028C30.3399 147.651 30.3399 147.651 29.9856 147.578C29.8954 147.573 29.8048 147.568 29.7127 147.563C29.6737 147.368 29.6347 147.173 29.5946 146.972C29.4268 146.936 29.4268 146.936 29.2544 146.898C29.1327 146.845 29.011 146.791 28.8858 146.735C28.807 146.499 28.7287 146.263 28.6496 146.027C28.2928 145.855 28.2928 145.855 27.9408 145.79C27.9018 145.595 27.8629 145.4 27.8227 145.2C27.629 145.163 27.629 145.163 27.4317 145.126C27.2876 145.072 27.1447 145.019 26.9958 144.963C26.9447 144.844 26.8935 144.724 26.8411 144.601C26.7753 144.487 26.71 144.372 26.6414 144.254C26.3674 144.199 26.3674 144.199 26.0579 144.195C25.7413 144.183 25.7413 144.183 25.4602 144.136C24.9877 143.607 24.9877 143.607 24.9877 143.191C24.9146 143.186 24.8412 143.181 24.7656 143.176C24.6828 143.142 24.6002 143.108 24.5152 143.073C24.3675 142.711 24.3675 142.711 24.2789 142.364H23.4521C23.4518 142.257 23.4515 142.15 23.4511 142.04C23.4376 141.626 23.4152 141.236 23.334 140.824C23.0009 140.573 23.0009 140.573 22.6252 140.469C22.5464 140.272 22.4681 140.076 22.389 139.879C22.0322 139.661 22.0322 139.661 21.6802 139.524V139.052C21.5089 138.997 21.5089 138.997 21.3329 138.941C20.9715 138.816 20.9715 138.816 20.8533 138.698C20.8485 138.5 20.8483 138.304 20.8533 138.107C20.5805 138.029 20.3076 137.951 20.0265 137.871C19.9875 137.676 19.9485 137.481 19.9083 137.28C19.7406 137.244 19.7406 137.244 19.5681 137.206C19.4465 137.153 19.3248 137.099 19.1996 137.043C19.1164 136.808 19.0378 136.572 18.9633 136.335C18.8659 136.296 18.7684 136.257 18.668 136.217C18.3727 136.098 18.3727 136.098 18.2251 135.789C18.1252 135.34 18.0656 134.903 18.0183 134.442H17.4277C17.3887 134.208 17.3498 133.974 17.3096 133.734C17.1419 133.697 17.1419 133.697 16.9694 133.66C16.8477 133.606 16.726 133.552 16.6008 133.497C16.522 133.26 16.4437 133.024 16.3646 132.788C16.0126 132.625 16.0126 132.625 15.6558 132.552C15.4338 132.33 15.4916 131.956 15.4716 131.659C15.4617 131.517 15.4517 131.375 15.4416 131.23C15.4344 131.12 15.4273 131.011 15.4198 130.898C15.1859 130.937 14.952 130.976 14.7111 131.016C14.6526 130.49 14.6526 130.49 14.5929 129.953C14.4785 129.955 14.3638 129.958 14.2457 129.96C13.8842 129.953 13.8842 129.953 13.7661 129.835C13.7325 129.469 13.713 129.103 13.6927 128.735C13.678 128.631 13.6632 128.526 13.6479 128.418C13.3857 128.264 13.3857 128.264 12.9392 128.299C12.9282 128.132 12.9282 128.132 12.917 127.959L12.8211 127.591C12.625 127.51 12.4277 127.431 12.2304 127.354C12.0013 126.862 11.9399 126.355 11.8761 125.819C11.7811 125.782 11.6859 125.746 11.5878 125.708C11.2854 125.583 11.2854 125.583 11.1673 125.465C11.1397 125.226 11.1185 124.987 11.1009 124.749C11.091 124.619 11.0811 124.488 11.0709 124.353C11.0602 124.202 11.0602 124.202 11.0492 124.047C10.9548 124.015 10.8602 123.982 10.7633 123.949C10.4586 123.811 10.4586 123.811 10.3109 123.493C10.2193 123.088 10.1538 122.687 10.1042 122.276C10.0092 122.24 9.91402 122.203 9.81597 122.165C9.51357 122.04 9.51357 122.04 9.39545 121.922C9.36781 121.684 9.34666 121.445 9.32906 121.206C9.31916 121.076 9.30922 120.945 9.29906 120.811C9.2919 120.71 9.28477 120.609 9.27732 120.505C9.08242 120.466 8.88751 120.427 8.6867 120.387C8.62728 120.136 8.56857 119.884 8.50951 119.633L8.40981 119.209C8.33232 118.85 8.33232 118.85 8.33232 118.613H7.7417C7.5905 118.31 7.58459 118.05 7.55742 117.713C7.54752 117.595 7.53758 117.476 7.52742 117.354C7.52027 117.263 7.51313 117.172 7.50569 117.078L7.21746 116.967C6.91506 116.842 6.91506 116.842 6.79694 116.724C6.76918 116.466 6.74803 116.207 6.73055 115.949C6.72065 115.807 6.71071 115.665 6.70055 115.52C6.69339 115.41 6.68625 115.301 6.67881 115.188C6.5862 115.152 6.49335 115.115 6.39767 115.077C6.087 114.952 6.08701 114.952 5.85194 114.834C5.81296 114.015 5.77397 113.192 5.73381 112.353H5.14319C4.96009 112.17 4.99907 111.987 4.98726 111.733C4.98231 111.632 4.97736 111.531 4.97226 111.427C4.96761 111.321 4.96298 111.215 4.95821 111.106C4.9531 110.999 4.94799 110.893 4.94273 110.783C4.9302 110.52 4.91815 110.255 4.90646 109.991C4.792 109.954 4.6773 109.918 4.55917 109.88C4.19771 109.755 4.19771 109.755 4.07959 109.637C4.06116 109.47 4.04994 109.302 4.04226 109.135C4.03731 109.034 4.03236 108.933 4.02726 108.829C4.02261 108.723 4.01798 108.616 4.01321 108.507C4.0081 108.401 4.00299 108.295 3.99773 108.185C3.9852 107.921 3.97315 107.657 3.96146 107.392C3.86649 107.356 3.77128 107.319 3.67324 107.281C3.37084 107.156 3.37084 107.156 3.25271 107.038C3.23393 106.785 3.22306 106.531 3.21539 106.277C3.21044 106.123 3.20548 105.969 3.20038 105.81C3.19568 105.645 3.191 105.481 3.18633 105.317C3.18123 105.153 3.17607 104.987 3.17085 104.823C3.15833 104.419 3.14616 104.015 3.13459 103.607H2.54396C2.26282 102.71 2.25574 101.823 2.23447 100.89C2.22995 100.729 2.22534 100.568 2.22065 100.408C2.20957 100.017 2.19951 99.627 2.19018 99.236H1.59955C1.45544 98.9478 1.46253 98.7529 1.45663 98.4304C1.45427 98.3123 1.45191 98.1941 1.44949 98.0725C1.44751 97.9449 1.44554 97.8161 1.44351 97.685C1.44105 97.5539 1.4386 97.424 1.43607 97.2893C1.42833 96.87 1.42142 96.4518 1.41446 96.0372C1.40935 95.7537 1.4042 95.4702 1.39898 95.1867C1.38634 94.4909 1.37429 93.7928 1.36271 93.0959H0.772086C0.673333 92.1828 0.637423 91.2767 0.638604 90.3672C0.638397 90.2301 0.63819 90.0943 0.637977 89.9526C0.63746 89.5049 0.6378 89.0572 0.6382 88.6059C0.63812 88.2929 0.638009 87.981 0.637861 87.668C0.637647 87.016 0.637924 86.3686 0.638488 85.7071C0.639133 84.9535 0.638921 84.1951 0.638272 83.4391C0.637672 82.7115 0.637739 81.9862 0.638085 81.2538C0.638164 80.9443 0.638064 80.636 0.637789 80.3265C0.63749 79.8966 0.637945 79.4654 0.638604 79.039C0.638365 78.9114 0.638128 78.7826 0.637883 78.6503C0.638216 78.5334 0.63855 78.4165 0.638892 78.296C0.638937 78.1944 0.638976 78.0928 0.639022 77.9877C0.653906 77.7278 0.653906 77.7278 0.772504 77.3734C1.00639 77.3344 1.24028 77.2955 1.48125 77.2553C1.48073 77.17 1.48021 77.0852 1.47966 76.9966C1.47494 76.1933 1.47133 75.3901 1.469 74.5869C1.46778 74.1734 1.4661 73.7612 1.46342 73.3465C1.46037 72.8717 1.45921 72.398 1.45818 71.929C1.45696 71.7802 1.45574 71.6314 1.45448 71.479C1.45446 71.342 1.45444 71.2049 1.45443 71.0632C1.4539 70.9415 1.45337 70.821 1.45283 70.6958C1.48129 70.4076 1.4813 70.4076 1.71743 70.1713C2.0281 70.1566 2.0281 70.1566 2.30806 70.1713C2.3062 70.0557 2.30435 69.9398 2.30243 69.8205C2.29601 69.3905 2.29194 68.9606 2.28861 68.5329C2.28683 68.3475 2.28442 68.1608 2.28134 67.9754C2.27703 67.7084 2.27504 67.4403 2.27346 67.1733C2.27163 67.0905 2.26981 67.008 2.26793 66.9229C2.2678 66.5626 2.29214 66.3063 2.45811 65.9826C2.66246 65.8031 2.66247 65.8031 3.13497 65.8031C3.13731 65.7041 3.13964 65.6046 3.14206 65.503C3.15128 65.1357 3.16155 64.7695 3.17242 64.4033C3.17918 64.1659 3.18471 63.9296 3.19026 63.6922C3.19483 63.5433 3.19939 63.3957 3.20408 63.2421C3.20779 63.1051 3.2115 62.9669 3.21533 62.8263C3.25301 62.4956 3.253 62.4956 3.48937 62.2593C3.80004 62.2446 3.80004 62.2446 4.08 62.2593C4.07814 62.1724 4.07629 62.0857 4.07438 61.9959C4.06701 61.6014 4.06245 61.2068 4.05784 60.8147C4.05488 60.6776 4.0519 60.5406 4.04884 60.4C4.04769 60.2677 4.04656 60.1366 4.04538 60.0008C4.04352 59.8791 4.04167 59.7586 4.03975 59.6334C4.08582 59.2613 4.17087 59.0995 4.43429 58.8361C4.75205 58.8065 4.75205 58.8065 5.02492 58.8361C5.02306 58.7306 5.02307 58.7306 5.02118 58.6234C5.01627 58.3057 5.01319 57.9879 5.01015 57.6702C5.00817 57.5595 5.0062 57.4493 5.00415 57.3347C5.00301 57.1764 5.00301 57.1764 5.00185 57.0146C5.00061 56.9169 4.99938 56.8197 4.9981 56.7181C5.02492 56.4747 5.02492 56.4747 5.26152 56.2385C5.57101 56.2237 5.57101 56.2237 5.85215 56.2385C5.8494 56.1304 5.84666 56.0223 5.84384 55.9113C5.84171 55.7707 5.83958 55.6302 5.83738 55.486L5.82907 55.062C5.85211 54.7029 5.85211 54.7029 6.08895 54.4666C6.39844 54.4519 6.39844 54.4519 6.67958 54.4666C6.68191 54.3927 6.68426 54.319 6.68668 54.2422C6.69791 53.9079 6.71089 53.5748 6.72389 53.2405C6.72754 53.1241 6.7312 53.0078 6.73497 52.8885L6.74879 52.5518C6.7525 52.4492 6.7562 52.3463 6.76003 52.2411C6.79771 51.9872 6.79771 51.9872 7.03408 51.7509C7.34357 51.7362 7.34357 51.7362 7.62471 51.7509C7.62196 51.6428 7.61922 51.5348 7.6164 51.4237C7.61427 51.2831 7.61214 51.1426 7.60994 50.9985L7.60163 50.5744C7.62467 50.2153 7.62467 50.2153 7.86151 49.9791H8.57026V48.3253C8.84313 48.2863 9.116 48.2473 9.39714 48.2072V46.6716C9.67 46.6326 9.94287 46.5936 10.224 46.5534C10.263 46.0077 10.302 45.462 10.3421 44.8997C10.615 44.8607 10.8879 44.8217 11.169 44.7816V43.1278C11.4419 43.0888 11.7147 43.0498 11.9959 43.0097C11.991 42.8976 11.9861 42.7852 11.9811 42.6695C11.9959 42.3009 11.9959 42.3009 12.2315 42.0647H12.9403V40.5291C13.2132 40.4901 13.486 40.4511 13.7672 40.4109C13.7623 40.2798 13.7574 40.1475 13.7524 40.0117C13.7672 39.5841 13.7672 39.5841 14.0028 39.3478H14.5935C14.6324 38.841 14.6714 38.3343 14.7116 37.8122C14.9844 37.7732 15.2573 37.7342 15.5385 37.6941C15.5311 37.582 15.5238 37.4696 15.5162 37.3539L15.5385 36.9853C15.8928 36.7491 15.8928 36.7491 16.3653 36.7491C16.4043 36.2423 16.4433 35.7355 16.4835 35.2134C16.7563 35.1744 17.0292 35.1355 17.3103 35.0953V34.3866C17.5832 34.3086 17.8561 34.2306 18.1372 34.1503V33.4416C18.4573 33.2821 18.729 33.3152 19.0822 33.3234V32.4966C19.3551 32.4576 19.6279 32.4186 19.9091 32.3784V30.8428C20.2292 30.6833 20.5009 30.7164 20.8541 30.7247V29.8978C21.127 29.8588 21.3998 29.8198 21.681 29.7797V29.0709C22.0011 28.9115 22.2728 28.9445 22.626 28.9528V28.1259C22.8988 28.0869 23.1717 28.048 23.4528 28.0078V27.2991C23.773 27.1396 24.0446 27.1727 24.3978 27.1809V26.4722C24.6707 26.4332 24.9436 26.3942 25.2247 26.3541V25.5272C25.4976 25.4882 25.7704 25.4492 26.0516 25.4091V24.7003C26.3717 24.5408 26.6434 24.5739 26.9966 24.5822V23.7553C27.2695 23.7163 27.5423 23.6773 27.8235 23.6372V22.9284C28.1436 22.769 28.4153 22.802 28.7685 22.8103V21.9834C29.0413 21.9444 29.3142 21.9055 29.5953 21.8653V21.1566C30.7069 20.8849 30.7069 20.8849 31.2491 20.9203L31.2343 20.6392C31.2491 20.3297 31.2491 20.3297 31.4847 20.0934C31.8533 20.0787 31.8533 20.0787 32.1935 20.0934V19.3847C32.5136 19.2252 32.7853 19.2583 33.1385 19.2666V18.5578C33.4586 18.3983 33.7303 18.4314 34.0835 18.4397V17.6128C34.4095 17.4498 34.68 17.4829 35.0427 17.4876C35.1726 17.4887 35.3014 17.4897 35.4348 17.4908C35.5837 17.4929 35.5837 17.4929 35.7361 17.495V16.7862C36.0562 16.6268 36.3279 16.6598 36.6811 16.6681V15.8412C37.0071 15.6782 37.2776 15.7113 37.6402 15.716C37.7702 15.7171 37.8989 15.7181 38.0324 15.7192C38.132 15.7206 38.232 15.722 38.3336 15.7234V15.0146C38.6537 14.8552 38.9254 14.8882 39.2786 14.8965V14.0696C39.6047 13.9066 39.8752 13.9397 40.2378 13.9444C40.3677 13.9455 40.4965 13.9466 40.63 13.9477C40.7296 13.949 40.8296 13.9504 40.9312 13.9518V13.2431C41.243 13.2041 41.5549 13.1651 41.8762 13.1249V12.4162C42.0853 12.3764 42.2944 12.3372 42.5034 12.2981C42.6199 12.2761 42.7361 12.2542 42.8566 12.2317C43.1756 12.1799 43.1756 12.1799 43.5299 12.1799V11.4712C43.9186 11.3413 44.208 11.3413 44.6155 11.346C44.7443 11.347 44.8718 11.3481 45.0041 11.3492C45.1023 11.3506 45.2002 11.3519 45.3018 11.3534V10.6446C45.6905 10.5147 45.9799 10.5147 46.3874 10.5194C46.5161 10.5205 46.6437 10.5215 46.776 10.5226C46.8742 10.524 46.9721 10.5254 47.0737 10.5268V9.6999C47.4623 9.56997 47.7517 9.56997 48.1593 9.57469C48.288 9.57576 48.4156 9.57682 48.5479 9.57792C48.6461 9.57929 48.744 9.58066 48.8456 9.58207V8.87332C49.1681 8.76607 49.3913 8.73394 49.7256 8.7174C49.8756 8.70998 49.8756 8.70998 50.0292 8.7024C50.1333 8.69776 50.2371 8.69311 50.3446 8.68834C50.5029 8.68069 50.5029 8.68069 50.6647 8.67287C50.9246 8.66035 51.1844 8.6483 51.4455 8.6366V7.92785C51.8341 7.79791 52.1235 7.79791 52.5311 7.80264C52.7236 7.80423 52.7236 7.80423 52.9197 7.80586C53.0179 7.80723 53.1158 7.80861 53.2174 7.81002V7.10127C53.5399 6.99402 53.7631 6.96189 54.0974 6.94535C54.2474 6.93793 54.2474 6.93793 54.401 6.93035C54.5051 6.9257 54.6089 6.92106 54.7164 6.91629C54.8747 6.90863 54.8747 6.90863 55.0365 6.90081C55.2964 6.88829 55.5563 6.87624 55.8173 6.86455C55.8063 6.72516 55.8063 6.72516 55.7951 6.58341C55.8024 6.48112 55.8097 6.37906 55.8173 6.27392C56.2461 5.98806 56.4528 6.01287 56.9619 6.0235C57.1013 6.02563 57.2407 6.02776 57.3836 6.02996C57.4904 6.0327 57.5975 6.03544 57.7073 6.03827V5.32952C58.09 5.20194 58.3664 5.1984 58.7681 5.19958C58.9051 5.19996 59.0433 5.20034 59.1851 5.20073C59.328 5.20172 59.4721 5.20272 59.6198 5.20373C59.765 5.20427 59.9092 5.2048 60.0592 5.20535C60.4171 5.20674 60.775 5.20869 61.1341 5.21112V4.50237C62.228 4.13736 63.532 4.24958 64.6779 4.26612V3.55737C65.0003 3.44987 65.1858 3.42507 65.5166 3.42625C65.6618 3.42626 65.6618 3.42626 65.8107 3.42627C65.9148 3.42688 66.0186 3.42749 66.1261 3.42812C66.2867 3.42837 66.2867 3.42837 66.4497 3.42862C66.7911 3.42928 67.1337 3.43077 67.4751 3.43227C67.7066 3.43287 67.9381 3.43341 68.1696 3.43389C68.7378 3.43519 69.306 3.43723 69.8706 3.43966V2.73091C70.2132 2.61656 70.4294 2.59861 70.7861 2.59979C70.8996 2.5998 71.0129 2.59981 71.1299 2.59981C71.2515 2.60042 71.3744 2.60103 71.4996 2.60166C71.6248 2.60182 71.75 2.60199 71.8799 2.60216C72.2804 2.60283 72.682 2.60431 73.0848 2.60581C73.3565 2.60641 73.6282 2.60695 73.8999 2.60743C74.5661 2.60873 75.2347 2.61072 75.8962 2.6132V1.78632C76.3037 1.66229 76.677 1.65284 77.1011 1.65284L77.1209 1.64194ZM96.2572 2.6023V2.72042H97.4384V2.6023H96.2572ZM4.23781 59.3023V59.8929H4.35594V59.3023H4.23781ZM2.46594 66.2717V68.6342H2.58406V66.2717H2.46594ZM2.46594 101V102.654H2.58406V101H2.46594Z" fill="#6AC651"/>
<path d="M77.0032 34.2563C77.1077 34.2559 77.2122 34.2556 77.3197 34.2553C77.4898 34.2556 77.4898 34.2556 77.6647 34.256C77.7852 34.2558 77.9056 34.2556 78.0297 34.2553C78.4278 34.2548 78.827 34.2552 79.2227 34.2556C79.4991 34.2555 79.7756 34.2554 80.052 34.2552C80.632 34.2551 81.2108 34.2553 81.7884 34.2559C82.5326 34.2565 83.2768 34.2561 84.021 34.2554C84.5915 34.255 85.1632 34.2551 85.7338 34.2555C86.0078 34.2555 86.2819 34.2554 86.5571 34.2552C86.9398 34.2549 87.3226 34.2553 87.7053 34.256C87.8193 34.2557 87.9333 34.2555 88.0502 34.2553C88.1544 34.2556 88.2581 34.2559 88.3656 34.2563C88.4561 34.2563 88.5463 34.2563 88.6397 34.2564C88.8759 34.2713 88.8759 34.2713 89.2303 34.3899V35.2168H89.4665C89.5055 35.1388 89.5445 35.0608 89.5847 34.9805C90.2367 34.9944 90.884 35.0091 91.5455 35.0244C91.7676 35.0296 91.9897 35.0345 92.2106 35.0392C92.5295 35.046 92.8473 35.0535 93.1662 35.0612C93.2658 35.0632 93.3658 35.0651 93.4674 35.0672C94.1703 35.0851 94.1703 35.0851 94.4325 35.2172V36.0441H94.7869C94.8259 35.9661 94.8648 35.8881 94.905 35.8078C95.4248 35.8208 95.9433 35.8363 96.4643 35.8521C96.6852 35.8576 96.6852 35.8576 96.9108 35.8632C97.0525 35.8677 97.1943 35.8723 97.3407 35.877C97.4707 35.8807 97.6018 35.8844 97.7365 35.8882C98.1015 35.9264 98.3649 35.9871 98.6874 36.1623C98.7686 36.5238 98.7686 36.5238 98.8055 36.871C98.8835 36.91 98.9614 36.949 99.0417 36.9892C99.0807 36.9112 99.1197 36.8332 99.1599 36.7529C99.467 36.7696 99.7753 36.7868 100.082 36.8047C100.17 36.8093 100.257 36.8139 100.347 36.8187C100.723 36.8408 101.045 36.8696 101.404 36.9888V37.8157C101.521 37.7767 101.638 37.7377 101.759 37.6976C102.075 37.6862 102.387 37.6811 102.704 37.6828C102.789 37.6823 102.875 37.6819 102.963 37.6814C103.341 37.6821 103.643 37.6955 104.003 37.8161C104.018 37.9496 104.032 38.0842 104.047 38.2224C104.072 38.3618 104.096 38.5 104.121 38.643C104.199 38.6819 104.277 38.7209 104.357 38.7611C104.396 38.6831 104.435 38.6052 104.475 38.5248C104.904 38.6028 105.333 38.6808 105.775 38.7611C105.814 38.995 105.853 39.2289 105.893 39.4698C105.983 39.4685 106.073 39.4671 106.165 39.4657C106.341 39.4641 106.341 39.4641 106.52 39.4624C106.695 39.4604 106.695 39.4604 106.873 39.4583C107.192 39.4698 107.192 39.4698 107.547 39.5882V40.4151C107.615 40.4038 107.684 40.3925 107.755 40.381C108.345 40.2971 108.756 40.2881 109.314 40.5333V41.3602C109.49 41.3017 109.49 41.3017 109.668 41.2421C109.845 41.2283 110.023 41.2214 110.2 41.2199C110.337 41.2174 110.337 41.2174 110.476 41.2148C110.731 41.242 110.731 41.242 111.086 41.4782C111.108 41.848 111.108 41.848 111.086 42.187C111.22 42.1505 111.22 42.1505 111.359 42.1131C111.676 42.0689 111.676 42.0689 112.031 42.3045C112.053 42.6731 112.053 42.6731 112.031 43.0133C112.101 43.002 112.17 42.9907 112.242 42.9791C112.792 42.9021 113.179 42.8539 113.683 43.1315V43.9584C113.754 43.9364 113.825 43.9146 113.897 43.892C114.156 43.8403 114.156 43.8403 114.51 43.9584C114.525 44.0919 114.539 44.2265 114.555 44.3647C114.579 44.5041 114.603 44.6423 114.628 44.7853C114.706 44.8242 114.784 44.8632 114.865 44.9034C114.904 44.8254 114.943 44.7475 114.983 44.6671C115.139 44.7451 115.295 44.8231 115.455 44.9034V45.7303C115.728 45.7692 116.001 45.8082 116.282 45.8484C116.321 46.0823 116.36 46.3162 116.4 46.5571C116.673 46.5961 116.946 46.6351 117.227 46.6753V47.5021C117.5 47.5411 117.773 47.5801 118.054 47.6203C118.093 48.127 118.132 48.6338 118.172 49.1559C118.328 49.1169 118.484 49.0779 118.645 49.0378C118.762 49.1157 118.878 49.1937 118.999 49.274C119.021 49.7016 119.021 49.7016 118.999 50.1009C119.07 50.0789 119.141 50.0571 119.213 50.0345C119.471 49.9828 119.471 49.9828 119.826 50.1009V51.8728C120.06 51.8143 120.06 51.8143 120.298 51.7546C120.415 51.7936 120.532 51.8326 120.653 51.8728C120.692 52.4575 120.731 53.0422 120.771 53.6446C121.005 53.5862 121.005 53.5862 121.243 53.5265C121.36 53.5655 121.477 53.6045 121.598 53.6446V55.4165C121.832 55.358 121.832 55.358 122.07 55.2984C122.187 55.3374 122.304 55.3763 122.425 55.4165C122.464 56.2351 122.503 57.0584 122.543 57.8971C122.816 57.9361 123.088 57.9751 123.37 58.0153C123.409 60.6258 123.448 63.2364 123.488 65.9296H124.196V68.6465H123.488C123.449 70.3593 123.41 72.0721 123.37 73.844H122.543C122.504 75.0134 122.465 76.1829 122.425 77.3878H121.598V79.1596H120.771C120.732 79.7054 120.693 80.2511 120.653 80.8134C120.419 80.8524 120.185 80.8913 119.944 80.9315C119.905 81.4772 119.866 82.023 119.826 82.5853H118.999C118.96 83.131 118.921 83.6767 118.881 84.239C118.608 84.278 118.335 84.317 118.054 84.3571V85.3021H117.227V86.9559C116.954 86.9949 116.681 87.0338 116.4 87.074C116.361 87.3469 116.322 87.6197 116.282 87.9009H115.455V88.7278C115.143 88.7667 114.832 88.8057 114.51 88.8459V89.7909H113.801C113.762 90.3366 113.724 90.8824 113.683 91.4446H112.738V92.2715H111.911V93.0984C111.639 93.1374 111.366 93.1763 111.085 93.2165V93.9253C110.773 93.9642 110.461 94.0032 110.14 94.0434V94.8703C109.906 94.9092 109.672 94.9482 109.431 94.9884C109.392 95.2613 109.353 95.5341 109.313 95.8153H108.368V96.6421H107.541V97.5871H106.596V98.414H105.769V99.359H104.824V100.186H103.997V101.131H103.17V101.84C102.858 101.879 102.547 101.918 102.225 101.958V103.493C101.991 103.571 101.757 103.649 101.516 103.73C101.477 103.964 101.439 104.197 101.398 104.438C101.125 104.516 100.853 104.594 100.571 104.675C100.532 105.181 100.494 105.688 100.453 106.21C100.18 106.249 99.9076 106.288 99.6265 106.328V107.155C99.3536 107.194 99.0807 107.233 98.7996 107.273C98.7606 107.858 98.7216 108.443 98.6815 109.045H97.8546V111.644H97.0277V113.298C96.7548 113.337 96.482 113.376 96.2008 113.416C96.1619 114.857 96.1229 116.298 96.0827 117.787H95.2558V122.984H82.144C82.105 122.75 82.066 122.516 82.0258 122.275C81.023 122.186 80.0295 122.141 79.0255 122.144C78.8884 122.144 78.7502 122.144 78.6097 122.144C78.162 122.144 77.7131 122.145 77.263 122.146C76.95 122.146 76.637 122.146 76.3239 122.147C75.588 122.147 74.8474 122.148 74.115 122.149C73.2763 122.15 72.4376 122.151 71.5989 122.152C69.8743 122.153 68.1497 122.155 66.4251 122.158C66.3861 121.885 66.3471 121.612 66.3069 121.331H64.6532V116.96C64.9261 116.921 65.1989 116.882 65.4801 116.842C65.4789 116.714 65.4789 116.714 65.4777 116.583C65.4706 115.78 65.4652 114.977 65.4617 114.173C65.4599 113.76 65.4574 113.348 65.4534 112.933C65.4488 112.458 65.4471 111.985 65.4455 111.516C65.4437 111.367 65.4418 111.218 65.4399 111.066C65.4399 110.929 65.4399 110.792 65.4399 110.65C65.4387 110.468 65.4387 110.468 65.4375 110.282C65.4515 110.187 65.4656 110.092 65.4801 109.994C65.8345 109.758 65.8345 109.758 66.4251 109.758V106.45C66.698 106.411 66.9709 106.372 67.252 106.332C67.2506 106.213 67.2493 106.093 67.2478 105.97C67.2467 105.81 67.2457 105.651 67.2446 105.491C67.2436 105.413 67.2426 105.334 67.2416 105.253C67.2393 104.772 67.2769 104.323 67.3704 103.847C67.6432 103.808 67.9161 103.769 68.1972 103.729V101.957C68.4701 101.918 68.743 101.879 69.0241 101.839V100.185C69.297 100.146 69.5699 100.107 69.851 100.067V98.5314C70.1628 98.4924 70.4747 98.4534 70.796 98.4132V96.7595C71.0689 96.7205 71.3417 96.6815 71.6229 96.6414V95.8145C71.8957 95.7755 72.1686 95.7365 72.4497 95.6964C72.4887 95.1896 72.5277 94.6828 72.5679 94.1607C72.8018 94.1217 73.0356 94.0828 73.2766 94.0426V93.2157C73.5885 93.1767 73.9003 93.1378 74.2216 93.0976C74.2606 92.5908 74.2996 92.0841 74.3397 91.562C74.5736 91.523 74.8075 91.484 75.0485 91.4439V90.617C75.3603 90.578 75.6722 90.539 75.9935 90.4989V89.672C76.2664 89.633 76.5392 89.594 76.8204 89.5539V88.8451C77.0932 88.8061 77.3661 88.7671 77.6472 88.727V88.0182C78.0123 87.8103 78.1469 87.782 78.5922 87.782V87.0732C78.8651 87.0342 79.138 86.9953 79.4191 86.9551V86.2464C79.731 86.2074 80.0428 86.1684 80.3641 86.1282V85.3014H81.191V84.4745C81.4639 84.4355 81.7367 84.3965 82.0179 84.3564V83.5295C82.3297 83.4905 82.6416 83.4515 82.9629 83.4114V81.8757C83.2357 81.7978 83.5086 81.7198 83.7897 81.6395C83.8287 81.4056 83.8677 81.1717 83.9079 80.9307C84.1807 80.8917 84.4536 80.8528 84.7347 80.8126V79.9857C85.0076 79.9467 85.2805 79.9078 85.5616 79.8676C85.6006 79.3608 85.6396 78.8541 85.6797 78.332C85.9526 78.293 86.2255 78.254 86.5066 78.2139V77.387C86.7795 77.348 87.0524 77.309 87.3335 77.2689V75.6151C87.6453 75.5761 87.9572 75.5371 88.2785 75.497V73.8432C88.5124 73.8042 88.7463 73.7653 88.9872 73.7251C88.9931 73.1179 88.9974 72.5084 89.0002 71.906C89.0014 71.6993 89.003 71.4937 89.0051 71.287C89.008 70.9893 89.0093 70.6917 89.0103 70.394C89.0122 70.257 89.0122 70.257 89.014 70.1176C89.0141 69.5435 88.9332 69.0757 88.7506 68.5347C88.5947 68.5737 88.4388 68.6127 88.2781 68.6528C88.2001 68.0291 88.1222 67.4007 88.0419 66.7628H87.3331C87.2941 66.451 87.2551 66.1391 87.215 65.8178C86.9811 65.8568 86.7472 65.8958 86.5062 65.9359C86.4672 65.5851 86.4283 65.2343 86.3881 64.8728C86.1542 64.9118 85.9203 64.9508 85.6794 64.9909C85.6404 64.7571 85.6014 64.5232 85.5612 64.2822C85.2884 64.2432 85.0155 64.2042 84.7344 64.1641C84.7173 64.0306 84.7002 63.8959 84.6826 63.7577C84.6621 63.3596 84.6621 63.3596 84.4983 63.2191C84.2396 63.2105 83.981 63.2092 83.7234 63.2117C83.5817 63.2128 83.4399 63.2138 83.2946 63.2149C83.1305 63.217 83.1305 63.217 82.9627 63.2191C82.9237 62.9462 82.8848 62.6733 82.8446 62.3922H81.0727C81.0337 62.1583 80.9948 61.9244 80.9546 61.6834C80.3888 61.5381 79.8359 61.55 79.2536 61.5523C79.1429 61.5523 79.0327 61.5523 78.9181 61.5523C78.5531 61.5524 78.1881 61.5533 77.8231 61.5542C77.5691 61.5544 77.3163 61.5546 77.0624 61.5547C76.3961 61.5552 75.7276 61.5563 75.0661 61.5576C74.3857 61.5588 73.7076 61.5594 73.0225 61.56C71.6877 61.5612 70.3529 61.5632 69.0181 61.5657V62.2745C67.8486 62.3135 66.6792 62.3524 65.4743 62.3926V63.1014C65.4082 63.1079 65.342 63.1145 65.2735 63.1212C64.9735 63.1511 64.6734 63.1816 64.3734 63.2122C64.2693 63.2224 64.1655 63.2327 64.058 63.2433C63.9578 63.2536 63.8572 63.2639 63.7544 63.2745C63.6623 63.2838 63.5701 63.2931 63.4756 63.3026C63.2075 63.3333 63.2075 63.3333 62.8756 63.4562C62.8366 63.6511 62.7976 63.846 62.7574 64.0468C62.435 64.1358 62.1337 64.185 61.7994 64.2027C61.666 64.2102 61.666 64.2102 61.5289 64.2177C61.4372 64.2224 61.3458 64.227 61.2502 64.2318C61.1565 64.2369 61.0623 64.242 60.9667 64.2473C60.7363 64.2598 60.506 64.2717 60.2756 64.2835V64.8742C59.6614 64.9767 59.0708 65.0077 58.4565 64.9994C58.3266 64.9986 58.3266 64.9986 58.1943 64.9978C57.984 64.9964 57.7737 64.9943 57.5623 64.992C57.5038 64.5833 57.5038 64.5833 57.4442 64.1651H56.7354C56.6964 62.9602 56.6575 61.7436 56.6173 60.5032C56.3444 60.5422 56.0716 60.5812 55.7904 60.6214V57.3139C55.5176 57.2749 55.2447 57.2359 54.9636 57.1957C54.9606 57.1178 54.9576 57.0398 54.9546 56.9595C54.9408 56.6028 54.9264 56.246 54.9118 55.8893C54.9072 55.7664 54.9025 55.6436 54.8978 55.5172C54.8718 54.8876 54.8322 54.2769 54.7277 53.6508H54.137C54.1341 53.577 54.1311 53.5032 54.1281 53.4276C54.1143 53.0885 54.0998 52.7495 54.0853 52.4105C54.0807 52.2945 54.076 52.179 54.0713 52.0585C54.0428 51.4017 53.9929 50.7591 53.9012 50.1094H53.1924V46.6838C52.9195 46.6448 52.6467 46.6058 52.3655 46.5657C52.3626 46.4919 52.3596 46.418 52.3566 46.3424C52.3427 46.0034 52.3283 45.6644 52.3138 45.3254C52.3092 45.2094 52.3045 45.0938 52.2997 44.9734C52.2713 44.3166 52.2214 43.674 52.1296 43.0243H51.4209V42.3155C51.8296 42.1986 51.8296 42.1986 52.2478 42.0793C52.2868 41.5725 52.3257 41.0658 52.3659 40.5437C53.618 40.3074 53.618 40.3074 54.0196 40.3074V39.5987C54.4236 39.464 54.739 39.4687 55.1643 39.4735C55.3734 39.475 55.3734 39.475 55.586 39.4767C55.6928 39.4781 55.7998 39.4794 55.9096 39.4808V38.7721C56.2853 38.6469 56.5759 38.6303 56.9704 38.6162C57.1771 38.6087 57.1771 38.6087 57.3874 38.6012C57.5303 38.5965 57.6744 38.5919 57.8221 38.5871C57.9674 38.582 58.1115 38.5769 58.2615 38.5716C58.6194 38.5591 58.9774 38.5471 59.3365 38.5354V37.8266C59.6696 37.7155 59.8716 37.6943 60.2165 37.6967C60.3167 37.6971 60.4173 37.6974 60.5201 37.6978C60.6241 37.6988 60.728 37.6998 60.8355 37.7008C60.9937 37.7016 60.9937 37.7016 61.1556 37.7025C61.4155 37.7038 61.6753 37.7058 61.9364 37.7082V36.9995C62.312 36.8743 62.6026 36.8577 62.9971 36.8435C63.1342 36.8386 63.2724 36.8336 63.4141 36.8285C63.5571 36.8239 63.7012 36.8193 63.8488 36.8145C63.9941 36.8094 64.1382 36.8043 64.2883 36.799C64.6462 36.7865 65.0041 36.7744 65.3632 36.7627C65.4022 36.5289 65.4412 36.295 65.4813 36.054C65.9101 35.9111 66.3023 35.9217 66.7453 35.9241C66.8787 35.9243 66.8787 35.9243 67.0134 35.9246C67.2957 35.9252 67.5792 35.9267 67.8615 35.9282C68.0529 35.9288 68.2454 35.9293 68.4368 35.9298C68.9069 35.9311 69.3771 35.9332 69.8425 35.9356V35.2268C70.1886 35.1116 70.4083 35.0945 70.7686 35.0957C70.9422 35.0957 70.9422 35.0957 71.1194 35.0958C71.2446 35.0964 71.3687 35.097 71.4974 35.0976C71.69 35.0978 71.69 35.0978 71.8849 35.0981C72.2936 35.0988 72.7035 35.1003 73.1134 35.1018C73.391 35.1023 73.6674 35.1029 73.945 35.1034C74.6254 35.1047 75.3034 35.1067 75.9885 35.1091V34.4004C76.3299 34.3029 76.6323 34.2669 76.9867 34.2669L77.0032 34.2563Z" fill="#6AC651"/>
<path d="M80.5469 129.347V130.056C80.6249 130.017 80.7029 129.978 80.7832 129.937C81.6904 129.887 82.6023 129.944 83.5119 129.989C83.6098 129.994 83.708 129.998 83.8084 130.003C83.9007 130.008 83.9926 130.013 84.0883 130.018C84.2124 130.025 84.2124 130.025 84.3376 130.031C84.5596 130.056 84.5596 130.056 84.914 130.174V131.001C84.992 130.962 85.0699 130.923 85.1503 130.883C85.4834 130.871 85.8141 130.867 86.1472 130.868C86.2843 130.868 86.2843 130.868 86.4248 130.867C86.817 130.868 87.1383 130.876 87.5128 131.002V131.828C87.6297 131.804 87.7467 131.78 87.8671 131.755C88.3845 131.677 88.7873 131.798 89.2846 131.946V132.773C89.3553 132.751 89.4264 132.729 89.4985 132.706C89.7571 132.655 89.7571 132.655 90.1115 132.773V133.6C90.1895 133.561 90.2674 133.522 90.3478 133.482C90.5651 133.489 90.7813 133.505 90.9975 133.526C91.1132 133.537 91.229 133.547 91.3483 133.558C91.6471 133.6 91.6471 133.6 91.8834 133.718V134.544H92.7103V135.371C92.8029 135.349 92.8957 135.328 92.9914 135.305C93.3009 135.253 93.3009 135.253 93.5371 135.371C93.574 135.673 93.5977 135.962 93.611 136.264C93.6155 136.348 93.6201 136.432 93.6248 136.518C93.636 136.726 93.6457 136.934 93.6553 137.142H93.8915C93.9305 137.064 93.9695 136.986 94.0096 136.906C94.1266 136.984 94.2435 137.062 94.364 137.142C94.4122 137.462 94.3797 137.761 94.364 138.087H94.7184C94.7574 138.009 94.7964 137.931 94.8365 137.851C94.9924 137.929 95.1484 138.007 95.309 138.087V139.859C95.5039 139.82 95.6988 139.781 95.8996 139.741C95.9776 139.78 96.0556 139.819 96.1359 139.859C96.1749 140.678 96.2139 141.501 96.254 142.34C96.332 142.379 96.4099 142.418 96.4903 142.458C96.5293 142.38 96.5682 142.302 96.6084 142.221C96.9628 142.458 96.9628 142.458 97.0431 142.801C97.1062 143.411 97.0931 144.018 97.0879 144.632C97.0873 144.753 97.0868 144.873 97.0862 144.996C97.0849 145.29 97.0829 145.586 97.0805 145.88C97.1731 145.858 97.2659 145.836 97.3616 145.813C97.6711 145.762 97.6711 145.762 97.9074 145.88V153.676C97.6345 153.715 97.3616 153.754 97.0805 153.794C97.0814 153.906 97.0814 153.906 97.0824 154.02C97.0848 154.36 97.0864 154.701 97.0879 155.042C97.0889 155.159 97.0898 155.275 97.0909 155.396C97.0929 156.017 97.0714 156.613 96.9621 157.215C96.7282 157.254 96.4943 157.293 96.2534 157.333C96.2144 157.918 96.1754 158.503 96.1352 159.105H95.3084V160.759C94.9965 160.798 94.6847 160.837 94.3634 160.877V161.704H93.6546C93.657 161.843 93.6595 161.981 93.662 162.124C93.6628 162.586 93.6124 163.02 93.5368 163.471H92.7099V164.298H91.883V165.125C91.2983 165.164 90.7136 165.203 90.1112 165.243V165.952C89.8383 165.991 89.5654 166.03 89.2843 166.07V166.897C88.6996 166.936 88.1148 166.975 87.5124 167.015V167.723C86.9277 167.762 86.343 167.801 85.7405 167.842V168.668C84.5711 168.707 83.4017 168.746 82.1968 168.787V169.495H74.4005V168.787C73.2311 168.748 72.0617 168.709 70.8568 168.668V167.842H69.0849V167.015H67.313C67.274 166.703 67.2351 166.391 67.1949 166.07H66.368C66.3096 165.66 66.3096 165.66 66.2499 165.243H64.7143C64.6753 164.931 64.6363 164.619 64.5962 164.298H63.7693C63.7303 164.064 63.6913 163.83 63.6512 163.589C63.4173 163.55 63.1834 163.511 62.9424 163.471C62.8255 162.594 62.8255 162.594 62.7062 161.699H61.9974C61.9584 161.465 61.9194 161.231 61.8793 160.99C61.6454 160.951 61.4115 160.912 61.1705 160.872C61.1121 159.996 61.1121 159.996 61.0524 159.1H60.3437C60.2657 158.477 60.1877 157.848 60.1074 157.21C59.8735 157.249 59.6396 157.288 59.3987 157.328C59.3597 156.198 59.3207 155.072 59.2805 153.903H58.5718V145.87C58.8446 145.831 59.1175 145.792 59.3987 145.752C59.3968 145.653 59.3949 145.554 59.393 145.452C59.387 145.086 59.3826 144.719 59.3792 144.352C59.3766 144.115 59.3721 143.879 59.3675 143.641C59.3664 143.492 59.3652 143.345 59.3641 143.191C59.3613 142.986 59.3613 142.986 59.3584 142.775C59.3717 142.666 59.385 142.557 59.3987 142.445C59.7531 142.208 59.7531 142.208 60.2256 142.208C60.2646 141.39 60.3036 140.566 60.3437 139.728C60.7536 139.669 60.7536 139.669 61.1706 139.61V138.074C61.5805 138.016 61.5805 138.016 61.9975 137.956C62.0365 137.41 62.0754 136.864 62.1156 136.302C62.3885 136.263 62.6613 136.224 62.9425 136.184V135.357C63.2153 135.318 63.4882 135.279 63.7693 135.239V134.53C64.0812 134.491 64.393 134.452 64.7143 134.412V133.585C64.9872 133.546 65.2601 133.507 65.5412 133.467V132.758C65.9299 132.628 66.2193 132.628 66.6268 132.633C66.8193 132.635 66.8193 132.635 67.0154 132.636C67.1136 132.638 67.2115 132.639 67.3131 132.641V131.932C67.5423 131.892 67.7702 131.853 67.9994 131.814C68.127 131.792 68.2546 131.77 68.3857 131.747C68.7306 131.696 68.7306 131.696 69.085 131.696V130.987C69.4181 130.876 69.6201 130.855 69.965 130.857C70.0652 130.857 70.1658 130.858 70.2686 130.858C70.3727 130.859 70.4765 130.86 70.584 130.861C70.6895 130.862 70.7954 130.862 70.9041 130.863C71.164 130.864 71.4238 130.866 71.6849 130.868V130.16C72.1031 130.02 72.4905 130.014 72.9252 130.004C73.0112 130.001 73.0977 129.999 73.1863 129.996C73.4603 129.989 73.7356 129.982 74.0096 129.975C74.1962 129.97 74.3817 129.964 74.5683 129.959C75.0243 129.947 75.4803 129.935 75.9386 129.923V129.332C77.3088 128.924 79.1752 128.912 80.5455 129.332L80.5469 129.347Z" fill="#6AC651"/>
<path d="M147.642 76.545C147.934 76.6035 147.934 76.6035 148.233 76.6632C148.415 81.5417 148.422 86.4321 148.233 91.3107H147.76C147.761 91.1902 147.761 91.0697 147.761 90.9457C147.763 89.788 147.765 88.6304 147.766 87.4728C147.767 86.8774 147.768 86.2797 147.769 85.6891C147.776 82.6415 147.746 79.5939 147.642 76.5462L147.642 76.545Z" fill="#6BC752"/>
<path d="M146.815 71.1112H147.287C147.423 71.3841 147.423 71.5483 147.43 71.8519C147.433 71.9559 147.435 72.0598 147.438 72.1673C147.439 72.2797 147.441 72.3917 147.443 72.5087C147.446 72.6237 147.448 72.739 147.451 72.8571C147.459 73.2257 147.466 73.5942 147.473 73.9616C147.478 74.2108 147.483 74.4601 147.488 74.7093C147.501 75.3212 147.513 75.9378 147.524 76.5403H146.934C146.895 74.7448 146.856 72.9493 146.816 71.1065L146.815 71.1112Z" fill="#6BC752"/>
<path d="M146.934 91.4288H147.524C147.485 93.1416 147.446 94.8544 147.406 96.6263H146.934V91.4288Z" fill="#6BC752"/>
<path d="M146.106 96.7443H146.697C146.683 97.2546 146.668 97.7661 146.653 98.2799C146.648 98.4536 146.643 98.6272 146.638 98.8009C146.631 99.0513 146.624 99.3005 146.616 99.551C146.61 99.7766 146.61 99.7766 146.603 100.007C146.583 100.352 146.54 100.666 146.46 101H145.988C146.027 99.5947 146.066 98.189 146.106 96.7479L146.106 96.7443Z" fill="#6BC752"/>
<path d="M145.87 67.5676C146.162 67.626 146.162 67.626 146.461 67.6857C146.546 68.1546 146.598 68.6082 146.617 69.0796C146.622 69.2048 146.627 69.3312 146.632 69.4599C146.636 69.5887 146.641 69.7186 146.646 69.8521C146.651 69.9844 146.656 70.1167 146.661 70.2525C146.674 70.5774 146.686 70.901 146.697 71.2259H146.107C146.102 71.1099 146.102 71.1099 146.098 70.992C146.084 70.6364 146.07 70.2821 146.055 69.9265C146.05 69.8048 146.046 69.6832 146.041 69.558C146.013 68.887 145.966 68.235 145.871 67.5616L145.87 67.5676Z" fill="#6BC752"/>
<path d="M139.728 52.5656C139.884 52.6045 140.04 52.6435 140.2 52.6837C140.218 52.7805 140.235 52.8774 140.253 52.9766C140.333 53.3641 140.418 53.7291 140.554 54.1012C140.737 54.2108 140.737 54.2108 140.923 54.3233C141.263 54.5737 141.263 54.5737 141.334 54.9682C141.362 55.3887 141.379 55.8057 141.38 56.2322H140.789V54.4603H140.08C139.98 53.8602 139.952 53.2967 139.962 52.6884C139.884 52.6494 139.806 52.6104 139.726 52.5703L139.728 52.5656Z" fill="#6BC752"/>
<path d="M145.161 101.115H145.752C145.713 102.207 145.674 103.3 145.634 104.423H145.161V101.115Z" fill="#6BC752"/>
<path d="M145.043 64.8506C145.335 64.9091 145.335 64.9091 145.634 64.9688C145.673 65.8653 145.712 66.7643 145.752 67.6856H145.161C145.122 66.7501 145.083 65.8193 145.043 64.8506Z" fill="#6BC752"/>
<path d="M144.334 104.541H144.925C144.908 104.886 144.891 105.229 144.873 105.574C144.866 105.721 144.866 105.721 144.859 105.869C144.854 105.964 144.849 106.058 144.844 106.155C144.84 106.242 144.835 106.329 144.831 106.418C144.806 106.668 144.756 106.897 144.688 107.139H144.215C144.254 106.282 144.293 105.427 144.333 104.541H144.334Z" fill="#6BC752"/>
<path d="M143.271 59.6532H143.744C143.889 59.9426 143.875 60.1316 143.874 60.4553C143.873 60.6218 143.873 60.6218 143.873 60.7919C143.872 60.9083 143.871 61.0246 143.87 61.1439C143.869 61.2612 143.869 61.379 143.868 61.4995C143.867 61.7901 143.865 62.0795 143.862 62.3701H143.39C143.351 61.4735 143.312 60.5746 143.272 59.6532H143.271Z" fill="#6BC752"/>
<path d="M144.216 62.2518C144.508 62.3688 144.508 62.3688 144.807 62.4881C144.846 63.3067 144.885 64.13 144.925 64.9687H144.334C144.295 64.0721 144.256 63.1732 144.216 62.2518Z" fill="#6BC752"/>
<path d="M108.424 144.231C108.58 144.27 108.736 144.309 108.897 144.349V147.656H108.424V144.231Z" fill="#6BC752"/>
<path d="M89.0512 68.7488H89.2875C89.434 69.1882 89.4222 69.5969 89.421 70.06C89.4211 70.153 89.4212 70.2466 89.4213 70.3423C89.4214 70.5384 89.4212 70.7356 89.4207 70.9317C89.42 71.2329 89.4207 71.5342 89.4214 71.8342C89.4214 72.0256 89.4212 72.2157 89.421 72.4071C89.4212 72.4972 89.4214 72.5878 89.4217 72.68C89.42 73.0556 89.4069 73.3545 89.287 73.7136H89.0508V68.7523L89.0512 68.7488Z" fill="#6BC752"/>
<path d="M142.562 109.029H143.153C143.114 109.848 143.075 110.671 143.035 111.51H142.562V109.029Z" fill="#6BC752"/>
<path d="M138.074 49.9669C138.533 50.0703 138.533 50.0703 138.665 50.2031C138.673 50.4418 138.675 50.6804 138.672 50.919C138.671 51.0489 138.67 51.18 138.669 51.3147C138.668 51.4157 138.666 51.5167 138.665 51.6206C138.757 51.6158 138.85 51.6109 138.946 51.6059C139.255 51.6206 139.255 51.6206 139.492 51.8563C139.539 52.1304 139.579 52.4068 139.61 52.6832H139.137C139.098 52.4103 139.059 52.1374 139.019 51.8563C138.668 51.7978 138.668 51.7978 138.31 51.7382V50.0844C138.233 50.0455 138.155 50.0065 138.074 49.9663V49.9669Z" fill="#6BC752"/>
<path d="M109.133 147.656C109.289 147.695 109.445 147.734 109.606 147.774C109.684 148.593 109.762 149.416 109.842 150.255H109.37C109.33 149.844 109.291 149.433 109.251 149.027C109.24 148.909 109.229 148.791 109.217 148.671C109.207 148.559 109.196 148.448 109.185 148.333C109.175 148.23 109.165 148.126 109.155 148.02C109.133 147.779 109.133 147.779 109.133 147.661V147.656Z" fill="#6BC752"/>
<path d="M110.905 151.2C111.061 151.239 111.217 151.278 111.377 151.318C111.455 152.137 111.533 152.96 111.614 153.799H111.141C111.063 152.941 110.985 152.086 110.905 151.2Z" fill="#6BC752"/>
<path d="M142.444 57.8813C142.916 57.9994 142.916 57.9994 143.034 58.1175C143.062 58.3951 143.083 58.6739 143.101 58.9515C143.111 59.1039 143.121 59.2563 143.131 59.4134C143.138 59.5314 143.145 59.6496 143.153 59.7713H142.562C142.523 59.1476 142.484 58.5192 142.444 57.8813Z" fill="#6BC752"/>
<path d="M141.499 56.2275C141.791 56.2859 141.791 56.2859 142.09 56.3456C142.168 56.8913 142.246 57.4371 142.326 57.9994H141.735C141.657 57.4146 141.579 56.8299 141.499 56.2275Z" fill="#6BC752"/>
<path d="M140.791 113.4H141.381C141.342 113.946 141.303 114.491 141.263 115.054H140.791V113.4Z" fill="#6BC752"/>
<path d="M143.389 107.258H143.98C143.941 107.803 143.902 108.349 143.862 108.911H143.389V107.258Z" fill="#6BC752"/>
<path d="M141.736 111.628L142.208 111.746C142.169 112.253 142.13 112.76 142.09 113.282H141.618C141.657 112.736 141.696 112.19 141.736 111.628Z" fill="#6BC752"/>
<path d="M137.129 48.195C137.421 48.2535 137.421 48.2535 137.72 48.3131C137.759 48.8979 137.797 49.4826 137.838 50.085H137.365V48.3131C137.287 48.2742 137.209 48.2352 137.129 48.195Z" fill="#6BC752"/>
<path d="M112.677 155.452L113.149 155.689C113.221 156.074 113.221 156.074 113.238 156.53C113.245 156.681 113.251 156.832 113.258 156.988C113.261 157.105 113.264 157.221 113.267 157.341H112.795C112.756 156.718 112.717 156.089 112.677 155.451L112.677 155.452Z" fill="#6BC752"/>
<path d="M113.504 157.343C113.66 157.382 113.816 157.42 113.976 157.461C114.015 158.006 114.054 158.552 114.095 159.114H113.622C113.583 158.53 113.544 157.945 113.504 157.343Z" fill="#6BC752"/>
<path d="M111.85 153.799C112.006 153.838 112.162 153.877 112.323 153.917C112.362 154.463 112.401 155.008 112.441 155.571H111.968C111.929 154.986 111.89 154.401 111.85 153.799Z" fill="#6BC752"/>
<path d="M135.357 45.7144C135.649 45.7728 135.649 45.7728 135.948 45.8325C135.987 46.3782 136.026 46.924 136.066 47.4862L135.593 47.3681V45.8325C135.515 45.7935 135.437 45.7545 135.357 45.7144Z" fill="#6BC752"/>
<path d="M114.448 158.996H114.803C114.971 159.331 114.962 159.642 114.987 160.014C114.997 160.155 115.007 160.296 115.017 160.44C115.024 160.548 115.031 160.656 115.039 160.767H114.566C114.527 160.182 114.488 159.597 114.448 158.995L114.448 158.996Z" fill="#6BC752"/>
<path d="M131.931 41.3438C132.087 41.3827 132.243 41.4217 132.404 41.4619C132.482 41.9686 132.56 42.4754 132.64 42.9975H132.167C132.089 42.4518 132.011 41.906 131.931 41.3438Z" fill="#6BC752"/>
<path d="M134.767 123.086C134.923 123.125 135.078 123.164 135.239 123.204C135.2 123.711 135.161 124.218 135.121 124.74H134.767V123.086Z" fill="#6BC752"/>
<path d="M137.365 119.542C137.521 119.581 137.677 119.62 137.838 119.661C137.799 120.167 137.76 120.674 137.72 121.196H137.365V119.542Z" fill="#6BC752"/>
<path d="M140.082 115.172L140.554 115.29C140.477 115.797 140.399 116.304 140.318 116.826H139.964C140.003 116.28 140.042 115.734 140.082 115.172Z" fill="#6BC752"/>
<path d="M138.31 117.889C138.466 117.928 138.622 117.967 138.783 118.007C138.744 118.475 138.705 118.942 138.664 119.424H138.31V117.889Z" fill="#6BC752"/>
<path d="M155.674 184.393C155.966 184.452 155.966 184.452 156.265 184.511C156.304 184.823 156.343 185.135 156.383 185.456H155.792C155.753 185.105 155.714 184.755 155.674 184.393Z" fill="#6BC752"/>
<path d="M141.618 176.479C141.909 176.537 141.909 176.537 142.208 176.597C142.247 176.909 142.286 177.221 142.326 177.542H141.736C141.697 177.191 141.658 176.84 141.618 176.479Z" fill="#6BC752"/>
<path d="M145.043 178.251C145.199 178.29 145.355 178.329 145.515 178.369C145.752 179.181 145.752 179.181 145.752 179.314H145.161C145.122 178.963 145.083 178.612 145.043 178.251Z" fill="#6BC752"/>
<path d="M148.469 180.141C148.675 180.148 148.675 180.148 148.941 180.259C149.13 180.523 149.266 180.795 149.414 181.086H148.705C148.469 180.273 148.469 180.273 148.469 180.141Z" fill="#6BC752"/>
<path d="M159.1 186.283C159.392 186.342 159.392 186.342 159.691 186.401C159.73 186.674 159.769 186.947 159.809 187.228H159.218C159.179 186.916 159.14 186.604 159.1 186.283Z" fill="#6BC752"/>
<path d="M152.957 182.739C153.249 182.798 153.249 182.798 153.548 182.858C153.587 183.13 153.626 183.403 153.666 183.684H153.075C153.036 183.373 152.997 183.061 152.957 182.739Z" fill="#6BC752"/>
<path d="M151.186 181.913C151.478 181.971 151.478 181.971 151.777 182.031C151.816 182.304 151.855 182.576 151.895 182.858C151.7 182.819 151.505 182.78 151.304 182.739C151.265 182.467 151.226 182.194 151.186 181.913Z" fill="#6BC752"/>
<path d="M143.271 177.424H143.744C143.822 177.736 143.9 178.047 143.98 178.369H143.39C143.351 178.057 143.312 177.745 143.271 177.424Z" fill="#6BC752"/>
<path d="M146.815 179.196C146.971 179.235 147.127 179.274 147.287 179.314C147.365 179.587 147.443 179.859 147.524 180.141H146.933C146.894 179.829 146.855 179.517 146.815 179.196Z" fill="#6BC752"/>
<path d="M88.2252 66.8588L88.4615 66.9769C88.5167 67.2533 88.5591 67.5321 88.5937 67.8109C88.6136 67.9632 88.6333 68.1156 88.6538 68.2727C88.6681 68.3907 88.6823 68.509 88.6971 68.6306H88.3427C88.3038 68.0459 88.2648 67.4612 88.2246 66.8588H88.2252Z" fill="#6BC752"/>
<path d="M157.328 185.456C157.62 185.515 157.62 185.515 157.919 185.574C157.958 185.808 157.997 186.042 158.037 186.283H157.446C157.407 186.01 157.368 185.737 157.328 185.456Z" fill="#6BC752"/>
<path d="M140.554 175.652C140.811 175.712 141.027 175.77 141.263 175.888C141.337 176.25 141.337 176.25 141.381 176.597H140.79V175.77C140.712 175.731 140.635 175.692 140.554 175.652Z" fill="#6BC752"/>
<path d="M137.129 173.88C137.421 173.938 137.421 173.938 137.72 173.998C137.759 174.31 137.797 174.622 137.838 174.943H137.365V173.998C137.287 173.959 137.209 173.92 137.129 173.88Z" fill="#6BC752"/>
<path d="M154.611 183.684H155.083C155.161 183.957 155.239 184.23 155.32 184.511H154.729C154.69 184.238 154.651 183.966 154.611 183.684Z" fill="#6BC752"/>
<path d="M149.65 181.086C149.806 181.125 149.962 181.164 150.122 181.204C150.161 181.438 150.2 181.672 150.241 181.913H149.65V181.086Z" fill="#6BC752"/>
<path d="M131.104 170.336C131.26 170.375 131.416 170.414 131.577 170.454C131.616 170.766 131.655 171.078 131.695 171.399H131.223C131.184 171.049 131.145 170.698 131.104 170.336Z" fill="#6BC752"/>
<path d="M117.048 162.422H117.402C117.48 162.773 117.558 163.124 117.638 163.485H117.166C117.127 163.134 117.088 162.783 117.048 162.422Z" fill="#6BC752"/>
<path d="M110.196 150.137H110.432C110.51 150.488 110.588 150.839 110.669 151.2H110.196C110.092 150.474 110.092 150.474 110.078 150.255C110.117 150.216 110.156 150.177 110.196 150.137Z" fill="#6BC752"/>
<path d="M126.733 167.737L127.206 167.974C127.294 168.401 127.294 168.401 127.324 168.801H126.852C126.813 168.45 126.774 168.099 126.733 167.737Z" fill="#6BC752"/>
<path d="M123.19 165.966H123.544C123.622 166.317 123.7 166.667 123.781 167.029C123.625 166.99 123.469 166.951 123.308 166.911C123.269 166.599 123.23 166.287 123.19 165.966Z" fill="#6BC752"/>
<path d="M134.53 44.7693C134.822 44.8278 134.822 44.8278 135.12 44.8875C135.159 45.1603 135.198 45.4332 135.239 45.7143H134.766V44.8875C134.688 44.8485 134.61 44.8095 134.53 44.7693Z" fill="#6BC752"/>
<path d="M132.876 42.9976C133.032 43.0365 133.188 43.0755 133.349 43.1157C133.388 43.3886 133.427 43.6614 133.467 43.9426H132.995C132.956 43.6307 132.917 43.3189 132.876 42.9976Z" fill="#6BC752"/>
<path d="M131.104 40.2806L131.577 40.5169C131.666 40.9445 131.666 40.9445 131.695 41.3438H131.223C131.184 40.9929 131.145 40.6421 131.104 40.2806Z" fill="#6BC752"/>
<path d="M129.332 38.5087C129.561 38.5751 129.561 38.5751 129.805 38.745C129.893 39.1726 129.893 39.1726 129.923 39.5719C129.767 39.5329 129.611 39.4939 129.45 39.4537C129.411 39.1419 129.372 38.83 129.332 38.5087Z" fill="#6BC752"/>
<path d="M125.789 35.2013C126.247 35.3047 126.247 35.3047 126.379 35.4375C126.384 35.6348 126.384 35.8309 126.379 36.0282H125.907C125.868 35.7553 125.829 35.4824 125.789 35.2013Z" fill="#6BC752"/>
<path d="M123.19 33.1932L123.662 33.4294C123.751 33.857 123.751 33.857 123.781 34.2563H123.308C123.269 33.9055 123.23 33.5546 123.19 33.1932Z" fill="#6BC752"/>
<path d="M117.048 28.8224L117.52 29.0587C117.609 29.4863 117.609 29.4863 117.638 29.8856H117.166C117.127 29.5347 117.088 29.1839 117.048 28.8224Z" fill="#6BC752"/>
<path d="M0.57666 90.3657H0.694785V91.7832H0.57666V90.3657Z" fill="#6BC752"/>
<path d="M0.57666 78.7894H0.694785V79.7344H0.57666V78.7894Z" fill="#6BC752"/>
<path d="M0.57666 92.1376H0.694785V92.8463H0.57666V92.1376Z" fill="#6BC752"/>
<path d="M0.57666 89.5388H0.694785V90.2475H0.57666V89.5388Z" fill="#6BC752"/>
<path d="M37.5493 153.562C37.7253 153.679 37.7253 153.679 37.9037 153.799H37.5493V153.562Z" fill="#6BC752"/>
<path d="M154.021 183.684C154.375 183.803 154.375 183.803 154.375 183.803L154.021 183.684Z" fill="#6BC752"/>
<path d="M24.4375 143.049C24.5155 143.127 24.5934 143.205 24.6737 143.286H24.4375V143.049Z" fill="#6BC752"/>
</svg>
