<?xml version="1.0" encoding="UTF-8" standalone="no"?>
<!-- Generator: Adobe Illustrator 18.0.0, SVG Export Plug-In . SVG Version: 6.00 Build 0)  -->

<svg
   version="1.1"
   id="Layer_1"
   x="0px"
   y="0px"
   viewBox="0 0 63.965786 85.438477"
   enable-background="new 0 0 64 64"
   xml:space="preserve"
   sodipodi:docname="cash_out.svg"
   width="63.965786"
   height="85.438477"
   inkscape:version="1.3.2 (091e20e, 2023-11-25, custom)"
   xmlns:inkscape="http://www.inkscape.org/namespaces/inkscape"
   xmlns:sodipodi="http://sodipodi.sourceforge.net/DTD/sodipodi-0.dtd"
   xmlns="http://www.w3.org/2000/svg"
   xmlns:svg="http://www.w3.org/2000/svg"><defs
   id="defs1"><clipPath
     clipPathUnits="userSpaceOnUse"
     id="clipPath65"><path
       id="path65"
       style="fill:#ff0000;fill-opacity:1;fill-rule:nonzero;stroke:none"
       d="M 63.732422,-34.859375 V 0.56445312 H 73.21875 C 73.138222,0.44267791 73.056155,0.32106269 72.972656,0.20117188 72.766279,-0.07358365 72.540267,-0.33419411 72.308594,-0.58789062 72.050627,-0.86609189 71.794636,-1.1472399 71.494141,-1.3808594 c -0.197898,-0.1599999 -0.402407,-0.3134287 -0.605469,-0.4667968 -1.150154,-0.8686905 -0.768225,-1.9440816 0.142578,-1.9414063 0.303601,8.918e-4 0.664521,0.1218187 1.048828,0.4101563 0.212401,0.1593588 0.423842,0.3200289 0.63086,0.4863281 0.374042,0.2916741 0.699598,0.6378157 1.021484,0.984375 0.277291,0.3013232 0.543871,0.6129686 0.791016,0.9394531 0.219635,0.30819759 0.425868,0.62473916 0.626953,0.9453125 0.126675,0.19091011 0.242363,0.38873711 0.355468,0.58789062 H 114.86133 V -34.859375 Z" /></clipPath></defs><sodipodi:namedview
   id="namedview1"
   pagecolor="#ffffff"
   bordercolor="#000000"
   borderopacity="0.25"
   inkscape:showpageshadow="2"
   inkscape:pageopacity="0.0"
   inkscape:pagecheckerboard="0"
   inkscape:deskcolor="#d1d1d1"
   inkscape:zoom="4.6316829"
   inkscape:cx="92.51497"
   inkscape:cy="6.3691753"
   inkscape:window-width="1920"
   inkscape:window-height="991"
   inkscape:window-x="-9"
   inkscape:window-y="-9"
   inkscape:window-maximized="1"
   inkscape:current-layer="Layer_1" />

<path
   id="path14"
   d="m 30.615859,33.184098 h 1.413404 l 0.08834,0.08834 0.08834,1.943434 0.7067,0.08834 1.060055,0.441688 0.971717,0.618365 0.706704,0.706702 0.618364,0.883382 0.265015,0.618365 -0.08834,0.618366 -0.441689,0.530028 -0.441692,0.265011 -0.530025,-0.08834 -0.618364,-0.88338 -0.618365,-0.795038 -0.706705,-0.530032 -0.883377,-0.353351 -0.353352,-0.08834 h -1.413407 l -0.883378,0.265014 -0.706704,0.530028 -0.441689,0.530027 -0.265014,0.795042 v 0.618363 l 0.265014,0.618364 0.353353,0.441691 0.7067,0.441691 1.325069,0.353348 2.47346,0.618368 1.32507,0.530025 0.795041,0.618367 0.618365,0.618365 0.530027,0.88338 0.176677,0.530024 0.08834,0.618369 v 1.060053 l -0.265015,1.060056 -0.618367,0.883379 -0.883378,0.795039 -1.236729,0.706704 -1.32507,0.353351 h -0.265011 l -0.08834,1.23673 -0.176677,0.618365 -0.265014,0.176676 -0.971716,-0.08834 -0.441691,-0.441691 -0.08834,-0.706702 v -0.79504 l -0.618364,-0.08834 -1.148393,-0.441688 -0.883379,-0.618368 -0.883378,-0.795043 -0.618367,-0.883375 -0.353353,-0.883382 v -0.883376 l 0.176678,-0.353354 0.353353,-0.176677 h 0.79504 l 0.353351,0.176677 0.706704,1.413407 0.353351,0.441691 0.883379,0.618362 0.795041,0.265016 0.530028,0.08834 h 1.590083 l 1.060051,-0.265014 0.795044,-0.530029 0.530026,-0.618364 0.176675,-0.530027 -0.08834,-0.79504 -0.441689,-0.883378 -0.706704,-0.530029 -0.618367,-0.265014 -2.385121,-0.530027 -1.590082,-0.530026 -1.325067,-0.795041 -0.88338,-0.883383 -0.530026,-1.060052 -0.08834,-0.353354 v -1.678418 l 0.353349,-0.971716 0.530029,-0.795042 0.883378,-0.883379 1.413407,-0.706702 0.883378,-0.176674 v -1.148396 l 0.176677,-0.795039 z m 4.946918,-19.611009 0.795041,0.08834 3.533518,0.883379 1.943433,0.706703 2.296786,0.971715 1.501743,0.795044 2.120109,1.325067 1.413408,0.971718 1.148392,0.971716 0.971716,0.79504 2.296785,2.296785 0.79504,0.971717 1.060055,1.325068 1.148394,1.766758 1.148393,2.031773 0.883379,1.855093 0.883378,2.385123 0.618365,1.855099 0.530028,2.738474 0.265014,2.031768 0.08834,1.32507 v 3.268505 l -0.176674,1.766755 -0.441691,3.091824 v 0.176678 l 0.530028,-0.353351 0.530027,-0.441692 0.353352,-0.176673 h 0.795039 l 0.265017,0.265014 0.08834,0.265013 v 0.883381 l -0.265014,0.441686 -1.590084,1.23673 -0.971716,0.88338 -1.413404,1.060056 -0.795041,0.44169 -0.795043,-0.971718 -0.618365,-1.325067 -0.706705,-1.678422 -0.706702,-1.855097 0.176677,-0.530025 0.618365,-0.618365 0.530028,0.08834 1.148394,1.59008 0.441688,0.618365 v 0.176678 l 0.353349,0.08834 0.08834,-1.501744 0.353355,-3.445176 v -3.9752 l -0.265015,-2.650138 -0.35335,-1.943434 -0.795043,-2.561797 -0.883378,-2.208449 -0.971716,-2.031773 -1.148395,-1.855096 -1.060053,-1.501741 -1.148393,-1.41341 -1.325067,-1.413404 -0.618369,-0.618366 -0.971716,-0.795041 -0.795041,-0.706704 -1.590079,-1.148391 -1.413406,-0.883378 -1.590084,-0.883381 -2.031772,-0.971715 -2.03177,-0.795041 -4.240221,-1.060056 -0.7067,-0.265014 -0.08834,-0.265011 0.176676,-0.883381 0.44169,-0.618365 z m -14.045723,-1.67842 0.618366,0.08834 1.766759,0.618366 1.060054,0.441689 0.883378,0.353352 1.325068,0.441689 0.353352,0.441689 0.08834,0.618365 -0.441691,0.883378 -0.795041,0.883382 -0.971716,1.413404 -0.79504,0.971718 -0.618367,0.706703 -0.353351,0.176675 -0.530029,-0.08834 -0.44169,-0.441689 v -0.883381 l 0.53003,-0.971715 0.618363,-0.971719 v -0.176673 l -0.706703,0.08833 -1.678419,0.706704 -2.561799,1.060055 -1.501744,0.795041 -1.501742,0.971717 -1.590084,1.148391 -1.325067,1.148391 -1.148393,1.060056 L 10.828171,24.3503 10.209807,25.057004 9.2380885,26.205397 8.0896978,27.795478 7.1179793,29.473899 6.0579228,31.50567 4.9095335,34.420821 4.1144919,37.070955 3.76114,39.809432 3.5844657,41.8412 v 2.650137 L 3.76114,46.611449 4.2028316,49.349923 4.8211964,51.470031 5.4395613,53.32513 4.8211924,54.208515 4.4678381,54.385192 4.1144879,54.296856 3.4961222,53.855168 3.0544348,52.971789 2.6127434,51.558382 2.2593923,50.675006 1.7293645,47.936533 1.4643506,45.728081 1.3760137,44.314676 V 42.194568 L 1.552688,39.721109 1.9943786,36.894294 2.4360701,35.215876 3.4077852,32.389062 4.1144881,30.622306 5.26288,28.413855 6.3229364,26.647099 7.3829886,25.233692 8.2663683,24.0853 l 1.0600532,-1.148392 0.530028,-0.618368 0.7067035,-0.618363 1.060055,-1.060055 0.971717,-0.79504 1.148392,-0.883378 1.590082,-1.060056 1.32507,-0.79504 2.385122,-1.236732 2.47346,-0.971716 0.618365,-0.265014 0.08834,-0.265012 -0.883377,-0.530028 -0.441689,-0.53003 v -0.618364 l 0.265012,-0.618366 z m 31.713301,48.232489 0.441691,0.08834 0.795041,0.706705 0.08834,0.530027 -0.530027,0.795042 -0.795042,0.883376 -0.618362,0.618364 -0.08834,0.176678 H 52.34698 l -0.176677,0.353356 -1.325067,1.236725 -1.23673,1.060055 -1.590083,1.148391 -1.855095,1.14839 -2.12011,1.148398 -1.76676,0.795034 -2.915147,0.971719 c -0.578971,0.203472 -1.084001,0.427904 -1.675908,0.605042 -0.215264,0.06444 -0.423566,0.11465 -0.684319,0.196023 -0.256115,0.07992 -0.546796,0.108656 -0.819939,0.170654 l -1.855093,0.176678 -1.590084,0.08834 h -3.091826 l -2.826815,-0.265015 -1.943433,-0.441685 -3.798529,-1.148396 -1.413407,-0.530028 -1.678419,-0.795042 -2.03177,-1.14839 -1.32507,-0.795042 -1.236729,-0.883375 -1.23673,-0.97172 -1.501745,-1.501741 -0.265014,-0.08835 0.08834,1.148391 v 1.413411 l -0.176678,0.176676 -0.3533495,0.08835 H 9.1497545 L 8.6197262,67.105862 8.5313892,67.017522 8.0897012,62.68896 8.0013622,61.805583 v -0.971711 l 0.265014,-0.353357 0.088337,-0.265014 1.1483933,0.08834 3.8868675,0.706705 1.060053,0.265014 0.353352,0.353355 v 1.060049 l -0.176676,0.441691 -0.706703,0.08834 -1.325066,-0.265014 -0.353352,0.08835 v 0.265013 l 1.148392,1.060055 1.148392,0.88337 1.23673,0.883384 1.855097,1.148396 1.236729,0.706699 2.296785,0.971719 2.915151,0.97172 2.385121,0.530021 2.031774,0.265013 1.413404,0.08834 h 2.561799 l 2.208449,-0.176672 2.031772,-0.35335 2.120108,-0.530027 3.091829,-1.060055 1.766753,-0.795041 2.385127,-1.41341 1.413404,-0.971713 1.236732,-0.971713 1.325068,-1.148396 1.678421,-1.678418 0.706702,-0.883376 h 0.176677 l 0.176674,-0.353357 z M 29.732478,27.883825 h 3.003489 l 1.766758,0.265016 1.855093,0.530027 1.413409,0.618364 1.501742,0.795041 0.971718,0.706704 1.413407,1.148392 1.060056,1.060054 0.883376,1.148395 0.883379,1.325067 0.706703,1.413406 0.44169,0.971716 0.618364,2.473459 0.265015,1.766762 v 2.031769 l -0.353351,2.031771 -0.441687,1.766761 -0.883383,2.120106 -0.618362,1.060055 -0.883382,1.236731 -0.971716,1.148393 -1.060053,1.060056 -1.23673,0.971718 -1.325069,0.883377 -1.413408,0.706699 -1.678419,0.618369 -1.325066,0.35335 -2.385125,0.265014 h -1.678422 l -1.678419,-0.176671 -1.678419,-0.353357 -2.12011,-0.795041 -1.766757,-0.971713 -1.23673,-0.883383 -1.060056,-0.971716 -0.883378,-0.883376 -1.148393,-1.501744 -0.88338,-1.325071 -0.795041,-1.67842 -0.530026,-1.590081 -0.441689,-1.943435 -0.08834,-0.618364 v -2.650138 l 0.353351,-2.208445 0.441687,-1.766758 0.618366,-1.413407 0.795043,-1.501744 1.060053,-1.501745 1.236729,-1.325068 0.706704,-0.706703 1.501744,-1.148393 1.413408,-0.883378 1.59008,-0.706702 1.590084,-0.53003 1.678419,-0.353351 z m -0.176674,2.031773 -1.590082,0.265012 -1.501747,0.530029 -1.855093,0.883378 -0.971717,0.618366 -0.97172,0.79504 -0.883376,0.795044 -1.060056,1.14839 -0.883378,1.236732 -0.706704,1.413404 -0.441689,1.060055 -0.353351,1.413408 -0.353352,1.855094 -0.08834,0.706701 v 0.97172 l 0.265017,1.766759 0.441689,1.855094 0.795041,1.855097 0.795041,1.413404 0.971715,1.236731 0.883381,0.971716 0.971715,0.795042 1.236732,0.883379 1.325066,0.795039 1.590082,0.530028 1.678421,0.441691 1.67842,0.176678 h 1.501743 l 1.590082,-0.176678 1.413407,-0.353349 1.325066,-0.441692 1.41341,-0.706704 1.325067,-0.883378 1.23673,-1.060056 0.883379,-0.883376 0.795039,-0.97172 0.795045,-1.148392 0.618362,-1.325067 0.618367,-1.855095 0.441688,-1.943435 0.08834,-0.883378 -0.08834,-1.943436 -0.441688,-1.855094 -0.441691,-1.501744 -0.883376,-2.031772 -0.883381,-1.23673 -0.795042,-0.971715 -0.706702,-0.706706 -0.971715,-0.79504 -1.148393,-0.795041 -1.678422,-0.88338 -1.943433,-0.706701 -1.325069,-0.265015 -0.795041,-0.08834 z m 0.441689,-6.537005 h 2.296785 l 2.296784,0.265014 2.031772,0.53003 2.385122,0.795037 1.67842,0.795044 1.67842,1.060053 1.23673,0.971717 1.23673,1.060056 0.883383,0.883377 0.795038,0.971718 0.971716,1.23673 1.060056,1.766756 0.706702,1.325071 0.795043,2.120109 0.530024,2.296785 0.353354,2.296783 v 2.650138 l -0.441691,2.650137 -0.441687,1.855096 -0.883379,2.385121 -1.060053,1.943438 -0.97172,1.501743 -0.795042,0.971714 -0.795039,0.883382 -1.325067,1.325063 -1.501744,1.148398 -1.325069,0.883375 -1.413408,0.795041 -1.501745,0.706706 -1.855094,0.618364 -1.855097,0.441685 -2.296785,0.26502 h -2.650137 l -2.208445,-0.26502 -1.855096,-0.441685 -1.67842,-0.530027 -2.031771,-0.97172 -1.501745,-0.883377 -1.678421,-1.236725 -1.148392,-0.97172 -1.148393,-1.148391 -0.971715,-1.236732 -0.530028,-0.706704 -0.795041,-1.236731 -0.530027,-0.883378 -0.706703,-1.501745 -0.795042,-2.296785 -0.530028,-2.385123 -0.176675,-1.501744 V 41.92955 l 0.353352,-2.650137 0.441689,-1.943434 0.706704,-1.943432 0.706703,-1.413404 0.7067,-1.236734 1.060058,-1.590081 h 0.176675 l 0.176677,-0.353351 0.618364,-0.795042 0.530026,-0.618365 0.706704,-0.618364 0.706703,-0.706703 1.413407,-1.060056 1.501745,-0.971717 1.855096,-0.971715 1.678418,-0.618368 2.208448,-0.618363 1.325068,-0.265014 z m -0.441689,2.031773 -1.678422,0.265013 -1.855096,0.530028 -1.766756,0.618364 -1.413407,0.706706 -1.236729,0.706701 -1.501747,1.148392 -1.325067,1.148392 -0.883381,0.88338 -0.795038,0.971716 -1.148392,1.76676 -0.971718,1.766757 -0.883378,2.650136 -0.265014,1.413405 -0.265014,2.296785 v 1.855096 l 0.353351,2.561799 0.530025,2.031772 0.53003,1.501743 0.79504,1.501745 0.618366,0.971716 1.060055,1.501744 1.060054,1.23673 0.795042,0.795041 1.501742,1.148391 1.32507,0.883382 1.590082,0.883378 1.501743,0.618363 1.678421,0.441691 2.208449,0.441692 0.7067,0.08834 h 2.915152 l 2.650136,-0.441691 1.855095,-0.530027 1.590082,-0.706698 1.236733,-0.618363 1.325068,-0.883385 1.148393,-0.883376 1.060052,-0.971719 0.883379,-0.883377 0.795042,-0.971718 0.883379,-1.23673 0.618365,-0.971716 0.706702,-1.501745 0.88338,-2.650136 0.44169,-2.208449 0.08834,-0.618364 V 41.752878 L 48.636789,39.986121 48.283438,38.39604 47.40006,35.92258 46.693358,34.509173 45.986653,33.360782 44.926597,31.947374 43.689867,30.622307 42.3648,29.385575 l -1.59008,-1.148392 -1.325071,-0.795042 -1.855095,-0.79504 -2.561799,-0.79504 -1.855095,-0.353352 -0.971715,-0.08834 z"
   sodipodi:nodetypes="cccccccccccccccccccccccccccccccccccccccccccccccccccccccccccccccccccccccccccccccccccccccccccccccccccccccccccccccccccccccccccccccccccccccccccccccccccccccccccccccccccccccccccccccccccccccccccccccccccccccccccccccccccccccccccccccccccccccccccccccccccccccccccccccccccccssccccccccccccccccccccccccccccccccccccccccccccccccccccccccccccccccccccccccccccccccccccccccccccccccccccccccccccccccccccccccccccccccccccccccccccccccccccccccccccccccccccccccccccccccccccccccccccccccccccccccccccccccccccccccccccccccccccccccccccccccccccccccccccccccccccccccccccccccccccccccccccccccccccccccccccccccccc"
   style="stroke-width:0.088338" /></svg>
