<?xml version="1.0" encoding="UTF-8" standalone="no"?>
<svg
   version="1.1"
   viewBox="0 0 884 884"
   width="1280"
   height="1280"
   id="svg14"
   sodipodi:docname="send_rece_moneny.svg"
   inkscape:version="1.3.2 (091e20e, 2023-11-25, custom)"
   xmlns:inkscape="http://www.inkscape.org/namespaces/inkscape"
   xmlns:sodipodi="http://sodipodi.sourceforge.net/DTD/sodipodi-0.dtd"
   xmlns="http://www.w3.org/2000/svg"
   xmlns:svg="http://www.w3.org/2000/svg">
  <defs
     id="defs14" />
  <sodipodi:namedview
     id="namedview14"
     pagecolor="#ffffff"
     bordercolor="#000000"
     borderopacity="0.25"
     inkscape:showpageshadow="2"
     inkscape:pageopacity="0.0"
     inkscape:pagecheckerboard="0"
     inkscape:deskcolor="#d1d1d1"
     inkscape:zoom="0.32"
     inkscape:cx="621.875"
     inkscape:cy="940.625"
     inkscape:window-width="1450"
     inkscape:window-height="1020"
     inkscape:window-x="370"
     inkscape:window-y="106"
     inkscape:window-maximized="0"
     inkscape:current-layer="svg14" />
  <path
     id="path14"
     d="m 421.90668,310.03682 h 19.81478 l 1.23843,1.23843 1.23842,27.24533 9.90739,1.23843 14.8611,6.19212 13.62266,8.66896 9.90739,9.90739 8.66897,12.38425 3.71528,8.66897 -1.23842,8.66897 -6.19213,7.43054 -6.19212,3.71527 -7.43054,-1.23842 -8.66897,-12.38424 -8.66897,-11.14582 -9.9074,-7.43055 -12.38424,-4.95369 -4.95369,-1.23843 h -19.81478 l -12.38425,3.71527 -9.90739,7.43056 -6.19212,7.43054 -3.71528,11.14581 v 8.66897 l 3.71528,8.66897 4.95369,6.19213 9.90739,6.19212 18.57637,4.95369 34.67587,8.66897 18.57637,7.43054 11.14581,8.66897 8.66897,8.66898 7.43055,12.38424 2.47685,7.43054 1.23842,8.66897 v 14.86109 l -3.71527,14.86109 -8.66898,12.38424 -12.38423,11.14582 -17.33794,9.90739 -18.57637,4.9537 h -3.71527 l -1.23842,17.33793 -2.47685,8.66897 -3.71527,2.47686 -13.62266,-1.23842 -6.19213,-6.19213 -1.23843,-9.9074 v -11.14581 l -8.66896,-1.23842 -16.09951,-6.19212 -12.38424,-8.66898 -12.38425,-11.14582 -8.66897,-12.38423 -4.95369,-12.38424 v -12.38425 l 2.47684,-4.9537 4.9537,-2.47685 h 11.14581 l 4.95371,2.47685 9.90739,19.8148 4.9537,6.19211 12.38423,8.66897 11.14582,3.71527 7.43055,1.23843 h 22.29163 l 14.86109,-3.71527 11.14582,-7.43055 7.43055,-8.66896 2.47684,-7.43055 -1.23842,-11.14582 -6.19212,-12.38424 -9.90739,-7.43055 -8.66898,-3.71527 -33.43744,-7.43054 -22.29164,-7.43055 -18.57636,-11.14582 -12.38425,-12.38424 -7.43054,-14.86109 -1.23842,-4.9537 v -23.53005 l 4.95369,-13.62268 7.43054,-11.14581 12.38425,-12.38424 19.81478,-9.90739 12.38424,-2.47685 v -16.09952 l 2.47686,-11.14581 z m 69.35175,-274.930156 11.14581,1.238424 49.53698,12.384239 27.24532,9.90739 32.19904,13.622663 21.05321,11.145825 29.72217,18.576355 19.8148,13.62267 16.09951,13.62267 13.62266,11.14581 32.19903,32.19903 11.14581,13.62267 14.8611,18.57636 16.09951,24.76848 16.09951,28.48376 12.38425,26.0069 12.38424,33.43746 8.66897,26.00691 7.43054,38.39115 3.71528,28.48375 1.23843,18.57637 v 45.82169 l -2.47685,24.76848 -6.19213,43.34484 v 2.47685 l 7.43055,-4.9537 7.43054,-6.19212 4.9537,-2.47684 h 11.14581 l 3.71528,3.71527 1.23842,3.71527 v 12.38425 l -3.71527,6.19212 -22.29163,17.33793 -13.62267,12.38424 -19.81479,14.8611 -11.14581,6.19212 -11.14583,-13.62267 -8.66896,-18.57636 -9.90739,-23.53006 -9.90739,-26.00691 2.47684,-7.43054 8.66897,-8.66897 7.43054,1.23843 16.09951,22.29162 6.19213,8.66897 v 2.47685 l 4.9537,1.23843 1.23842,-21.05321 4.9537,-48.29854 V 421.495 l -3.71527,-37.15272 -4.9537,-27.24534 -11.14582,-35.9143 -12.38424,-30.9606 -13.62266,-28.48376 -16.09953,-26.00691 -14.86108,-21.0532 -16.09951,-19.8148 -18.57637,-19.81478 -8.66897,-8.66897 L 683.21418,155.2338 672.06835,145.32641 649.77673,129.2269 629.96193,116.84265 607.6703,104.45841 579.18654,90.835748 550.7028,79.689934 491.25843,64.828837 l -9.90739,-3.715272 -1.23843,-3.715272 2.47685,-12.384238 6.19212,-8.668967 z M 294.34899,11.5766 l 8.66897,1.238424 24.76848,8.668967 14.8611,6.192119 12.38423,4.953696 18.57636,6.19213 4.95371,6.192119 1.23842,8.668967 -6.19213,12.384238 -11.14581,12.38425 -13.62267,19.814781 -11.14581,13.622659 -8.66898,9.90741 -4.95369,2.47684 -7.43055,-1.23842 -6.19212,-6.19213 v -12.38424 l 7.43055,-13.622662 8.66896,-13.622662 v -2.476859 l -9.90739,1.238435 -23.53005,9.907391 -35.9143,14.861087 -21.05322,11.14581 -21.0532,13.62268 -22.29164,16.09951 -18.57636,16.09951 -16.09952,14.86109 -13.62266,13.62267 -8.66897,9.90739 -13.62266,16.09952 -16.09952,22.29163 -13.622667,23.53006 -14.861086,28.48375 -16.099521,40.868 -11.145815,37.15272 -4.953695,38.39115 -2.476848,28.48376 v 37.15273 l 2.476848,29.72217 6.192119,38.39115 8.668967,29.72219 8.668967,26.00691 -8.668967,12.38424 -4.953695,2.47684 -4.953696,-1.23842 -8.668967,-6.19212 -6.192119,-12.38425 -6.19213,-19.81478 -4.953696,-12.38424 -7.430541,-38.39115 -3.715273,-30.96061 -1.238424,-19.81478 v -29.72218 l 2.476849,-34.67588 6.192118,-39.62957 6.192119,-23.53006 13.622673,-39.62957 9.907391,-24.76849 16.09951,-30.96061 14.861097,-24.76847 14.861086,-19.8148 12.384236,-16.09951 14.8611,-16.09951 7.43054,-8.66897 9.90739,-8.66897 14.86109,-14.86109 13.62267,-11.14581 16.09951,-12.38425 22.29164,-14.861086 18.57636,-11.145815 33.43746,-17.337945 34.67587,-13.622662 8.66897,-3.715272 1.23843,-3.715271 -12.38424,-7.430543 -6.19213,-7.430554 v -8.668967 l 3.71527,-8.668966 z m 444.59427,676.17959 6.19212,1.23843 11.14582,9.90739 1.23842,7.43054 -7.43054,11.14583 -11.14582,12.38424 -8.66896,8.66896 -1.23843,2.47685 h -2.47684 l -2.47685,4.9537 -18.57637,17.33794 -17.33793,14.86109 -22.29164,16.09951 -26.00691,16.09952 -29.72218,16.09951 -24.76849,11.14581 -40.86799,13.62268 c -8.11667,2.85244 -15.19679,5.99882 -23.49483,8.48215 -3.01783,0.90315 -5.93802,1.60734 -9.59359,2.74805 -3.59051,1.12041 -7.66561,1.52334 -11.49485,2.39246 l -26.0069,2.47685 -22.29164,1.23842 h -43.34485 l -39.62957,-3.71527 -27.24533,-6.19212 -53.25225,-16.09952 -19.81478,-7.43054 -23.53006,-11.14582 -28.48375,-16.09951 -18.57637,-11.14582 -17.33793,-12.38424 -17.33794,-13.62267 -21.05321,-21.05321 -3.71527,-1.23843 1.23842,16.09953 v 19.81478 l -2.47685,2.47684 -4.95369,1.23843 h -11.14582 l -7.43055,-2.47685 -1.23843,-1.23842 -6.19211,-60.68278 -1.23843,-12.38425 v -13.62266 l 3.71527,-4.9537 1.23843,-3.71527 16.09952,1.23842 54.49066,9.90739 14.86108,3.71527 4.9537,4.9537 v 14.8611 l -2.47685,6.19212 -9.90739,1.23842 -18.57636,-3.71527 -4.95369,1.23842 v 3.71527 l 16.09951,14.86109 16.09951,12.38425 17.33794,12.38424 26.0069,16.09951 17.33795,9.90739 32.19902,13.62267 40.868,13.62266 33.43745,7.43055 28.48376,3.71527 19.81478,1.23842 h 35.9143 l 30.96061,-2.47684 28.48376,-4.9537 29.72217,-7.43054 43.34485,-14.86109 24.76849,-11.14582 33.43745,-19.81479 19.81478,-13.62266 17.33795,-13.62267 18.57635,-16.09951 23.53007,-23.53007 9.90739,-12.38423 h 2.47685 l 2.47685,-4.9537 z M 409.52243,235.73137 h 42.10643 l 24.76848,3.71527 26.0069,7.43056 19.8148,8.66896 21.0532,11.14582 13.62268,9.90739 19.81478,16.09952 14.86109,14.86109 12.38424,16.09951 12.38424,18.57636 9.90739,19.81479 6.19213,13.62267 8.66897,34.67587 3.71527,24.76848 v 28.48376 l -4.9537,28.48375 -6.19211,24.76849 -12.38425,29.72218 -8.66897,14.86109 -12.38424,17.33793 -13.62267,16.09952 -14.86109,14.86109 -17.33793,13.62266 -18.57637,12.38425 -19.81478,9.90739 -23.53007,8.66897 -18.57635,4.9537 -33.43746,3.71527 h -23.53006 l -23.53006,-2.47685 -23.53006,-4.9537 -29.72217,-11.14581 -24.76849,-13.62267 -17.33793,-12.38424 -14.8611,-13.62266 -12.38424,-12.38424 -16.09951,-21.05322 -12.38425,-18.57636 -11.14581,-23.53006 -7.43055,-22.29163 -6.19212,-27.24534 -1.23842,-8.66896 v -37.15273 l 4.9537,-30.96061 6.19211,-24.76847 8.66897,-19.8148 11.14583,-21.0532 14.86108,-21.05322 17.33794,-18.57635 9.90739,-9.90741 21.05321,-16.09951 19.81479,-12.38424 22.29164,-9.90739 22.29163,-7.43055 23.53006,-4.9537 z m -2.47684,28.48376 -22.29163,3.71527 -21.05322,7.43054 -26.0069,12.38424 -13.62267,8.66898 -13.62267,11.14582 -12.38423,11.14581 -14.8611,16.09952 -12.38424,17.33794 -9.90739,19.81478 -6.19212,14.86109 -4.95369,19.81479 -4.95371,26.00691 -1.23843,9.90739 v 13.62266 l 3.71529,24.76849 6.19212,26.00691 11.14581,26.0069 11.14582,19.81479 13.62266,17.33794 12.38425,13.62266 13.62266,11.14582 17.33794,12.38424 18.57636,11.14582 22.29163,7.43054 23.53007,6.19213 23.53006,2.47685 h 21.0532 l 22.29164,-2.47685 19.81479,-4.95371 18.57635,-6.19211 19.8148,-9.9074 18.57635,-12.38423 17.33795,-14.8611 12.38424,-12.38424 11.14581,-13.62266 11.14583,-16.09952 8.66896,-18.57636 8.66897,-26.00691 6.19212,-27.24533 1.23842,-12.38425 -1.23842,-27.24532 -6.19212,-26.00691 -6.19212,-21.05321 -12.38424,-28.48376 -12.38425,-17.33793 -11.14581,-13.62267 -9.90739,-9.90739 -13.62267,-11.14582 -16.09951,-11.14581 -23.53006,-12.38425 -27.24533,-9.90739 -18.57637,-3.71528 -11.14582,-1.23842 z m 6.19212,-91.64339 h 32.19903 l 32.19903,3.71528 28.48376,7.43054 33.43744,11.14581 23.53006,11.14583 23.53006,14.86108 17.33794,13.62267 17.33794,14.86109 12.38425,12.38424 11.14581,13.62266 13.62266,17.33795 14.86109,24.76848 9.9074,18.57637 11.14581,29.72217 7.43055,32.19903 4.95369,32.19903 v 37.15273 l -6.19212,37.15272 -6.19212,26.0069 -12.38423,33.43746 -14.8611,27.24533 -13.62266,21.05321 -11.14582,13.62266 -11.14582,12.38425 -18.57636,18.57636 -21.05321,16.09951 -18.57636,12.38425 -19.81479,11.14581 -21.05321,9.90739 -26.0069,8.66897 -26.00692,6.19213 -32.19903,3.71527 h -37.15272 l -30.9606,-3.71527 -26.00691,-6.19213 -23.53006,-7.43054 -28.48375,-13.62267 -21.05322,-12.38423 -23.53005,-17.33795 -16.09952,-13.62266 -16.09951,-16.09951 -13.62267,-17.33795 -7.43055,-9.90739 -11.14581,-17.33793 -7.43055,-12.38425 -9.90739,-21.05321 -11.14581,-32.19903 -7.43056,-33.43745 -2.47684,-21.05321 v -37.15272 l 4.95369,-37.15273 6.19213,-27.24533 9.90739,-27.24533 9.90739,-19.81479 9.90739,-17.33794 14.8611,-22.29164 h 2.47685 l 2.47685,-4.95369 8.66896,-11.14582 7.43055,-8.66896 9.90739,-8.66897 9.9074,-9.9074 19.81478,-14.86109 21.05322,-13.62266 26.0069,-13.62267 23.53006,-8.66897 30.9606,-8.66897 18.57637,-3.71527 z m -6.19212,28.48375 -23.53006,3.71528 -26.00691,7.43055 -24.76848,8.66896 -19.81479,9.9074 -17.33793,9.90739 -21.05322,16.09952 -18.57636,16.09951 -12.38425,12.38424 -11.14581,13.62267 -16.09951,24.76848 -13.62267,24.76848 -12.38424,37.15273 -3.71527,19.81478 -3.71527,32.19903 v 26.00691 l 4.95369,35.9143 7.43054,28.48376 7.43055,21.05321 11.14582,21.05321 8.66897,13.62266 14.86109,21.05322 14.86109,17.33793 11.14582,11.14582 21.0532,16.09951 18.57637,12.38424 22.29163,12.38425 21.05322,8.66897 23.53005,6.19212 30.96061,6.19212 9.90739,1.23842 h 40.868 l 37.15272,-6.19212 26.00691,-7.43054 22.29163,-9.9074 17.33795,-8.66897 18.57636,-12.38424 16.09952,-12.38424 14.86108,-13.62267 12.38424,-12.38424 11.14582,-13.62266 12.38424,-17.33794 8.66897,-13.62267 9.90739,-21.0532 12.38424,-37.15273 6.19213,-30.96061 1.23842,-8.66896 v -40.868 l -3.71527,-24.76849 -4.9537,-22.29163 -12.38424,-34.67588 -9.90739,-19.81479 -9.90739,-16.09951 -14.8611,-19.81478 -17.33793,-18.57637 -18.57637,-17.33793 -22.29163,-16.09952 -18.57637,-11.14582 -26.0069,-11.14581 -35.9143,-11.14582 -26.00692,-4.9537 -13.62266,-1.23843 z"
     sodipodi:nodetypes="cccccccccccccccccccccccccccccccccccccccccccccccccccccccccccccccccccccccccccccccccccccccccccccccccccccccccccccccccccccccccccccccccccccccccccccccccccccccccccccccccccccccccccccccccccccccccccccccccccccccccccccccccccccccccccccccccccccccccccccccccccccccccccccccccccccssccccccccccccccccccccccccccccccccccccccccccccccccccccccccccccccccccccccccccccccccccccccccccccccccccccccccccccccccccccccccccccccccccccccccccccccccccccccccccccccccccccccccccccccccccccccccccccccccccccccccccccccccccccccccccccccccccccccccccccccccccccccccccccccccccccccccccccccccccccccccccccccccccccccccccccccccccc"
     style="stroke-width:1.23842" />
</svg>
