<?xml version="1.0" encoding="UTF-8" standalone="no"?>
<!-- Generator: Adobe Illustrator 18.0.0, SVG Export Plug-In . SVG Version: 6.00 Build 0)  -->

<svg
   version="1.1"
   id="Layer_1"
   x="0px"
   y="0px"
   viewBox="0 0 63.965786 85.438477"
   enable-background="new 0 0 64 64"
   xml:space="preserve"
   sodipodi:docname="cash_out.svg"
   width="63.965786"
   height="85.438477"
   inkscape:version="1.3.2 (091e20e, 2023-11-25, custom)"
   xmlns:inkscape="http://www.inkscape.org/namespaces/inkscape"
   xmlns:sodipodi="http://sodipodi.sourceforge.net/DTD/sodipodi-0.dtd"
   xmlns="http://www.w3.org/2000/svg"
   xmlns:svg="http://www.w3.org/2000/svg"><defs
   id="defs1"><clipPath
     clipPathUnits="userSpaceOnUse"
     id="clipPath65"><path
       id="path65"
       style="fill:#ff0000;fill-opacity:1;fill-rule:nonzero;stroke:none"
       d="M 63.732422,-34.859375 V 0.56445312 H 73.21875 C 73.138222,0.44267791 73.056155,0.32106269 72.972656,0.20117188 72.766279,-0.07358365 72.540267,-0.33419411 72.308594,-0.58789062 72.050627,-0.86609189 71.794636,-1.1472399 71.494141,-1.3808594 c -0.197898,-0.1599999 -0.402407,-0.3134287 -0.605469,-0.4667968 -1.150154,-0.8686905 -0.768225,-1.9440816 0.142578,-1.9414063 0.303601,8.918e-4 0.664521,0.1218187 1.048828,0.4101563 0.212401,0.1593588 0.423842,0.3200289 0.63086,0.4863281 0.374042,0.2916741 0.699598,0.6378157 1.021484,0.984375 0.277291,0.3013232 0.543871,0.6129686 0.791016,0.9394531 0.219635,0.30819759 0.425868,0.62473916 0.626953,0.9453125 0.126675,0.19091011 0.242363,0.38873711 0.355468,0.58789062 H 114.86133 V -34.859375 Z" /></clipPath></defs><sodipodi:namedview
   id="namedview1"
   pagecolor="#ffffff"
   bordercolor="#000000"
   borderopacity="0.25"
   inkscape:showpageshadow="2"
   inkscape:pageopacity="0.0"
   inkscape:pagecheckerboard="0"
   inkscape:deskcolor="#d1d1d1"
   inkscape:zoom="6.5501887"
   inkscape:cx="43.281196"
   inkscape:cy="44.807869"
   inkscape:window-width="1920"
   inkscape:window-height="991"
   inkscape:window-x="-9"
   inkscape:window-y="-9"
   inkscape:window-maximized="1"
   inkscape:current-layer="Layer_1" />
<path
   id="path169"
   d="m 38.811489,9.7896711e-4 c -0.04569,-0.002399997 -0.08832,-4.1e-4 -0.126953,0.005900003 -0.237418,0.03853 -1.578208,0.620621 -4.632813,2.01171903 -0.272006,0.123873 -0.675884,0.306766 -0.898437,0.404296 -0.22255,0.09754 -0.527415,0.231836 -0.675782,0.300782 -0.148366,0.06895 -1.281183,0.573895 -2.517578,1.121094 -1.236389,0.547201 -2.369211,1.051368 -2.517578,1.121093 -0.148368,0.06974 -0.592636,0.273989 -0.988281,0.453125 -0.395649,0.179131 -0.882253,0.402877 -1.080078,0.496094 -0.19782,0.09321 -0.54112,0.246941 -0.763672,0.34375 -0.521407,0.226809 -2.749267,1.221414 -3.505859,1.564453 -0.321461,0.14575 -0.767682,0.345559 -0.990235,0.443359 -0.22255,0.09781 -0.52546,0.232586 -0.673828,0.300782 -0.148368,0.06819 -0.5542,0.25274 -0.900391,0.4082029 -0.346187,0.1554636 -0.790457,0.3553277 -0.988281,0.4453125 -0.197824,0.08998 -0.886369,0.3961561 -1.529297,0.6796876 -0.642923,0.283527 -1.546686,0.692425 -2.009765,0.908203 -0.46308,0.21578 -0.859687,0.390625 -0.88086,0.390625 -0.03514,0 -0.455706,0.188071 -1.695312,0.759766 -1.272355,0.586801 -1.9061571,0.859375 -2.0039059,0.859375 -0.05962,0 -0.109375,0.04039 -0.109375,0.08984 0,0.04946 -0.057251,0.08984 -0.1289062,0.08984 -0.07168,0 -0.2419655,0.145285 -0.3769532,0.322265 -0.1830077,0.239935 -0.2471701,0.429234 -0.2519531,0.744141 -0.0065,0.429512 0.06495,0.613832 0.9960938,2.605469 0.2157516,0.461481 0.3925781,0.855683 0.3925781,0.876953 0,0.02126 0.2019405,0.467257 0.4492185,0.990234 0.205199,0.433983 0.319687,0.690711 0.373047,0.818359 -2.8567947,1.2194 -4.8730467,4.043206 -4.8730467,7.259725 v 6.699218 c -3.4999777,1.399993 -6.00039039,4.8012 -5.90039067,8.701172 V 67.61426 c -1e-8,5.099965 4.10081687,9.300781 9.30078127,9.300781 H 33.89352 c 2.681872,5.060746 8.000006,8.523437 14.109375,8.523438 8.794372,0 15.962891,-7.168522 15.962891,-15.962891 0,-0.525233 -0.02817,-1.042235 -0.07813,-1.554688 0.0034,-0.102625 0.01563,-0.203248 0.01563,-0.30664 V 27.915041 c 0,-4.999965 -4.000035,-9 -9,-9 h -6.800782 c -0.293165,-0.641257 -0.5625,-1.230836 -0.5625,-1.255859 0,-0.01968 -0.15685,-0.374189 -0.347656,-0.78711 -0.738672,-1.598541 -1.44971,-3.208344 -1.71289,-3.875 -0.151153,-0.382877 -0.314752,-0.766559 -0.363282,-0.853515 -0.04852,-0.08695 -0.456048,-0.988113 -0.90625,-2.001954 C 43.116528,7.67929 42.77352,6.91571 42.413051,6.13965 42.321171,5.941828 42.165183,5.598527 42.067348,5.375979 41.969518,5.153428 41.770504,4.707206 41.623989,4.385744 41.477477,4.064279 41.225616,3.498851 41.065395,3.127932 40.905171,2.757017 40.682537,2.25021 40.569301,2.002932 40.456062,1.755655 40.274028,1.351774 40.165004,1.104494 40.05599,0.85721597 39.900317,0.57911597 39.819301,0.48730697 39.596479,0.23478897 39.13131,0.01765297 38.811489,9.7896711e-4 Z M 38.137661,3.137697 c 0.0191,0.01926 0.407195,0.865067 0.861328,1.878906 0.45413,1.013841 1.535236,3.420838 2.402344,5.34961 0.867105,1.928772 1.647181,3.669367 1.734375,3.867187 0.240196,0.544954 1.65499,3.702987 2.095703,4.681641 0.05018,0.11143 0.220391,0.494133 0.238281,0.533203 0.09058,0.197821 0.226933,0.500736 0.302734,0.673828 0.0758,0.173095 0.336736,0.760676 0.582032,1.304688 0.128928,0.28594 0.424924,0.942618 0.669922,1.488281 0.221122,0.492487 0.388025,0.862793 0.603515,1.34375 0.968335,2.161251 1.226268,2.735078 1.398438,3.101562 0.0697,0.148368 0.67771,1.505273 1.349609,3.013672 0.562855,1.263605 0.944547,2.102184 1.148438,2.541016 H 48.829067 C 48.443183,32.053154 46.941333,28.722957 46.282192,27.27051 46.192412,27.072689 46.057603,26.769777 45.981411,26.596682 45.83933,26.273901 44.998975,24.400789 44.332973,22.915041 44.03116,22.241738 43.644079,21.37677 43.584926,21.247072 c -0.09023,-0.197823 -0.226697,-0.502686 -0.302734,-0.675781 -0.07387,-0.168152 -0.453566,-1.007485 -0.744141,-1.65625 -0.805424,-1.798272 -1.969685,-4.399631 -2.060547,-4.591797 -0.07015,-0.148367 -0.334545,-0.735947 -0.585937,-1.304687 -0.517412,-1.170585 -0.672995,-1.373144 -1.214844,-1.580079 -0.367496,-0.14035 -0.408298,-0.139492 -0.953125,0.05273 -1.812203,0.639393 -3.624043,0.05106 -4.511718,-1.466796 -0.493945,-0.8446058 -0.876273,-1.1425784 -1.46875,-1.1425784 -0.126036,0 -1.186517,0.4313193 -2.355469,0.9570311 -1.168957,0.5257143 -2.347134,1.0543003 -2.619141,1.1757813 -0.272009,0.121482 -0.615305,0.276667 -0.763672,0.34375 -0.148367,0.06708 -1.444692,0.645674 -2.878906,1.287109 -1.481596,0.662625 -2.729052,1.276917 -2.888672,1.421875 -0.415196,0.377064 -0.454826,0.79899 -0.171875,1.775391 0.267631,0.923541 0.279388,1.223274 0.08594,1.974609 -0.106266,0.412699 -0.278928,0.769032 -0.486331,1.097657 -0.332968,0.527585 -0.779342,0.959276 -1.363281,1.257812 -0.697146,0.356419 -1.065744,1.006715 -0.90039,1.585938 0.02431,0.08518 0.279737,0.667312 0.492187,1.15625 0.41779,0.96151 0.996213,2.260064 1.613281,3.591797 0.148952,0.321462 0.410566,0.907089 0.582032,1.302734 0.171466,0.395645 0.385949,0.882257 0.476562,1.080078 0.09062,0.197825 0.611607,1.350837 1.158203,2.5625 l 0.660156,1.462891 H 19.67477 c -0.06897,-0.153784 -0.137557,-0.310046 -0.191406,-0.427734 -0.09051,-0.197823 -0.535563,-1.189281 -0.988281,-2.203125 -0.452722,-1.013835 -0.897665,-2.005302 -0.988282,-2.203125 -0.304621,-0.664993 -0.73289,-1.615635 -0.912109,-2.023438 -0.0978,-0.22255 -0.23416,-0.527415 -0.302734,-0.675781 -0.06488,-0.140376 -0.568818,-1.264169 -1.105469,-2.466797 -0.03055,-0.06846 -0.03161,-0.07137 -0.0625,-0.140625 -0.573574,-1.28585 -1.099466,-2.459055 -1.169922,-2.607422 -0.03838,-0.08082 -0.345104,-0.770169 -0.550781,-1.226562 -0.641663,-1.423835 -1.67057,-3.714375 -1.714844,-3.828125 -0.04884,-0.12549 -0.03525,-0.132273 4.333984,-2.091797 1.780407,-0.798478 3.359448,-1.508257 3.507813,-1.578125 0.211353,-0.09952 3.186874,-1.432159 7.013672,-3.140625 1.212854,-0.541479 5.830512,-2.615149 6.115234,-2.746094 0.197823,-0.09099 0.541119,-0.243519 0.763672,-0.339844 0.222549,-0.09632 1.367033,-0.611533 2.542969,-1.144531 1.175939,-0.533002 2.152776,-0.952836 2.171875,-0.933594 z m -7.046875,8.878906 c 0.08088,-0.01784 0.390494,0.221619 0.726562,0.5625 0.688617,0.698471 1.550583,1.232513 2.548828,1.578125 0.645964,0.223647 0.847748,0.249657 1.970704,0.25586 l 1.25,0.0059 0.164062,0.357422 c 0.09035,0.195901 0.309465,0.678574 0.486328,1.074219 0.176865,0.395648 0.378277,0.841867 0.447266,0.990234 0.04189,0.0901 0.551917,1.227278 0.93164,2.074219 0.245566,0.54771 0.29748,0.662015 0.601563,1.341797 0.586793,1.311784 0.922246,2.056223 1.193359,2.658202 0.08663,0.192356 0.358761,0.801704 0.38086,0.849609 0.179068,0.388162 3.301351,7.350252 3.628906,8.091797 0.100844,0.228302 0.302803,0.688162 0.466797,1.058594 h -3.708985 c -0.177311,-0.411872 -0.417538,-0.891077 -0.621093,-1.197266 -0.681644,-1.025341 -1.689037,-1.804581 -2.976563,-2.302734 -0.817973,-0.316481 -2.548247,-0.404108 -3.453125,-0.173828 -1.69997,0.432619 -3.118289,1.567826 -3.886719,3.111328 -0.119496,0.240027 -0.158187,0.360449 -0.246093,0.5625 h -5.712891 c -0.157767,-0.370901 -0.253933,-0.618633 -0.498047,-1.148438 -0.09115,-0.197831 -0.998114,-2.221129 -2.015625,-4.496093 -0.961533,-2.149808 -1.761378,-3.925089 -1.958984,-4.355469 -0.0115,-0.02506 -0.106562,-0.239562 -0.113282,-0.253906 -0.12215,-0.260741 -0.222656,-0.51373 -0.222656,-0.5625 0,-0.04877 0.257141,-0.341706 0.570313,-0.650391 0.581363,-0.57303 1.096262,-1.302258 1.316406,-1.865234 0.06769,-0.173095 0.15172,-0.354841 0.1875,-0.404297 0.03548,-0.04905 0.06693,-0.160484 0.09961,-0.263672 0.153401,-0.484311 0.267901,-1.454407 0.236328,-2.220703 l -0.04102,-0.980469 0.501953,-0.230469 c 0.692027,-0.320229 0.858785,-0.396198 3.962891,-1.789062 1.508398,-0.676841 2.946083,-1.324889 3.193359,-1.439453 0.247278,-0.114565 0.512392,-0.22119 0.589844,-0.238282 z M 30.850551,20.2334 c -1.295544,0.02188 -2.41817,1.307827 -2.082031,2.681641 0.04118,0.168305 0.09612,0.33705 0.183594,0.505859 0.530944,1.024662 1.79963,1.48825 2.814453,1.027344 0.659107,-0.299349 1.088615,-0.851063 1.230469,-1.533203 0.04437,-0.213378 0.06579,-0.438106 0.05078,-0.673828 -0.04501,-0.706757 -0.345563,-1.20097 -0.996094,-1.638672 C 31.65948,20.338624 31.247147,20.226704 30.850551,20.2334 Z m 18.21875,0.835938 c 0,0.01735 0.181744,0.417517 0.404297,0.890625 -0.222553,-0.473109 -0.404297,-0.873277 -0.404297,-0.890625 z m -37.49414,0.267578 c 0.275438,0.597342 0.501574,1.138564 0.824219,1.876953 0.256847,0.587811 0.646308,1.447533 0.65625,1.494141 0.01583,0.07419 0.214217,0.525657 0.441406,1.003906 0.227192,0.478251 0.413956,0.904277 0.414062,0.945312 9e-5,0.04104 0.115193,0.296354 0.257813,0.56836 0.142628,0.272009 0.712062,1.505796 1.263672,2.742187 0.55161,1.236393 1.078589,2.411554 1.171875,2.609375 0.0426,0.09033 0.09327,0.215573 0.146484,0.337891 0.06334,0.145572 0.128609,0.288129 0.173828,0.402344 -0.04522,-0.114215 -0.110491,-0.256772 -0.173828,-0.402344 H 9.9032863 v -6.099609 c 0,-1.592128 1.0369037,-3.007897 2.4960937,-3.601563 -0.322645,-0.738388 -0.548782,-1.279611 -0.824219,-1.876953 z m 38.320312,1.578125 h 5.007813 c 2.799979,0 5,2.20002 5,5 0,2.699979 -2.200021,5 -5,5 h -0.50586 C 54.23632,32.552012 54.144376,32.327056 53.922817,31.856447 53.783116,31.559714 53.50047,30.933698 53.295864,30.463869 53.091258,29.99404 52.844858,29.437729 52.748989,29.227541 52.394143,28.449558 52.215735,28.044951 51.538051,26.506838 51.156729,25.641363 50.625956,24.483195 50.360317,23.932619 50.104473,23.402346 49.91069,22.975272 49.895473,22.915041 Z m -13.24414,8.824219 c 0.581406,0.01531 1.158873,0.172686 1.664062,0.46875 0.233469,0.136823 0.544652,0.420988 0.806641,0.707031 0.09852,0.107563 0.191098,0.214756 0.267578,0.314453 0.07648,0.0997 0.136859,0.191899 0.171875,0.267578 -0.03502,-0.07568 -0.0954,-0.167881 -0.171875,-0.267578 -0.07648,-0.0997 -0.16906,-0.20689 -0.267578,-0.314453 h -5.111328 c -0.138498,0.153925 -0.261557,0.305159 -0.335938,0.4375 0.07438,-0.132341 0.19744,-0.283575 0.335938,-0.4375 0.287936,-0.320012 0.663462,-0.64506 0.953125,-0.794922 0.520743,-0.269412 1.106093,-0.396169 1.6875,-0.380859 z m 23.251953,3.675781 v 23.464844 c -2.926871,-3.28288 -7.172124,-5.367188 -11.900391,-5.367188 -8.794369,0 -15.962891,7.168522 -15.962891,15.962891 10e-7,1.181398 0.139483,2.330177 0.384766,3.439453 H 9.2040675 c -2.8999793,0 -5.3007812,-2.400802 -5.3007812,-5.300781 v -4.199219 h 8.3007807 c 4.199972,0 7.699219,-3.400028 7.699219,-7.5 0,-4.099972 -3.499247,-7.5 -7.699219,-7.5 H 3.9032863 v -6.199219 c -10e-8,-2.899979 2.4008019,-5.300781 5.3007812,-5.300781 h 8.6992185 37 c 1.799986,0 3.600008,-0.500007 5,-1.5 z m -55.9999997,17 h 8.3007807 c 1.999986,0 3.699219,1.600014 3.699219,3.5 0,1.899986 -1.699233,3.5 -3.699219,3.5 H 3.9032863 Z m 7.9999997,1.5 c -1.104568,0 -1.9999997,0.895432 -1.9999997,2 0,1.104568 0.8954317,2 1.9999997,2 1.104567,0 2,-0.895433 2,-2 0,-1.104567 -0.895433,-2 -2,-2 z m 36.099609,3.244141 c 5.736464,0 10.518397,3.888383 11.900391,9.179687 0.261856,1.002593 0.414062,2.049777 0.414062,3.136719 0,2.440759 -0.712902,4.705464 -1.927734,6.615234 -2.181356,3.429194 -6.004076,5.701172 -10.386719,5.701172 -4.02021,0 -7.567317,-1.914731 -9.8125,-4.876953 -0.897732,-1.184442 -1.586354,-2.532487 -2.009765,-4 -0.314958,-1.091605 -0.494141,-2.243734 -0.494141,-3.439453 0,-6.823402 5.493004,-12.316406 12.316406,-12.316406 z m -7.978515,10.27539 v 3.761719 h 15.658203 v -3.761719 z" />
</svg>
