<?xml version="1.0" encoding="UTF-8" standalone="no"?>
<!-- Generator: Adobe Illustrator 18.0.0, SVG Export Plug-In . SVG Version: 6.00 Build 0)  -->

<svg
   version="1.1"
   id="Layer_1"
   x="0px"
   y="0px"
   viewBox="0 0 63.902897 70.794556"
   enable-background="new 0 0 64 64"
   xml:space="preserve"
   sodipodi:docname="cash_in.svg"
   width="63.902897"
   height="70.794556"
   inkscape:version="1.3.2 (091e20e, 2023-11-25, custom)"
   xmlns:inkscape="http://www.inkscape.org/namespaces/inkscape"
   xmlns:sodipodi="http://sodipodi.sourceforge.net/DTD/sodipodi-0.dtd"
   xmlns="http://www.w3.org/2000/svg"
   xmlns:svg="http://www.w3.org/2000/svg"><defs
   id="defs1" /><sodipodi:namedview
   id="namedview1"
   pagecolor="#ffffff"
   bordercolor="#000000"
   borderopacity="0.25"
   inkscape:showpageshadow="2"
   inkscape:pageopacity="0.0"
   inkscape:pagecheckerboard="0"
   inkscape:deskcolor="#d1d1d1"
   inkscape:zoom="4.370905"
   inkscape:cx="39.579904"
   inkscape:cy="27.568661"
   inkscape:window-width="1920"
   inkscape:window-height="991"
   inkscape:window-x="-9"
   inkscape:window-y="-9"
   inkscape:window-maximized="1"
   inkscape:current-layer="Layer_1" />
<path
   id="path44"
   d="M 54.840786,5.2316696e-7 C 59.840772,5.2316696e-7 63.840787,4.0000155 63.840787,9.0000005 V 48.69922 c 0,0.103392 -0.0122,0.204015 -0.01563,0.30664 0.04996,0.512453 0.07813,1.029455 0.07813,1.554688 0,8.794404 -7.168484,15.96289 -15.962893,15.96289 -6.109393,0 -11.427492,-3.462672 -14.109375,-8.523438 H 9.2411762 c -5.199984,0 -9.30078103,-4.200795 -9.30078103,-9.30078 V 23.300782 c -0.1,-3.899988 2.40040003,-7.301175 5.90039103,-8.701172 V 7.9003905 C 5.8407862,3.6004035 9.4407972,5.2316696e-7 13.840785,5.2316696e-7 Z m 0,3.99999997683304 H 13.840785 c -2.199994,0 -3.9999998,1.800397 -3.9999998,3.90039 v 6.0996105 h 7.9999998 37.000001 c 2.799992,0 5.000001,-2.300009 5.000001,-5.0000005 0,-2.799992 -2.200009,-5 -5.000001,-5 z m 1.000001,3 V 11.000001 H 13.840785 V 7.0000005 Z m 4,9.5000005 c -1.399996,0.999997 -3.200006,1.5 -5.000001,1.5 H 17.840785 9.1415662 c -2.89999,0 -5.30078,2.40079 -5.30078,5.300781 v 6.199219 h 8.3007798 c 4.199988,0 7.699219,3.400012 7.699219,7.5 0,4.099988 -3.499231,7.5 -7.699219,7.5 H 3.8407862 v 4.199219 c 0,2.899991 2.40079,5.300781 5.30078,5.300781 H 32.362269 c -0.245284,-1.10928 -0.384765,-2.258051 -0.384765,-3.439453 0,-8.794405 7.168485,-15.962891 15.96289,-15.962891 4.728286,0 8.97351,2.084296 11.900393,5.367188 z m -47.699221,17 H 3.8407862 v 7 h 8.3007798 c 1.999994,0 3.699219,-1.600006 3.699219,-3.5 0,-1.899994 -1.699225,-3.5 -3.699219,-3.5 z m -0.300781,1.5 a 2,2 0 0 1 2,2 2,2 0 0 1 -2,2 2,2 0 0 1 -1.9999998,-2 2,2 0 0 1 1.9999998,-2 z m 36.099609,3.244141 c -6.82343,0 -12.316406,5.492976 -12.316406,12.316406 0,1.195723 0.179182,2.347844 0.494141,3.439453 0.423414,1.467517 1.112029,2.815553 2.009765,3.999999 2.245191,2.962234 5.792274,4.876953 9.8125,4.876953 4.382659,0 8.205357,-2.271966 10.386721,-5.701172 1.214836,-1.909777 1.927734,-4.174462 1.927734,-6.615233 0,-1.086946 -0.152202,-2.134122 -0.414062,-3.136719 -1.381998,-5.291324 -6.163906,-9.179687 -11.900393,-9.179687 z m 1.824219,4.544921 v 1.824219 3.90625 h 5.855471 v 3.763672 h -5.855471 v 6.166015 h -3.763672 v -6.166015 h -6.041015 v -3.763672 h 6.041015 v -5.730469 z" />
<g
   id="rect52"><path
     style="color:#000000;fill:#6fc457;fill-opacity:0;fill-rule:evenodd;-inkscape-stroke:none"
     d="m 15.900391,44.613281 v 5.730469 h -5.855469 v 0.115234 h 5.855469 V 56.625 h 0.115234 v -6.166016 h 6.041016 V 50.34375 h -6.041016 v -5.730469 z"
     id="path53" /></g></svg>
