<svg width="24" height="24" viewBox="0 0 24 24" fill="none" xmlns="http://www.w3.org/2000/svg">
<path d="M19.6 3.93998C18.3901 2.72957 16.9086 1.82579 15.2787 1.30395C13.6488 0.782116 11.9178 0.657326 10.23 0.939981C8.53658 1.22142 6.93533 1.90467 5.56041 2.93246C4.18549 3.96025 3.07696 5.30264 2.32774 6.84712C1.57851 8.3916 1.21042 10.0932 1.2543 11.8092C1.29819 13.5253 1.75278 15.2058 2.57997 16.71C2.60299 16.7712 2.60299 16.8387 2.57997 16.9L1.54997 20.45C1.48262 20.6665 1.47591 20.8973 1.53057 21.1173C1.58523 21.3373 1.69917 21.5382 1.86 21.698C2.02083 21.8578 2.2224 21.9704 2.44278 22.0237C2.66316 22.0769 2.89392 22.0687 3.10997 22L6.63997 20.94C6.70467 20.9171 6.77527 20.9171 6.83997 20.94C8.41619 21.8251 10.1923 22.2932 12 22.3C12.7761 22.2983 13.5501 22.2179 14.31 22.06C16.195 21.6447 17.9336 20.73 19.3436 19.4118C20.7535 18.0935 21.7829 16.4203 22.3238 14.5674C22.8648 12.7145 22.8973 10.7502 22.4181 8.88045C21.9389 7.01067 20.9655 5.30423 19.6 3.93998ZM7.99997 13.25C7.75274 13.25 7.51107 13.1767 7.30551 13.0393C7.09995 12.902 6.93973 12.7067 6.84512 12.4783C6.75051 12.2499 6.72576 11.9986 6.77399 11.7561C6.82222 11.5136 6.94127 11.2909 7.11609 11.1161C7.2909 10.9413 7.51363 10.8222 7.75611 10.774C7.99858 10.7258 8.24992 10.7505 8.47833 10.8451C8.70673 10.9397 8.90196 11.1 9.03931 11.3055C9.17666 11.5111 9.24997 11.7528 9.24997 12C9.24997 12.3315 9.11827 12.6494 8.88385 12.8839C8.64943 13.1183 8.33149 13.25 7.99997 13.25ZM12 13.25C11.7527 13.25 11.5111 13.1767 11.3055 13.0393C11.0999 12.902 10.9397 12.7067 10.8451 12.4783C10.7505 12.2499 10.7258 11.9986 10.774 11.7561C10.8222 11.5136 10.9413 11.2909 11.1161 11.1161C11.2909 10.9413 11.5136 10.8222 11.7561 10.774C11.9986 10.7258 12.2499 10.7505 12.4783 10.8451C12.7067 10.9397 12.902 11.1 13.0393 11.3055C13.1767 11.5111 13.25 11.7528 13.25 12C13.25 12.3315 13.1183 12.6494 12.8839 12.8839C12.6494 13.1183 12.3315 13.25 12 13.25ZM16 13.25C15.7527 13.25 15.5111 13.1767 15.3055 13.0393C15.0999 12.902 14.9397 12.7067 14.8451 12.4783C14.7505 12.2499 14.7258 11.9986 14.774 11.7561C14.8222 11.5136 14.9413 11.2909 15.1161 11.1161C15.2909 10.9413 15.5136 10.8222 15.7561 10.774C15.9986 10.7258 16.2499 10.7505 16.4783 10.8451C16.7067 10.9397 16.902 11.1 17.0393 11.3055C17.1767 11.5111 17.25 11.7528 17.25 12C17.25 12.3315 17.1183 12.6494 16.8839 12.8839C16.6494 13.1183 16.3315 13.25 16 13.25Z" fill="#979797"/>
</svg>
