<svg width="24" height="24" viewBox="0 0 24 24" fill="none" xmlns="http://www.w3.org/2000/svg">
<path d="M19.5999 3.93998C18.3901 2.72957 16.9085 1.82579 15.2786 1.30395C13.6488 0.782116 11.9178 0.657326 10.2299 0.939981C8.53652 1.22142 6.93527 1.90467 5.56035 2.93246C4.18543 3.96025 3.0769 5.30264 2.32768 6.84712C1.57845 8.3916 1.21036 10.0932 1.25424 11.8092C1.29813 13.5253 1.75272 15.2058 2.57991 16.71C2.60293 16.7712 2.60293 16.8387 2.57991 16.9L1.54991 20.45C1.48256 20.6665 1.47584 20.8973 1.53051 21.1173C1.58517 21.3373 1.69911 21.5382 1.85994 21.698C2.02077 21.8578 2.22234 21.9704 2.44272 22.0237C2.6631 22.0769 2.89386 22.0687 3.10991 22L6.63991 20.94C6.70461 20.9171 6.77521 20.9171 6.83991 20.94C8.41613 21.8251 10.1922 22.2932 11.9999 22.3C12.776 22.2983 13.55 22.2179 14.3099 22.06C16.1949 21.6447 17.9335 20.73 19.3435 19.4118C20.7535 18.0935 21.7829 16.4203 22.3238 14.5674C22.8647 12.7145 22.8973 10.7502 22.418 8.88045C21.9388 7.01067 20.9654 5.30423 19.5999 3.93998ZM7.99991 13.25C7.75268 13.25 7.51101 13.1767 7.30545 13.0393C7.09989 12.902 6.93967 12.7067 6.84506 12.4783C6.75045 12.2499 6.7257 11.9986 6.77393 11.7561C6.82216 11.5136 6.94121 11.2909 7.11603 11.1161C7.29084 10.9413 7.51357 10.8222 7.75605 10.774C7.99852 10.7258 8.24986 10.7505 8.47826 10.8451C8.70667 10.9397 8.9019 11.1 9.03925 11.3055C9.1766 11.5111 9.24991 11.7528 9.24991 12C9.24991 12.3315 9.11821 12.6494 8.88379 12.8839C8.64937 13.1183 8.33143 13.25 7.99991 13.25ZM11.9999 13.25C11.7527 13.25 11.511 13.1767 11.3054 13.0393C11.0999 12.902 10.9397 12.7067 10.8451 12.4783C10.7505 12.2499 10.7257 11.9986 10.7739 11.7561C10.8222 11.5136 10.9412 11.2909 11.116 11.1161C11.2908 10.9413 11.5136 10.8222 11.756 10.774C11.9985 10.7258 12.2499 10.7505 12.4783 10.8451C12.7067 10.9397 12.9019 11.1 13.0392 11.3055C13.1766 11.5111 13.2499 11.7528 13.2499 12C13.2499 12.3315 13.1182 12.6494 12.8838 12.8839C12.6494 13.1183 12.3314 13.25 11.9999 13.25ZM15.9999 13.25C15.7527 13.25 15.511 13.1767 15.3054 13.0393C15.0999 12.902 14.9397 12.7067 14.8451 12.4783C14.7505 12.2499 14.7257 11.9986 14.7739 11.7561C14.8222 11.5136 14.9412 11.2909 15.116 11.1161C15.2908 10.9413 15.5136 10.8222 15.756 10.774C15.9985 10.7258 16.2499 10.7505 16.4783 10.8451C16.7067 10.9397 16.9019 11.1 17.0392 11.3055C17.1766 11.5111 17.2499 11.7528 17.2499 12C17.2499 12.3315 17.1182 12.6494 16.8838 12.8839C16.6494 13.1183 16.3314 13.25 15.9999 13.25Z" fill="#6FC457"/>
</svg>
