<svg width="26" height="28" viewBox="0 0 26 28" fill="none" xmlns="http://www.w3.org/2000/svg">
<g clip-path="url(#clip0_106_39)">
<path d="M14.3303 3.13578C13.95 2.81716 13.4819 2.64417 13 2.64417C12.5181 2.64417 12.05 2.81716 11.6697 3.13578L2.58701 10.7425C1.77234 11.4273 2.22084 12.8331 3.25326 12.8331H4.33334V22.1664C4.33334 22.7853 4.56162 23.3788 4.96795 23.8164C5.37427 24.254 5.92537 24.4998 6.50001 24.4998H10.8333V17.4998C10.8333 16.8809 11.0616 16.2875 11.4679 15.8499C11.8743 15.4123 12.4254 15.1665 13 15.1665C13.5746 15.1665 14.1257 15.4123 14.5321 15.8499C14.9384 16.2875 15.1667 16.8809 15.1667 17.4998V24.4998H19.5C20.0746 24.4998 20.6257 24.254 21.0321 23.8164C21.4384 23.3788 21.6667 22.7853 21.6667 22.1664V12.8331H22.7468C23.7781 12.8331 24.2288 11.4273 23.413 10.7436L14.3303 3.13578Z" fill="#6FC457"/>
</g>
<defs>
<clipPath id="clip0_106_39">
<rect width="26" height="28" fill="white"/>
</clipPath>
</defs>
</svg>
