<svg width="26" height="28" viewBox="0 0 26 28" fill="none" xmlns="http://www.w3.org/2000/svg">
<g clip-path="url(#clip0_125_55)">
<path d="M14.3303 3.13566C13.95 2.81703 13.4819 2.64404 13 2.64404C12.5181 2.64404 12.05 2.81703 11.6697 3.13566L2.58701 10.7423C1.77234 11.4272 2.22084 12.833 3.25326 12.833H4.33334V22.1663C4.33334 22.7852 4.56162 23.3787 4.96795 23.8162C5.37427 24.2538 5.92537 24.4997 6.50001 24.4997H10.8333V17.4997C10.8333 16.8808 11.0616 16.2873 11.4679 15.8497C11.8743 15.4122 12.4254 15.1663 13 15.1663C13.5746 15.1663 14.1257 15.4122 14.5321 15.8497C14.9384 16.2873 15.1667 16.8808 15.1667 17.4997V24.4997H19.5C20.0746 24.4997 20.6257 24.2538 21.0321 23.8162C21.4384 23.3787 21.6667 22.7852 21.6667 22.1663V12.833H22.7468C23.7781 12.833 24.2288 11.4272 23.413 10.7435L14.3303 3.13566Z" fill="#979797"/>
</g>
<defs>
<clipPath id="clip0_125_55">
<rect width="26" height="28" fill="white"/>
</clipPath>
</defs>
</svg>
