<?xml version="1.0" encoding="UTF-8" standalone="no"?>
<svg
   width="34"
   height="24"
   viewBox="0 0 34 24"
   fill="none"
   version="1.1"
   id="svg6"
   sodipodi:docname="loan_market_active.svg"
   inkscape:version="1.3.2 (091e20e, 2023-11-25, custom)"
   xmlns:inkscape="http://www.inkscape.org/namespaces/inkscape"
   xmlns:sodipodi="http://sodipodi.sourceforge.net/DTD/sodipodi-0.dtd"
   xmlns="http://www.w3.org/2000/svg"
   xmlns:svg="http://www.w3.org/2000/svg">
  <defs
     id="defs6" />
  <sodipodi:namedview
     id="namedview6"
     pagecolor="#ffffff"
     bordercolor="#000000"
     borderopacity="0.25"
     inkscape:showpageshadow="2"
     inkscape:pageopacity="0.0"
     inkscape:pagecheckerboard="0"
     inkscape:deskcolor="#d1d1d1"
     inkscape:zoom="16.1875"
     inkscape:cx="16.988417"
     inkscape:cy="12.015444"
     inkscape:window-width="1920"
     inkscape:window-height="991"
     inkscape:window-x="-9"
     inkscape:window-y="-9"
     inkscape:window-maximized="1"
     inkscape:current-layer="svg6" />
  <path
     id="path4"
     style="fill:#6fc457;fill-opacity:1"
     d="m 14.25,0 c -0.07989,7.6964923e-4 -0.158772,0.01884874 -0.232422,0.0546875 L 4.8398438,4.5214844 C 4.6524139,4.6127543 4.5332031,4.803249 4.5332031,5.0117188 v 1.9921874 c 0,0.3009297 0.2439922,0.5449219 0.5449219,0.5449219 h 1.75 V 10.09375 H 1.3574219 c -0.3009197,0 -0.5449219,0.244022 -0.5449219,0.544922 v 2.380859 c 0,0.3009 0.2440022,0.544922 0.5449219,0.544922 h 1.5097656 v 2.832031 c 0,0.301 0.2439922,0.544922 0.5449219,0.544922 0.3009397,0 0.5449218,-0.243922 0.5449218,-0.544922 V 13.564453 H 6.828125 v 2.744141 c 0,0.300899 0.2439922,0.544922 0.5449219,0.544922 0.3009397,0 0.5449219,-0.244023 0.5449219,-0.544922 V 7.5488281 h 3.4980472 v 8.7597659 c 0,0.300899 0.244022,0.544922 0.544922,0.544922 0.300899,0 0.544921,-0.244023 0.544921,-0.544922 V 7.5488281 h 3.498047 v 8.7597659 c 0,0.300899 0.244022,0.544922 0.544922,0.544922 0.3009,0 0.544922,-0.244023 0.544922,-0.544922 V 7.5488281 h 3.5 v 1.4453125 c 0,0.3009297 0.244022,0.5449219 0.544922,0.5449219 0.3009,0 0.542969,-0.2439922 0.542969,-0.5449219 V 7.5488281 h 1.75 c 0.300899,0 0.544921,-0.2439922 0.544921,-0.5449219 V 4.7949219 c 10e-7,-0.2122498 -0.123806,-0.4049207 -0.316406,-0.4941407 L 14.484375,0.05078125 C 14.410075,0.01635918 14.329887,-7.6964923e-4 14.25,0 Z M 2.0917969,18.015625 c -0.3008997,0 -0.5449219,0.244022 -0.5449219,0.544922 0,0.301 0.2440222,0.544922 0.5449219,0.544922 H 16.548828 c 0.3009,0 0.544922,-0.243922 0.544922,-0.544922 0,-0.3009 -0.244022,-0.544922 -0.544922,-0.544922 z m -1.12500002,2.380859 c -0.3009227,0 -0.54492188,0.243923 -0.54492188,0.544922 0,0.3009 0.24399918,0.544922 0.54492188,0.544922 H 18.324219 c 0.300899,0 0.544922,-0.244022 0.544922,-0.544922 0,-0.300999 -0.244023,-0.544922 -0.544922,-0.544922 z M 26.021484,8.8867188 c -4.173395,0 -7.55664,3.3832452 -7.55664,7.5566402 0,4.173396 3.383245,7.556641 7.55664,7.556641 4.173496,0 7.556641,-3.383245 7.556641,-7.556641 0,-4.173395 -3.383145,-7.5566402 -7.556641,-7.5566402 z m -2.345703,3.3359372 c 1.018999,0 1.845703,0.826704 1.845703,1.845703 0,1.018999 -0.826704,1.84375 -1.845703,1.84375 -1.018999,0 -1.84375,-0.824751 -1.84375,-1.84375 0,-1.018999 0.824751,-1.845703 1.84375,-1.845703 z m 0,1.089844 c -0.417199,0 -0.753906,0.33866 -0.753906,0.755859 0,0.4172 0.336707,0.753907 0.753906,0.753907 0.4171,0 0.75586,-0.336707 0.75586,-0.753907 0,-0.417199 -0.33876,-0.755859 -0.75586,-0.755859 z m 4.621094,3.814453 c 1.018999,0 1.845703,0.824751 1.845703,1.84375 0,1.018999 -0.826704,1.845703 -1.845703,1.845703 -1.018899,0 -1.845703,-0.826704 -1.845703,-1.845703 0,-1.018999 0.826804,-1.84375 1.845703,-1.84375 z m 0,1.087891 c -0.4171,0 -0.755859,0.33876 -0.755859,0.755859 0,0.4172 0.338759,0.755859 0.755859,0.755859 0.4171,0 0.755859,-0.338659 0.755859,-0.755859 0,-0.417099 -0.338759,-0.755859 -0.755859,-0.755859 z" />
</svg>
