<?xml version="1.0" encoding="UTF-8" standalone="no"?>
<svg
   width="34"
   height="24"
   viewBox="0 0 34 24"
   fill="none"
   version="1.1"
   id="svg6"
   sodipodi:docname="loan_market_inactive.svg"
   inkscape:version="1.3.2 (091e20e, 2023-11-25, custom)"
   xmlns:inkscape="http://www.inkscape.org/namespaces/inkscape"
   xmlns:sodipodi="http://sodipodi.sourceforge.net/DTD/sodipodi-0.dtd"
   xmlns="http://www.w3.org/2000/svg"
   xmlns:svg="http://www.w3.org/2000/svg">
  <defs
     id="defs6" />
  <sodipodi:namedview
     id="namedview6"
     pagecolor="#ffffff"
     bordercolor="#000000"
     borderopacity="0.25"
     inkscape:showpageshadow="2"
     inkscape:pageopacity="0.0"
     inkscape:pagecheckerboard="0"
     inkscape:deskcolor="#d1d1d1"
     inkscape:zoom="32.375"
     inkscape:cx="16.988417"
     inkscape:cy="12"
     inkscape:window-width="1920"
     inkscape:window-height="991"
     inkscape:window-x="-9"
     inkscape:window-y="-9"
     inkscape:window-maximized="1"
     inkscape:current-layer="svg6" />
  <path
     id="path6"
     d="m 0.966989,20.3965 c -0.300924,0 -0.54487,0.2439 -0.54487,0.5449 0,0.3009 0.243946,0.5448 0.54487,0.5448 H 18.3242 c 0.3009,0 0.5449,-0.2439 0.5449,-0.5448 0,-0.301 -0.244,-0.5449 -0.5449,-0.5449 z M 2.09236,18.0157 c -0.30091,0 -0.54487,0.244 -0.54487,0.5449 0,0.3009 0.24396,0.5449 0.54487,0.5449 H 16.5495 c 0.3009,0 0.5449,-0.244 0.5449,-0.5449 0,-0.3009 -0.244,-0.5449 -0.5449,-0.5449 z M 14.017,0.0549686 c 0.1472,-0.0716776 0.3189,-0.0733395 0.4675,-0.0044953 L 23.6609,4.30125 c 0.1926,0.08922 0.3158,0.28216 0.3158,0.49441 v 2.20738 c 0,0.30093 -0.2439,0.54487 -0.5449,0.54487 h -1.7492 v 1.44622 c 0,0.30093 -0.2439,0.54487 -0.5448,0.54487 -0.301,0 -0.5449,-0.24394 -0.5449,-0.54487 V 7.54791 h -3.4985 v 8.76139 c 0,0.3009 -0.2439,0.5449 -0.5448,0.5449 -0.301,0 -0.5449,-0.244 -0.5449,-0.5449 V 7.54791 h -3.4985 v 8.76139 c 0,0.3009 -0.2439,0.5449 -0.5448,0.5449 -0.3009,0 -0.5449,-0.244 -0.5449,-0.5449 V 7.54791 H 7.91805 v 8.76139 c 0,0.3009 -0.24394,0.5449 -0.54487,0.5449 -0.30094,0 -0.54487,-0.244 -0.54487,-0.5449 v -2.7445 h -2.8709 v 2.8313 c 0,0.301 -0.24393,0.5449 -0.54486,0.5449 -0.30094,0 -0.54487,-0.2439 -0.54487,-0.5449 V 13.5648 H 1.35652 c -0.30093,0 -0.544874,-0.244 -0.544874,-0.5449 v -2.3806 c 0,-0.3009 0.243944,-0.5448 0.544874,-0.5448 H 6.82831 V 7.54791 H 5.07908 c -0.30093,0 -0.54487,-0.24394 -0.54487,-0.54487 V 5.012 c 0,-0.20847 0.11895,-0.39865 0.30638,-0.48992 z m 12.004484,8.8317502 c -4.173495,-1e-7 -7.55664,3.3832452 -7.55664,7.5566402 0,4.173496 3.383145,7.556641 7.55664,7.556641 4.173396,0 7.556641,-3.383145 7.556641,-7.556641 0,-4.173395 -3.383245,-7.5566402 -7.556641,-7.5566402 z m -2.345703,3.3359372 c 1.018999,0 1.845703,0.826704 1.845703,1.845703 0,1.018999 -0.826704,1.84375 -1.845703,1.84375 -1.018999,0 -1.84375,-0.824751 -1.84375,-1.84375 0,-1.018999 0.824751,-1.845703 1.84375,-1.845703 z m 4.855469,0.03711 c 0.104933,0.0023 0.210672,0.03635 0.302734,0.101562 0.2457,0.1739 0.30476,0.514166 0.13086,0.759766 l -5.152344,7.27539 c -0.1739,0.2456 -0.514166,0.302806 -0.759766,0.128907 -0.245599,-0.1739 -0.302806,-0.514166 -0.128906,-0.759766 l 5.150391,-7.275391 c 0.108687,-0.153499 0.282143,-0.234288 0.457031,-0.230468 z m -0.234375,4.867187 c 1.018899,0 1.845703,0.824751 1.845703,1.84375 0,1.018999 -0.826804,1.845703 -1.845703,1.845703 -1.018899,0 -1.845703,-0.826704 -1.845703,-1.845703 0,-1.018999 0.826804,-1.84375 1.845703,-1.84375 z m -0.03906,1.089844 c -0.399036,0.02023 -0.716796,0.349744 -0.716796,0.753906 0,0.417099 0.33876,0.755859 0.755859,0.755859 0.417099,10e-7 0.755859,-0.33876 0.755859,-0.755859 0,-0.417199 -0.33876,-0.753906 -0.755859,-0.753906 -0.01303,0 -0.02619,-6.53e-4 -0.03906,0 z M 23.675781,13.3125 c -0.417099,0 -0.753906,0.33876 -0.753906,0.755859 0,0.4172 0.336807,0.753907 0.753906,0.753907 0.417199,0 0.75586,-0.336707 0.75586,-0.753907 0,-0.417099 -0.338661,-0.755859 -0.75586,-0.755859 z"
     style="fill:#6fc457;fill-opacity:1" />
</svg>
