<svg width="24" height="24" viewBox="0 0 24 24" fill="none" xmlns="http://www.w3.org/2000/svg">
<path d="M7.58897 6.1606C7.58897 5.77946 7.91101 5.45747 8.29215 5.45747H15.8901C16.2712 5.45747 16.5932 5.77946 16.5932 6.1606C16.5932 6.54174 16.2712 6.86372 15.8901 6.86372H8.29215C7.91101 6.86372 7.58897 6.54174 7.58897 6.1606ZM9.90441 14.445V13.8856C9.90441 13.7474 9.78769 13.6306 9.64951 13.6306C9.51132 13.6306 9.3946 13.7474 9.3946 13.8856V14.445C9.3946 14.5831 9.51132 14.6999 9.64951 14.6999C9.78769 14.6999 9.90441 14.5831 9.90441 14.445ZM8.87607 4.22457H15.3061L16.2318 1.8098C16.3261 1.56385 16.3513 1.41615 16.3568 1.33857C16.1595 1.30224 15.7363 1.34621 15.5187 1.3688C15.3188 1.38957 15.1299 1.40916 14.9528 1.41165C13.9611 1.42543 13.3392 1.01424 12.8851 0.714334C12.5424 0.488021 12.3509 0.370177 12.1046 0.37524L12.0904 0.375521L12.0761 0.37524C11.8295 0.368912 11.6395 0.487927 11.2974 0.714006C10.8433 1.0141 10.2197 1.4258 9.22965 1.41169C9.05227 1.40921 8.86346 1.38961 8.66354 1.36885C8.44585 1.34626 8.02276 1.30224 7.82541 1.33861C7.83085 1.41615 7.85612 1.5639 7.95043 1.8099L8.87612 4.22462L8.87607 4.22457ZM14.3492 16.7399C14.2111 16.7399 14.0943 16.8566 14.0943 16.9948V17.5542C14.0943 17.6917 14.2111 17.8078 14.3492 17.8078C14.4874 17.8078 14.6041 17.6917 14.6041 17.5542V16.9948C14.6041 16.8566 14.4874 16.7399 14.3492 16.7399ZM19.2674 11.0153C20.6114 13.0227 21.4137 15.3931 21.4137 17.3561C21.4137 19.1796 20.7652 20.6336 19.4861 21.6777C17.903 22.9698 15.3844 23.6251 12.0004 23.6251C8.61633 23.6251 6.09732 22.9698 4.51412 21.6774C3.23494 20.6333 2.58633 19.1791 2.58633 17.3553C2.58633 15.3923 3.38855 13.0222 4.73227 11.015C6.07472 9.00985 7.44202 8.09654 8.14426 8.09654H15.8549C16.5572 8.09654 17.9247 9.00994 19.2674 11.0153ZM9.64951 16.1061C10.5654 16.1061 11.3107 15.3609 11.3107 14.4449V13.8855C11.3107 12.9695 10.5655 12.2243 9.64951 12.2243C8.73352 12.2243 7.98835 12.9695 7.98835 13.8855V14.4449C7.98835 15.3609 8.73352 16.1061 9.64951 16.1061ZM14.611 13.3428C14.8404 13.0295 14.7723 12.5895 14.459 12.3601C14.1457 12.1308 13.7057 12.1988 13.4763 12.5122L9.38912 18.0955C9.15971 18.4089 9.22782 18.8489 9.54113 19.0782C9.66633 19.1699 9.81174 19.214 9.95593 19.214C10.1724 19.214 10.3861 19.1143 10.5238 18.9262L14.611 13.3428V13.3428ZM16.0104 16.9948C16.0104 16.0788 15.2652 15.3336 14.3492 15.3336C13.4333 15.3336 12.6881 16.0788 12.6881 16.9948V17.5542C12.6881 18.4694 13.4333 19.214 14.3492 19.214C15.2652 19.214 16.0104 18.4694 16.0104 17.5542V16.9948Z" fill="#6BC752"/>
</svg>
