<svg width="130" height="146" viewBox="0 0 130 146" fill="none" xmlns="http://www.w3.org/2000/svg">
<path d="M60.0725 1.26843C60.2468 1.26804 60.2468 1.26804 60.4248 1.26765C60.5534 1.26782 60.6821 1.26801 60.8107 1.26821C60.9467 1.26808 61.0818 1.26792 61.2177 1.26772C61.5855 1.26731 61.9532 1.26747 62.3218 1.26776C62.7069 1.26799 63.0911 1.26777 63.4716 1.26763C64.1176 1.26746 64.7673 1.26768 65.4061 1.26812C66.1534 1.26861 66.9026 1.26845 67.6508 1.26795C68.2923 1.26754 68.9375 1.26748 69.5762 1.26772C69.9595 1.26786 70.3427 1.26788 70.726 1.26758C71.0855 1.26731 71.4459 1.26749 71.8027 1.26802C71.935 1.26814 72.0673 1.26811 72.1997 1.26791C72.3794 1.26766 72.5601 1.26802 72.7399 1.26842C72.8913 1.26848 72.8913 1.26848 73.0455 1.26853C73.2819 1.28003 73.2819 1.28003 73.4644 1.37164V2.01039C73.6003 1.96522 73.6003 1.96522 73.7381 1.91914C73.8704 1.91067 74.0037 1.90719 74.1369 1.90701C74.2168 1.90683 74.2966 1.90665 74.3787 1.90647C74.4647 1.90688 74.5503 1.90729 74.6388 1.90772C74.7276 1.9079 74.8167 1.90807 74.908 1.90826C75.6069 1.91232 76.3041 1.938 76.9976 1.97788C77.4575 2.00379 77.9101 2.01228 78.3755 2.00306C78.5707 2.01037 78.5707 2.01037 78.8445 2.10161V2.74036H79.1182C79.1483 2.68014 79.1785 2.61991 79.2095 2.55786C79.5946 2.56863 79.9796 2.58004 80.3684 2.59181C80.4988 2.59576 80.6302 2.59957 80.7607 2.60322C80.9487 2.60849 81.1376 2.61426 81.3256 2.62019C81.4953 2.62521 81.4953 2.62521 81.6687 2.63032C81.9506 2.64902 81.9506 2.64902 82.2244 2.74073V3.37948C82.3147 3.34937 82.4051 3.31925 82.4981 3.28823C82.7582 3.29395 83.0146 3.30511 83.2738 3.32245C83.3442 3.32644 83.4143 3.33045 83.4873 3.33458C83.7829 3.35302 84.0412 3.37665 84.3231 3.47055V4.1093C84.4135 4.07918 84.5038 4.04907 84.5969 4.01805C84.8414 4.00925 85.0823 4.00536 85.3269 4.00664C85.3929 4.00629 85.4592 4.00594 85.5276 4.00557C85.8196 4.00611 86.0523 4.01643 86.3306 4.1096V4.74835C86.4657 4.70318 86.4657 4.70318 86.6044 4.6571C86.8489 4.6483 87.0898 4.64441 87.3344 4.64569C87.4004 4.64534 87.4667 4.64499 87.5351 4.64462C87.8271 4.64516 88.0598 4.65548 88.3381 4.74865V5.47865C88.4732 5.43348 88.4732 5.43348 88.6119 5.3874C88.7488 5.37898 88.8856 5.37554 89.0225 5.37599C89.093 5.37576 89.1639 5.37552 89.236 5.37528C89.4331 5.38742 89.4331 5.38742 89.7069 5.47839V6.11714C89.8419 6.07197 89.8419 6.07197 89.9806 6.02589C90.1175 6.01747 90.2544 6.01403 90.3913 6.01449C90.4618 6.01425 90.5327 6.01402 90.6048 6.01377C90.8019 6.02591 90.8019 6.02591 91.0756 6.11689V6.75564C91.1833 6.73684 91.2901 6.71804 91.4005 6.6986C91.7965 6.64714 92.0703 6.71457 92.4407 6.84643V7.48518C92.5758 7.44001 92.5758 7.44001 92.7145 7.39393C92.9435 7.38515 93.1698 7.38125 93.3989 7.38252C93.4606 7.38217 93.522 7.38182 93.5859 7.38146C93.8679 7.38201 94.0878 7.39533 94.357 7.48548C94.3683 7.58859 94.3795 7.69262 94.3912 7.79938C94.41 7.90706 94.4288 8.01382 94.4482 8.12423C94.5085 8.15434 94.5687 8.18446 94.6307 8.21548C94.6608 8.15526 94.691 8.09503 94.722 8.03298C94.8725 8.09321 95.0231 8.15343 95.1782 8.21548V8.85423H95.452C95.4821 8.79401 95.5122 8.73378 95.5432 8.67173C95.9949 8.76207 95.9949 8.76207 96.4557 8.85423V9.49298C96.5087 9.48428 96.5616 9.47555 96.6163 9.46661C97.0726 9.40182 97.3901 9.39489 97.8208 9.58432V10.2231H98.0946C98.1247 10.1628 98.1548 10.1026 98.1858 10.0406C98.4568 10.1008 98.7279 10.161 99.0071 10.2231V10.8618H99.3721C99.4022 10.8016 99.4323 10.7414 99.4633 10.6793C99.5537 10.7395 99.644 10.7998 99.7371 10.8618C99.7999 11.1931 99.7999 11.1931 99.8283 11.5006C99.9053 11.4995 99.9825 11.4985 100.061 11.4974C100.161 11.4965 100.261 11.4957 100.364 11.4949C100.514 11.4933 100.514 11.4933 100.665 11.4917C100.922 11.5006 100.922 11.5006 101.105 11.592V12.2308L101.368 12.1795C101.652 12.1395 101.652 12.1395 101.835 12.2308V12.9608H102.2C102.23 12.9006 102.26 12.8403 102.291 12.7783C102.562 12.8385 102.833 12.8987 103.112 12.9608V13.5995C103.216 13.5742 103.216 13.5742 103.323 13.5483C103.569 13.5083 103.569 13.5083 103.842 13.5995C103.873 13.8103 103.903 14.0211 103.934 14.2383C104.144 14.2684 104.355 14.2985 104.572 14.3295V14.9683C104.62 14.9532 104.666 14.9382 104.715 14.9227C105.108 14.8419 105.468 14.8412 105.846 14.9683V15.607C105.916 15.5882 105.986 15.5694 106.057 15.55C106.303 15.5158 106.303 15.5158 106.576 15.6978C106.593 16.0282 106.593 16.0282 106.576 16.3366H107.215V16.9753C107.366 16.9452 107.516 16.9151 107.671 16.8841V17.0666H107.945V17.7053C108.156 17.7354 108.367 17.7656 108.584 17.7966V18.3441L108.847 18.3384C109.131 18.3441 109.131 18.3441 109.314 18.4351V19.0738H109.953V19.7126H110.591V20.3513H111.321V21.0813H111.96V21.7201L112.223 21.7144C112.508 21.7201 112.508 21.7201 112.69 21.8111V22.4499H113.329V23.0886C113.484 23.0858 113.484 23.0858 113.643 23.0829C113.968 23.0886 113.968 23.0886 114.059 23.1796C114.062 23.3923 114.063 23.6058 114.059 23.8184H114.698C114.728 24.24 114.758 24.6615 114.789 25.0959H115.336C115.366 25.3067 115.396 25.5175 115.428 25.7346C115.638 25.7648 115.849 25.7949 116.066 25.8259C116.096 26.0367 116.126 26.2475 116.158 26.4646C116.338 26.4948 116.519 26.5249 116.705 26.5559C116.735 26.9775 116.765 27.399 116.796 27.8334H117.435V28.5634H118.074C118.104 28.7742 118.134 28.985 118.165 29.2021C118.346 29.2323 118.526 29.2624 118.713 29.2934C118.743 29.715 118.773 30.1365 118.804 30.5709H119.443C119.473 30.9925 119.503 31.414 119.534 31.8484C119.714 31.8785 119.895 31.9086 120.081 31.9396C120.111 32.1504 120.141 32.3612 120.173 32.5784C120.383 32.6085 120.594 32.6386 120.811 32.6696V33.9471C121.022 33.9773 121.233 34.0074 121.45 34.0384V35.3159C121.601 35.2858 121.751 35.2557 121.906 35.2246C121.997 35.2548 122.087 35.2849 122.18 35.3159V36.6846H122.819V38.0534C122.969 38.0233 123.12 37.9932 123.275 37.9621C123.365 37.9923 123.456 38.0224 123.549 38.0534V39.4221H124.096C124.172 39.882 124.198 40.3173 124.193 40.7818C124.193 40.8442 124.192 40.9068 124.192 40.9707C124.191 41.1221 124.189 41.2745 124.187 41.426C124.259 41.409 124.331 41.3921 124.404 41.3747C124.644 41.3347 124.644 41.3347 124.826 41.426V42.7947H125.465V44.8022H126.104C126.134 45.4948 126.164 46.1892 126.195 46.901H126.834V48.9085H127.472C127.502 50.0217 127.533 51.135 127.564 52.2847H128.111C128.192 52.7738 128.218 53.2429 128.221 53.7447C128.222 53.824 128.223 53.9035 128.224 53.9847C128.227 54.2448 128.229 54.5049 128.232 54.7649C128.233 54.9465 128.235 55.1272 128.237 55.3088C128.242 55.7842 128.247 56.2578 128.251 56.7323C128.256 57.2177 128.261 57.6995 128.266 58.1923C128.276 59.1413 128.285 60.0994 128.294 61.0484H128.842C128.844 62.189 128.845 63.3296 128.846 64.4703C128.847 64.9995 128.847 65.5288 128.848 66.058C128.849 66.569 128.85 67.08 128.85 67.591C128.85 67.7863 128.851 67.9816 128.851 68.1768C128.852 68.4497 128.852 68.7216 128.852 68.9944C128.852 69.076 128.853 69.1578 128.853 69.2417C128.852 69.7984 128.852 69.7984 128.751 69.9006C128.568 69.9043 128.386 69.9044 128.203 69.9006C128.204 69.9608 128.204 70.021 128.205 70.0831C128.207 70.3586 128.208 70.6342 128.209 70.9098C128.21 71.0047 128.21 71.0996 128.211 71.1972C128.213 71.6881 128.199 72.1553 128.112 72.639H127.564C127.534 74.2085 127.504 75.7688 127.473 77.384C127.292 77.4141 127.112 77.4442 126.925 77.4752C126.895 78.5885 126.865 79.7017 126.834 80.8515H126.195C126.193 80.9284 126.191 81.0057 126.189 81.0842C126.18 81.3689 126.171 81.6536 126.162 81.9373C126.158 82.0605 126.154 82.1837 126.15 82.3069C126.145 82.4839 126.139 82.661 126.133 82.838C126.13 82.9447 126.126 83.0515 126.123 83.161C126.104 83.4056 126.104 83.4056 126.013 83.4968C125.83 83.5005 125.648 83.5007 125.465 83.4968C125.466 83.5544 125.466 83.6118 125.467 83.6711C125.468 83.9302 125.47 84.1894 125.471 84.4495C125.472 84.5401 125.472 84.631 125.473 84.7241C125.473 84.8103 125.474 84.8966 125.474 84.9851C125.475 85.0649 125.475 85.1448 125.475 85.2269C125.465 85.4131 125.465 85.4131 125.374 85.5043C125.192 85.508 125.009 85.5082 124.827 85.5043C124.828 85.6019 124.829 85.7005 124.83 85.8009C124.831 85.9323 124.832 86.0628 124.832 86.1942C124.833 86.2584 124.834 86.3228 124.835 86.3885C124.837 86.8028 124.804 87.1933 124.735 87.6021H124.188V88.9709H123.549C123.55 89.0631 123.551 89.1561 123.552 89.251C123.553 89.3742 123.554 89.4974 123.555 89.6206C123.555 89.6813 123.556 89.742 123.557 89.8049C123.559 90.1763 123.53 90.5231 123.458 90.8908C123.247 90.9209 123.036 90.951 122.819 90.982V92.3508H122.18V93.7195H121.45V95.0883H120.811V96.3658C120.601 96.3959 120.39 96.426 120.173 96.457C120.142 96.8485 120.112 97.24 120.081 97.6433C119.871 97.6734 119.66 97.7035 119.443 97.7345V98.3733C119.232 98.4034 119.021 98.4335 118.804 98.4645V99.742C118.563 99.7722 118.322 99.8023 118.074 99.8333V100.472C117.863 100.502 117.652 100.532 117.435 100.563V101.841H116.705V102.571H116.066C116.036 102.992 116.006 103.414 115.975 103.848C115.794 103.878 115.614 103.909 115.428 103.94C115.397 104.15 115.367 104.361 115.336 104.578H114.698V105.217H114.059V105.947H113.329V106.677H112.69C112.66 107.099 112.63 107.52 112.599 107.955H111.96V108.593H111.321V109.323H110.591V109.962H109.953V110.692H109.314V111.331H108.584V112.061H107.945V112.608C107.698 112.731 107.488 112.706 107.215 112.7V113.338C106.793 113.368 106.372 113.399 105.938 113.43C105.907 114.333 105.877 115.236 105.846 116.167H106.576V117.536H107.215V118.175C107.319 118.146 107.319 118.146 107.426 118.118C107.671 118.083 107.671 118.083 107.945 118.265C107.972 118.563 107.972 118.563 107.962 118.915C107.96 119.032 107.957 119.149 107.955 119.269C107.952 119.359 107.948 119.449 107.945 119.542H108.584V120.181H109.223C109.3 120.644 109.322 121.079 109.314 121.549H109.953V122.279H110.591C110.622 122.701 110.652 123.123 110.683 123.557H111.321V124.287H111.96C111.99 124.709 112.02 125.13 112.051 125.564H112.599C112.69 125.656 112.69 125.656 112.696 125.981C112.694 126.084 112.692 126.188 112.69 126.294H113.329V127.024H113.967C114.045 127.488 114.067 127.923 114.059 128.393H114.697V129.032H115.336C115.366 129.454 115.396 129.875 115.427 130.309C115.638 130.34 115.849 130.37 116.066 130.401V131.131H116.705V132.408H117.344C117.435 132.499 117.435 132.499 117.44 132.824C117.439 132.927 117.437 133.031 117.435 133.138H118.073C118.104 133.56 118.134 133.981 118.165 134.416C118.375 134.446 118.586 134.476 118.803 134.507V135.237H119.442V136.514H120.081C120.111 136.936 120.141 137.358 120.172 137.792H120.811V138.522H121.45C121.48 138.974 121.51 139.425 121.541 139.891H122.18V140.621H122.818C122.849 141.042 122.879 141.464 122.91 141.898C123.12 141.928 123.331 141.958 123.548 141.989V143.267H124.187V143.997H124.826V144.544C124.374 144.575 123.923 144.605 123.457 144.636C123.427 144.425 123.397 144.214 123.366 143.997C122.944 143.967 122.523 143.937 122.088 143.906C122.058 143.725 122.028 143.544 121.997 143.358C121.606 143.328 121.214 143.298 120.811 143.267C120.781 143.056 120.751 142.845 120.72 142.628C120.452 142.539 120.267 142.53 119.99 142.537C119.973 142.405 119.973 142.405 119.955 142.269C119.927 142.13 119.927 142.13 119.898 141.989C119.658 141.869 119.471 141.889 119.203 141.893C119.066 141.894 119.066 141.894 118.926 141.895C118.855 141.896 118.785 141.897 118.712 141.898C118.682 141.688 118.652 141.477 118.621 141.26C118.025 141.168 118.025 141.168 117.435 141.26C117.374 141.049 117.314 140.838 117.252 140.621C116.861 140.591 116.469 140.561 116.066 140.53C116.036 140.319 116.006 140.108 115.975 139.891H115.336C115.31 139.788 115.283 139.684 115.256 139.577C115.222 139.469 115.188 139.363 115.154 139.252C114.913 139.132 114.727 139.152 114.459 139.155C114.322 139.157 114.322 139.157 114.181 139.158C114.111 139.159 114.041 139.16 113.968 139.161C113.938 138.95 113.907 138.74 113.876 138.522H112.599C112.569 138.251 112.539 137.98 112.508 137.701C112.086 137.731 111.664 137.761 111.23 137.792C111.2 137.582 111.17 137.371 111.139 137.154H109.953C109.923 136.883 109.892 136.612 109.861 136.332C109.651 136.362 109.44 136.393 109.223 136.424V135.785H107.945V135.146H106.576V134.416H105.299V133.869H105.116V133.686C104.936 133.716 104.755 133.746 104.569 133.777V133.139C104.409 133.123 104.25 133.108 104.09 133.093C104.001 133.085 103.912 133.076 103.821 133.067C103.614 133.051 103.407 133.047 103.2 133.047C103.17 132.837 103.14 132.626 103.109 132.409H101.831C101.801 132.168 101.771 131.927 101.74 131.679H100.554C100.494 131.468 100.433 131.257 100.371 131.04H99.8239C99.7938 130.829 99.7637 130.618 99.7326 130.401H98.4551C98.425 130.16 98.3949 129.919 98.3639 129.671H97.0864C97.0563 129.46 97.0262 129.25 96.9951 129.032C96.9106 129.033 96.8263 129.034 96.7387 129.036C96.5745 129.037 96.5745 129.037 96.4075 129.038C96.2989 129.039 96.1894 129.04 96.0772 129.041C95.8089 129.032 95.8089 129.032 95.7176 128.941C95.6841 128.728 95.6536 128.516 95.6264 128.302H94.4401C94.41 128.121 94.3799 127.941 94.3489 127.755C94.1381 127.725 93.9273 127.694 93.7101 127.663C93.68 127.453 93.6499 127.242 93.6189 127.025C93.4747 127.009 93.3296 126.994 93.1855 126.979C93.065 126.966 93.065 126.966 92.9418 126.953C92.6854 126.928 92.6854 126.928 92.3414 126.933C92.3113 126.723 92.2812 126.512 92.2501 126.295H90.9726C90.9425 126.054 90.9124 125.813 90.8814 125.565H90.3339C90.3038 125.384 90.2737 125.203 90.2426 125.017C90.0319 124.987 89.8211 124.957 89.6039 124.926C89.5926 124.823 89.5814 124.719 89.5697 124.612C89.5509 124.504 89.532 124.398 89.5126 124.287C89.3101 124.169 89.3101 124.169 88.9651 124.196C88.935 123.774 88.9049 123.353 88.8739 122.918H88.2351C88.2307 122.827 88.2262 122.736 88.2216 122.642C88.2148 122.524 88.208 122.407 88.2009 122.285C88.1946 122.167 88.1882 122.05 88.1817 121.929C88.1692 121.834 88.1568 121.739 88.1439 121.641C87.9413 121.522 87.9413 121.522 87.5964 121.55C87.5663 121.098 87.5362 120.646 87.5051 120.181H86.9576C86.9275 119.699 86.8974 119.214 86.8664 118.721C86.6857 118.751 86.505 118.781 86.3189 118.812C86.3143 118.755 86.3098 118.697 86.305 118.638C86.2839 118.379 86.2615 118.12 86.2391 117.86C86.2319 117.769 86.2247 117.678 86.2173 117.585C86.2097 117.499 86.202 117.412 86.1942 117.324C86.1875 117.244 86.1807 117.164 86.1739 117.082C86.1615 117.021 86.1492 116.959 86.1364 116.896C85.9338 116.777 85.9338 116.777 85.5889 116.805C85.5776 116.702 85.5664 116.598 85.5547 116.491C85.5359 116.383 85.517 116.276 85.4976 116.166C85.2951 116.047 85.2951 116.047 84.9501 116.075C84.9456 116.017 84.941 115.96 84.9363 115.9C84.9152 115.641 84.8927 115.382 84.8703 115.122C84.8631 115.031 84.856 114.94 84.8486 114.847C84.8409 114.761 84.8333 114.675 84.8254 114.586C84.8187 114.507 84.812 114.427 84.8051 114.345C84.7927 114.283 84.7804 114.221 84.7676 114.158C84.5651 114.04 84.5651 114.04 84.2201 114.067V111.421C84.4309 111.391 84.6417 111.361 84.8589 111.33V110.691C85.3115 110.57 85.7632 110.591 86.2276 110.6V110.052C86.6802 109.932 87.1319 109.953 87.5964 109.961V109.413C88.0481 109.353 88.4998 109.293 88.9651 109.231V108.683C89.4177 108.563 89.8694 108.584 90.3339 108.592V108.045C90.7555 107.984 91.177 107.924 91.6114 107.862C91.6415 107.681 91.6716 107.501 91.7026 107.315C91.9134 107.285 92.1242 107.254 92.3414 107.223V106.676C92.7931 106.616 93.2448 106.555 93.7101 106.493V105.946C93.9209 105.916 94.1317 105.886 94.3489 105.855V105.307C94.7705 105.247 95.192 105.187 95.6264 105.125V104.668C96.1392 104.486 96.1392 104.486 96.4476 104.486V103.938C96.6584 103.908 96.8692 103.878 97.0864 103.847V103.208C97.3273 103.178 97.5682 103.148 97.8164 103.117V102.57C98.0272 102.54 98.238 102.509 98.4551 102.478V101.931C98.696 101.901 98.9369 101.871 99.1851 101.84V101.201C99.3959 101.171 99.6067 101.141 99.8239 101.11V100.562C100.005 100.532 100.185 100.502 100.371 100.471C100.432 100.26 100.492 100.049 100.554 99.8322C100.765 99.8021 100.975 99.7719 101.193 99.7409V99.1934C101.403 99.1633 101.614 99.1332 101.831 99.1022V98.5547C102.356 98.3722 102.356 98.3722 102.561 98.3722V97.8247C102.772 97.7946 102.983 97.7644 103.2 97.7334V97.0947C103.411 97.0646 103.622 97.0344 103.839 97.0034V96.4559C104.08 96.4258 104.321 96.3957 104.569 96.3647V95.0872C104.78 95.0571 104.99 95.0269 105.208 94.9959V94.4484C105.449 94.4183 105.689 94.3882 105.938 94.3572V93.7184C106.148 93.6883 106.359 93.6582 106.576 93.6272V92.3497C106.817 92.3196 107.058 92.2894 107.306 92.2584V91.0722C107.517 91.0421 107.728 91.0119 107.945 90.9809V90.3422C108.156 90.3121 108.367 90.2819 108.584 90.2509C108.614 89.8293 108.644 89.4078 108.675 88.9734C108.826 88.9433 108.976 88.9132 109.131 88.8822C109.162 88.4606 109.192 88.039 109.223 87.6047C109.403 87.5746 109.584 87.5444 109.77 87.5134C109.83 87.0918 109.891 86.6703 109.953 86.2359C110.163 86.2058 110.374 86.1757 110.591 86.1447V84.2284C110.772 84.1983 110.953 84.1682 111.139 84.1372C111.169 83.7156 111.199 83.294 111.23 82.8597C111.411 82.8296 111.591 82.7994 111.778 82.7684C111.86 82.3304 111.895 81.9006 111.92 81.4544C111.924 81.3873 111.928 81.3203 111.932 81.2509C111.942 81.0867 111.951 80.9224 111.96 80.7591C112.141 80.729 112.321 80.6989 112.507 80.6678C112.538 79.8247 112.568 78.9797 112.599 78.1128C112.779 78.0827 112.96 78.0526 113.146 78.0216C113.222 77.6192 113.254 77.2305 113.267 76.8262C113.269 76.7663 113.27 76.7067 113.272 76.6446C113.278 76.4548 113.284 76.265 113.289 76.0761C113.293 75.9466 113.297 75.817 113.301 75.6883C113.311 75.3726 113.32 75.0578 113.329 74.7393C113.51 74.7092 113.69 74.6791 113.877 74.6481C113.907 73.325 113.937 72.0018 113.968 70.6331C114.149 70.603 114.329 70.5729 114.515 70.5418C114.639 67.2203 114.656 63.8988 114.567 60.5956C114.564 60.4906 114.564 60.4906 114.561 60.383C114.556 60.1904 114.55 59.997 114.544 59.8044C114.541 59.6977 114.537 59.5909 114.534 59.4805C114.542 59.2506 114.542 59.2506 114.424 59.1529H113.967C113.937 57.8024 113.907 56.4428 113.876 55.0467H113.329C113.325 54.9563 113.325 54.9563 113.322 54.8642C113.311 54.5886 113.3 54.313 113.289 54.0374L113.278 53.75C113.258 53.2636 113.227 52.7919 113.146 52.3083H112.599C112.569 51.6157 112.539 50.9213 112.508 50.2095H111.96C111.93 49.547 111.9 48.8864 111.869 48.202H111.595H111.23C111.2 47.5395 111.17 46.8789 111.139 46.1945H110.591C110.561 45.7428 110.531 45.2911 110.5 44.8258H109.953L109.916 44.5493C109.9 44.4316 109.884 44.3138 109.867 44.1925C109.843 44.0164 109.843 44.0164 109.819 43.8366C109.801 43.5619 109.801 43.5619 109.679 43.457H109.222V42.0883H108.675C108.597 41.6247 108.575 41.1894 108.584 40.7195H107.945C107.915 40.5087 107.885 40.2979 107.854 40.0808C107.673 40.0506 107.492 40.0205 107.306 39.9895V38.712H106.576V37.3433H105.937V36.7958C105.834 36.7826 105.73 36.7694 105.623 36.7558C105.299 36.7045 105.299 36.7045 105.207 36.6134C105.201 36.4136 105.2 36.2138 105.202 36.0148C105.202 35.9053 105.203 35.7958 105.204 35.6836C105.205 35.599 105.206 35.5148 105.207 35.4272C104.996 35.3971 104.786 35.367 104.569 35.3359V34.6972H104.386C104.356 34.637 104.326 34.5767 104.295 34.5147C104.144 34.5448 103.994 34.5749 103.839 34.6059C103.778 34.365 103.718 34.1241 103.656 33.8759C103.505 33.9061 103.355 33.9362 103.2 33.9672C103.183 33.8121 103.183 33.8121 103.166 33.6533C103.147 33.5456 103.128 33.4389 103.109 33.3284C102.906 33.2098 102.906 33.2098 102.561 33.2372C102.55 33.1526 102.539 33.0684 102.528 32.9808C102.512 32.8713 102.497 32.7618 102.481 32.6495C102.466 32.541 102.452 32.4315 102.436 32.3192C102.417 32.2306 102.398 32.1422 102.379 32.0509C102.176 31.9323 102.176 31.9323 101.831 31.9597C101.801 31.7188 101.771 31.4779 101.74 31.2297H101.192C101.162 31.0189 101.132 30.8081 101.101 30.5909H100.827C100.705 30.563 100.583 30.533 100.462 30.4997C100.432 30.2889 100.402 30.0781 100.371 29.8609H99.8235C99.7934 29.6502 99.7633 29.4394 99.7323 29.2222H99.1848C99.0944 28.9813 99.0041 28.7404 98.911 28.4922H98.4548C98.4246 28.2513 98.3945 28.0104 98.3635 27.7622C98.1527 27.7923 97.9419 27.8224 97.7248 27.8534C97.6946 27.6728 97.6645 27.4921 97.6335 27.3059C97.4227 27.2457 97.2119 27.1855 96.9948 27.1234C96.9646 26.9428 96.9345 26.7621 96.9035 26.5759C96.512 26.5458 96.1206 26.5157 95.7173 26.4847C95.6871 26.2438 95.657 26.0029 95.626 25.7547H95.4435H95.0785C95.0183 25.5439 94.9581 25.3331 94.896 25.1159H94.3485C94.3184 24.9052 94.2883 24.6944 94.2573 24.4772C94.1277 24.4618 93.999 24.4466 93.8694 24.4316C93.7975 24.4231 93.7253 24.4146 93.6514 24.4059C93.4114 24.3804 93.4114 24.3804 93.071 24.3859C93.0108 24.1752 92.9506 23.9644 92.8885 23.7472H92.341C92.3109 23.5364 92.2808 23.3256 92.2498 23.1084H90.9723C90.9421 22.8675 90.912 22.6266 90.881 22.3784H90.2423C90.2121 22.1677 90.182 21.9569 90.151 21.7397H88.9648C88.9346 21.5289 88.9045 21.3181 88.8735 21.1009C88.4519 21.0708 88.0304 21.0407 87.596 21.0097C87.5659 20.7989 87.5358 20.5881 87.5048 20.3709H86.2273C86.1971 20.1602 86.167 19.9494 86.136 19.7322C86.0064 19.7142 85.8778 19.6973 85.7482 19.6809C85.6762 19.6714 85.604 19.6618 85.5301 19.6521C85.3148 19.641 85.1551 19.6688 84.9498 19.7323C84.8895 19.5215 84.8293 19.3107 84.7673 19.0935C84.3548 19.013 83.9661 18.9922 83.5445 18.9968C83.4304 18.9976 83.3173 18.9984 83.2005 18.9993C83.1146 19.0004 83.0289 19.0014 82.9404 19.0025V18.3638C82.278 18.3336 81.6173 18.3035 80.9329 18.2725C80.8727 18.0617 80.8125 17.8509 80.7504 17.6338H78.8342V17.0863C78.5331 16.9859 78.3113 16.985 77.9947 16.9859C77.8843 16.9862 77.7739 16.9865 77.6607 16.9868C77.5457 16.9875 77.4298 16.9883 77.3112 16.9891C77.1953 16.9895 77.0785 16.9899 76.959 16.9903C76.6716 16.9914 76.3841 16.9929 76.0967 16.9948C76.0666 16.784 76.0365 16.5732 76.0054 16.356C75.1449 16.2653 74.2899 16.2538 73.4322 16.2593C73.3008 16.2598 73.1694 16.2602 73.038 16.2606C72.7204 16.2616 72.4029 16.2631 72.089 16.265C72.0589 16.0542 72.0288 15.8435 71.9977 15.6263C70.0085 15.6241 68.0284 15.6225 66.0391 15.6215C65.1175 15.6211 64.1959 15.6204 63.2742 15.6194C62.4703 15.6185 61.6682 15.6179 60.8652 15.6177C60.44 15.6176 60.0139 15.6173 59.5877 15.6166C59.1871 15.616 58.7856 15.6158 58.3832 15.616C58.2363 15.6159 58.0894 15.6158 57.9425 15.6154C57.7417 15.615 57.5401 15.6151 57.3393 15.6153C57.2271 15.6152 57.1149 15.6151 56.999 15.6151C56.6394 15.6273 56.2954 15.6681 55.9405 15.7173C55.9104 15.8678 55.8802 16.0184 55.8492 16.1735C55.7679 16.1769 55.7679 16.1769 55.685 16.1804C55.4359 16.1911 55.1858 16.2022 54.9367 16.2135C54.8514 16.2171 54.7661 16.2206 54.6785 16.2243C54.1821 16.2469 53.693 16.287 53.2002 16.3557C53.1701 16.5665 53.14 16.7773 53.109 16.9945H50.3715V17.542C49.0575 17.6323 49.0575 17.6323 47.7252 17.7245V18.272C47.2735 18.3021 46.8219 18.3322 46.3565 18.3632V18.9107C45.9221 18.9977 45.5197 19.0093 45.079 19.002V19.5495C44.8645 19.6562 44.7185 19.659 44.4795 19.6699C44.3977 19.6737 44.3161 19.6776 44.2322 19.6815C44.1467 19.6851 44.0615 19.6887 43.973 19.6924C43.8868 19.6963 43.8006 19.7003 43.7121 19.7043C43.4985 19.714 43.2859 19.7233 43.0724 19.7323V20.2798C42.3953 20.3702 42.3953 20.3702 41.7036 20.4623V20.9186C41.387 21.0089 41.387 21.0089 41.0649 21.1011C41.0348 21.2818 41.0047 21.4624 40.9736 21.6486C40.522 21.6787 40.0703 21.7088 39.6049 21.7398V22.3786C39.1833 22.4087 38.7617 22.4388 38.3274 22.4698V23.0173C38.0865 23.0475 37.8456 23.0776 37.5974 23.1086V23.6561C36.965 23.7464 36.965 23.7464 36.3199 23.8386C36.2898 24.0494 36.2597 24.2602 36.2286 24.4773H35.5899C35.5918 24.5658 35.5937 24.6544 35.5956 24.7456C35.5899 25.0248 35.5899 25.0248 35.4989 25.1161C35.2863 25.1198 35.0727 25.12 34.8601 25.1161V25.7548C34.4385 25.785 34.017 25.8151 33.5826 25.8461V26.4848H32.8526V27.1236C32.6418 27.1537 32.431 27.1838 32.2139 27.2148C32.1838 27.4256 32.1536 27.6364 32.1226 27.8536H31.4839V28.4923C31.2731 28.5225 31.0623 28.5526 30.8451 28.5836C30.815 28.7944 30.7849 29.0052 30.7539 29.2223H30.1151V29.8611C29.9043 29.8912 29.6935 29.9213 29.4764 29.9523C29.4463 30.133 29.4161 30.3137 29.3851 30.4998C29.2044 30.53 29.0238 30.5601 28.8376 30.5911C28.8075 30.8019 28.7774 31.0127 28.7464 31.2298H28.1076V31.7773C28.0063 31.7943 27.9041 31.8112 27.7992 31.8286C27.6359 31.8936 27.6359 31.8936 27.4689 31.96C27.3283 32.2803 27.3283 32.2803 27.2864 32.5988H26.7389V33.055C26.6358 33.0871 26.5317 33.119 26.425 33.1517C26.2461 33.2185 26.2461 33.2185 26.1001 33.3288C26.0034 33.6564 26.0034 33.6564 26.0089 33.9675H25.3701C25.3729 34.1226 25.3729 34.1226 25.3758 34.2814C25.3701 34.6063 25.3701 34.6063 25.2791 34.6975H24.7316V35.8838C24.4907 35.9139 24.2498 35.944 24.0016 35.975V36.705H23.3629V37.9825C23.1521 38.0126 22.9413 38.0427 22.7241 38.0738C22.694 38.2846 22.6639 38.4953 22.6329 38.7125H21.9941V39.99C21.7532 40.0201 21.5123 40.0502 21.2641 40.0813V41.2675C21.0834 41.2976 20.9028 41.3277 20.7166 41.3588C20.6865 41.5997 20.6564 41.8406 20.6254 42.0888C20.4447 42.149 20.264 42.2092 20.0779 42.2713C20.0176 42.8735 19.9574 43.4758 19.8954 44.0963H19.3479C19.3177 44.548 19.2876 44.9996 19.2566 45.465H18.7091C18.679 45.9167 18.6489 46.3684 18.6179 46.8338H17.9791C17.949 47.5264 17.9189 48.2208 17.8879 48.9325H17.4316C17.2838 49.0803 17.3203 49.2482 17.3111 49.4517C17.3073 49.5379 17.3035 49.6242 17.2996 49.7127C17.296 49.8033 17.2924 49.8943 17.2887 49.9874C17.2828 50.1242 17.2828 50.1242 17.2767 50.2629C17.2671 50.4883 17.2578 50.7137 17.2487 50.94H16.61C16.5799 51.8434 16.5498 52.7468 16.5187 53.6775H15.9712C15.9411 54.9733 15.911 56.269 15.88 57.6013C15.6993 57.6615 15.5186 57.7217 15.3325 57.7838C15.223 58.5567 15.2294 59.3259 15.2312 60.1015C15.2312 60.253 15.2312 60.4036 15.2312 60.555C15.2311 60.9629 15.2317 61.3717 15.2323 61.7778C15.2329 62.2048 15.2329 62.6328 15.233 63.0644C15.2333 63.8729 15.2341 64.6795 15.235 65.4917C15.236 66.4133 15.2365 67.3349 15.237 68.2565C15.2379 70.1545 15.2395 72.0434 15.2416 73.9414C15.4523 73.9715 15.6631 74.0016 15.8803 74.0327V77.3177C16.0911 77.3478 16.3019 77.3779 16.5191 77.4089C16.6276 79.17 16.6276 79.17 16.6103 80.0552C16.8211 80.0853 17.0319 80.1154 17.2491 80.1464V82.0627C17.4598 82.0928 17.6706 82.1229 17.8878 82.1539C17.9179 82.7863 17.948 83.4223 17.9791 84.0702C18.1597 84.1003 18.3404 84.1304 18.5266 84.1614C18.6981 84.333 18.6534 84.6213 18.6689 84.8513C18.6765 84.9608 18.6842 85.0703 18.6921 85.1825C18.6976 85.2671 18.7031 85.3513 18.7089 85.4389C18.7822 85.4671 18.8558 85.4954 18.9315 85.5245C19.1651 85.6212 19.1651 85.6212 19.2564 85.7125C19.2636 85.8758 19.269 86.0392 19.2735 86.2034C19.2876 86.4744 19.2876 86.4744 19.3476 86.7162C19.6077 86.9152 19.6077 86.9152 19.8951 86.99C20.0119 87.2245 20.0165 87.4252 20.0375 87.6853C20.0451 87.7766 20.0528 87.8687 20.0606 87.9627C20.0662 88.0331 20.0717 88.1032 20.0774 88.1762C20.1508 88.2044 20.2244 88.2327 20.3001 88.2618C20.5337 88.3585 20.5337 88.3585 20.6249 88.4498C20.6315 88.6186 20.6326 88.7883 20.6306 88.9571C20.6298 89.0493 20.629 89.1415 20.6281 89.2373C20.6266 89.344 20.6266 89.344 20.6249 89.4535C20.7134 89.4817 20.802 89.51 20.8932 89.5391C21.1724 89.6359 21.1724 89.6359 21.2637 89.7271C21.2998 89.9105 21.3315 90.0958 21.3604 90.2801L21.4092 90.5858C21.4214 90.6638 21.4335 90.7418 21.4459 90.8221C21.6266 90.8823 21.8073 90.9426 21.9934 91.0046C21.9991 91.0912 22.0047 91.178 22.0106 91.2674C22.0473 91.4089 22.0473 91.4089 22.0847 91.5521C22.3064 91.679 22.3064 91.679 22.5409 91.7346C22.7125 91.9062 22.6678 92.1945 22.6833 92.4245C22.6909 92.534 22.6986 92.6435 22.7064 92.7557C22.712 92.8403 22.7175 92.9245 22.7232 93.0121C22.8309 93.0065 22.8309 93.0065 22.9404 93.0007C23.1795 93.0121 23.1795 93.0121 23.362 93.1942C23.3864 93.2544 23.4109 93.3146 23.4361 93.3767C23.5538 93.6166 23.5538 93.6166 24.0009 93.7417C24.031 94.1331 24.0611 94.5246 24.0922 94.9279C24.2728 94.9881 24.4535 95.0484 24.6397 95.1104C24.7039 95.292 24.7647 95.4745 24.8222 95.6579C25.0485 95.7829 25.0485 95.7829 25.2784 95.8404C25.3697 95.9317 25.3697 95.9317 25.3751 96.2109C25.3723 96.3432 25.3723 96.3432 25.3694 96.4792H26.0082C26.0383 96.6598 26.0684 96.8405 26.0994 97.0267C26.2801 97.0869 26.4608 97.1471 26.6469 97.2092C26.7072 97.5705 26.7674 97.9319 26.8294 98.3042C27.0101 98.3644 27.1908 98.4246 27.3769 98.4867C27.4071 98.6673 27.4372 98.848 27.4682 99.0342C27.679 99.0944 27.8898 99.1546 28.1069 99.2167C28.1371 99.3672 28.1672 99.5178 28.1982 99.6729C28.3789 99.7331 28.5595 99.7934 28.7457 99.8554C28.7758 100.036 28.8059 100.217 28.8369 100.403C29.0477 100.463 29.2585 100.523 29.4757 100.585V101.224C29.5303 101.207 29.5852 101.19 29.6408 101.173C29.8407 101.133 29.8407 101.133 30.1144 101.224C30.1446 101.405 30.1747 101.586 30.2057 101.772C30.3864 101.832 30.567 101.892 30.7532 101.954C30.7833 102.105 30.8134 102.255 30.8444 102.41C30.931 102.431 31.0178 102.452 31.1072 102.473C31.3919 102.593 31.3919 102.593 31.5124 102.821C31.5434 102.934 31.5434 102.934 31.5752 103.049C31.6053 103.109 31.6354 103.169 31.6664 103.231C31.9429 103.292 31.9429 103.292 32.2139 103.323C32.244 103.473 32.2741 103.624 32.3052 103.779C32.3898 103.802 32.4749 103.824 32.5616 103.847C32.8527 103.961 32.8527 103.961 32.9749 104.141C33.1748 104.387 33.3399 104.415 33.6447 104.486C33.7354 104.508 33.8263 104.53 33.9194 104.553C34.0234 104.576 34.0234 104.576 34.1293 104.6C34.2324 104.942 34.2324 104.942 34.1293 105.148C34.1989 105.142 34.2689 105.136 34.34 105.131C34.5855 105.148 34.5855 105.148 34.7507 105.262C34.8593 105.422 34.8593 105.422 34.8593 105.787C35.0281 105.843 35.1969 105.898 35.3666 105.952C35.5893 106.06 35.5893 106.06 35.6595 106.239C35.7617 106.452 35.7617 106.452 36.0291 106.52C36.1285 106.541 36.228 106.563 36.3302 106.584C36.4306 106.607 36.53 106.629 36.6332 106.651C36.7101 106.667 36.7874 106.682 36.8658 106.699C36.8742 106.77 36.8825 106.843 36.8911 106.917C36.9128 106.995 36.9346 107.074 36.9571 107.155C37.2737 107.325 37.2737 107.325 37.5958 107.429V107.976C37.6777 107.948 37.6777 107.948 37.761 107.919C37.9608 107.885 37.9608 107.885 38.2346 108.067C38.2517 108.397 38.2517 108.397 38.2346 108.706H38.4171C38.4472 108.645 38.4773 108.585 38.5083 108.523C38.6288 108.583 38.7492 108.644 38.8733 108.706V109.344H38.2346V110.622C38.0238 110.652 37.813 110.682 37.5958 110.713V111.352H36.9571C36.959 111.459 36.9609 111.566 36.9628 111.677C36.9634 112.033 36.9245 112.368 36.8661 112.717H36.2273V113.447H35.5886V114.724C35.3778 114.755 35.167 114.785 34.9498 114.816C34.9197 115.237 34.8896 115.659 34.8586 116.093H34.2198L34.223 116.254C34.2278 116.668 34.2123 117.054 34.1281 117.458H33.4894V118.097C33.3087 118.157 33.128 118.217 32.9419 118.28C32.9118 118.701 32.8817 119.123 32.8506 119.557H32.1206V120.105C31.9381 120.108 31.7556 120.108 31.5731 120.105C31.4819 120.013 31.4819 120.013 31.4764 119.78C31.4792 119.669 31.4792 119.669 31.4821 119.557C31.3717 119.558 31.3717 119.558 31.2585 119.56C30.4692 119.538 30.4692 119.538 30.2274 119.327C30.1179 119.157 30.1179 119.157 30.0221 118.983C29.8898 118.759 29.6945 118.679 29.4728 118.553C29.4477 118.492 29.4227 118.43 29.3969 118.367C29.3617 118.308 29.3265 118.249 29.2901 118.188C29.0757 118.131 29.0757 118.131 28.8339 118.131C28.3949 118.114 28.3949 118.114 28.1951 117.914V117.549H28.0126V117.366H27.5564C27.5262 117.216 27.4961 117.065 27.4651 116.91C27.3656 116.891 27.2653 116.872 27.1631 116.853C27.0517 116.812 26.9413 116.77 26.8264 116.727C26.7849 116.635 26.7435 116.543 26.7004 116.448C26.6515 116.359 26.6028 116.271 26.5526 116.18C26.34 116.124 26.1475 116.111 25.9285 116.107C25.7314 116.088 25.7314 116.088 25.4576 115.906C25.3948 115.621 25.3948 115.621 25.3664 115.359H24.8189C24.7981 115.272 24.7774 115.185 24.7561 115.096C24.6685 114.793 24.6685 114.793 24.4139 114.72C24.3367 114.69 24.2597 114.66 24.1803 114.629C24.1351 114.536 24.0899 114.444 24.0434 114.349C23.9348 114.058 23.9348 114.058 23.6611 114.002C23.5914 113.998 23.5215 113.994 23.4503 113.99C23.4202 113.84 23.3901 113.689 23.359 113.534C23.2295 113.506 23.2295 113.506 23.0962 113.477C23.0022 113.436 22.9083 113.394 22.8115 113.351C22.7507 113.169 22.6902 112.986 22.629 112.804C22.3535 112.671 22.3535 112.671 22.0815 112.621C22.0514 112.471 22.0213 112.32 21.9903 112.165C21.8406 112.137 21.8406 112.137 21.6882 112.108C21.5769 112.066 21.4665 112.025 21.3515 111.982C21.312 111.89 21.2725 111.798 21.232 111.703C21.1812 111.614 21.1307 111.526 21.0778 111.434C20.8661 111.392 20.8661 111.392 20.627 111.389C20.3825 111.38 20.3825 111.38 20.1653 111.343C19.8003 110.934 19.8003 110.934 19.8003 110.613C19.7438 110.609 19.6871 110.606 19.6287 110.602C19.5648 110.575 19.501 110.549 19.4353 110.522C19.3212 110.243 19.3212 110.243 19.2528 109.974H18.614C18.6138 109.892 18.6136 109.809 18.6133 109.724C18.6028 109.404 18.5856 109.103 18.5228 108.785C18.2655 108.591 18.2655 108.591 17.9753 108.511C17.9144 108.358 17.8539 108.207 17.7928 108.055C17.5172 107.887 17.5172 107.887 17.2453 107.781V107.416C17.113 107.373 17.113 107.373 16.977 107.33C16.6978 107.233 16.6978 107.233 16.6066 107.142C16.6028 106.99 16.6027 106.838 16.6066 106.686C16.3958 106.626 16.185 106.565 15.9678 106.503C15.9377 106.353 15.9076 106.202 15.8766 106.047C15.747 106.019 15.747 106.019 15.6138 105.99C15.5198 105.949 15.4258 105.907 15.3291 105.864C15.2648 105.683 15.204 105.5 15.1466 105.317C15.0713 105.287 14.996 105.257 14.9184 105.226C14.6903 105.134 14.6903 105.134 14.5762 104.895C14.4991 104.548 14.4531 104.211 14.4166 103.855H13.9603C13.9302 103.674 13.9001 103.494 13.8691 103.307C13.7395 103.279 13.7395 103.279 13.6063 103.25C13.5123 103.209 13.4183 103.168 13.3215 103.124C13.2607 102.942 13.2002 102.759 13.139 102.577C12.8671 102.451 12.8671 102.451 12.5915 102.394C12.42 102.223 12.4647 101.935 12.4492 101.705C12.4416 101.595 12.4339 101.486 12.426 101.373C12.4205 101.289 12.415 101.205 12.4092 101.117C12.2286 101.147 12.0479 101.177 11.8617 101.208C11.8166 100.802 11.8166 100.802 11.7705 100.387C11.6821 100.389 11.5935 100.391 11.5022 100.393C11.223 100.387 11.223 100.387 11.1317 100.296C11.1058 100.013 11.0908 99.7302 11.0751 99.4464C11.0637 99.3655 11.0523 99.2849 11.0405 99.2009C10.8379 99.0823 10.8379 99.0823 10.493 99.1097C10.4845 98.9801 10.4845 98.9801 10.4758 98.8469L10.4017 98.5622C10.2503 98.5001 10.0979 98.439 9.94548 98.3797C9.76846 97.9992 9.72101 97.6077 9.67173 97.1934C9.59837 97.1652 9.52482 97.137 9.44908 97.1079C9.21548 97.0111 9.21548 97.0111 9.12423 96.9199C9.10288 96.7356 9.08655 96.5512 9.07295 96.3669C9.0653 96.2665 9.05762 96.1652 9.04977 96.0612C9.04148 95.9444 9.04148 95.9444 9.03298 95.8249C8.96007 95.7998 8.88698 95.7748 8.81216 95.749C8.57673 95.6422 8.57673 95.6422 8.46267 95.3967C8.39186 95.0837 8.34131 94.7744 8.30298 94.4569C8.22962 94.4287 8.15607 94.4004 8.08033 94.3713C7.84673 94.2745 7.84673 94.2745 7.75548 94.1833C7.73413 93.999 7.7178 93.8146 7.7042 93.6303C7.69655 93.5299 7.68887 93.4287 7.68102 93.3246C7.6755 93.2466 7.66998 93.1686 7.66423 93.0883C7.51367 93.0582 7.36311 93.0281 7.20798 92.997C7.16208 92.8036 7.11673 92.6092 7.07111 92.4149L6.99409 92.0873C6.93423 91.8099 6.93423 91.8099 6.93423 91.6274H6.47798C6.36118 91.3929 6.35662 91.1921 6.33563 90.9321C6.32799 90.8408 6.32031 90.7486 6.31246 90.6547C6.30693 90.5843 6.30142 90.5141 6.29567 90.4411L6.07302 90.3555C5.83942 90.2588 5.83942 90.2588 5.74817 90.1676C5.72672 89.9686 5.71039 89.7688 5.69688 89.569C5.68924 89.4595 5.68156 89.35 5.67371 89.2377C5.66818 89.1531 5.66267 89.0689 5.65692 88.9813C5.58538 88.9531 5.51365 88.9248 5.43974 88.8957C5.19975 88.799 5.19975 88.799 5.01817 88.7077C4.98805 88.0754 4.95794 87.4394 4.92692 86.7915H4.47067C4.32923 86.6501 4.35934 86.5086 4.35022 86.3124C4.34639 86.2345 4.34257 86.1564 4.33863 86.0761C4.33504 85.9941 4.33146 85.9118 4.32777 85.8279C4.32383 85.7456 4.31988 85.6636 4.31581 85.5788C4.30614 85.3753 4.29683 85.1709 4.2878 84.9665C4.19938 84.9383 4.11077 84.91 4.01952 84.8809C3.7403 84.7842 3.7403 84.7842 3.64905 84.6929C3.63481 84.5643 3.62615 84.4347 3.62022 84.3051C3.61639 84.2272 3.61257 84.1491 3.60863 84.0688C3.60504 83.9868 3.60146 83.9045 3.59777 83.8206C3.59383 83.7383 3.58988 83.6563 3.58581 83.5715C3.57614 83.368 3.56683 83.1636 3.5578 82.9592C3.48443 82.931 3.41089 82.9027 3.33515 82.8736C3.10155 82.7769 3.10155 82.7769 3.0103 82.6856C2.99579 82.4903 2.9874 82.2941 2.98147 82.098C2.97764 81.9784 2.97382 81.8598 2.96988 81.7366C2.96624 81.6098 2.96263 81.4829 2.95902 81.3561C2.95508 81.2293 2.9511 81.1015 2.94706 80.9747C2.93739 80.6626 2.92799 80.3505 2.91905 80.0348H2.4628C2.24562 79.3422 2.24015 78.6569 2.22372 77.936C2.22023 77.8119 2.21667 77.6878 2.21305 77.5637C2.20449 77.2617 2.19671 76.9606 2.18951 76.6585H1.73326C1.62193 76.4359 1.62741 76.2853 1.62285 76.0362C1.62103 75.945 1.6192 75.8537 1.61733 75.7597C1.61581 75.6612 1.61429 75.5617 1.61272 75.4604C1.61082 75.3591 1.60892 75.2588 1.60697 75.1547C1.60099 74.8308 1.59565 74.5078 1.59027 74.1875C1.58633 73.9685 1.58235 73.7495 1.57831 73.5305C1.56855 72.993 1.55924 72.4537 1.5503 71.9154H1.09405C1.01776 71.21 0.990024 70.5101 0.990936 69.8075C0.990776 69.7016 0.990617 69.5967 0.990452 69.4872C0.990053 69.1414 0.990315 68.7955 0.990624 68.447C0.990563 68.2051 0.990477 67.9642 0.990362 67.7224C0.990197 67.2187 0.990411 66.7187 0.990847 66.2077C0.991345 65.6255 0.991181 65.0397 0.99068 64.4557C0.990216 63.8936 0.990268 63.3333 0.990535 62.7676C0.990596 62.5285 0.990519 62.2903 0.990307 62.0512C0.990076 61.7191 0.990427 61.386 0.990936 61.0566C0.990752 60.9581 0.990569 60.8586 0.990379 60.7564C0.990637 60.6661 0.990894 60.5757 0.991159 60.4827C0.991193 60.4042 0.991224 60.3257 0.991259 60.2445C1.00276 60.0437 1.00276 60.0437 1.09437 59.77C1.27505 59.7399 1.45572 59.7098 1.64187 59.6787C1.64147 59.6129 1.64106 59.5473 1.64064 59.4789C1.63699 58.8584 1.63421 58.2379 1.63241 57.6174C1.63146 57.298 1.63016 56.9796 1.62809 56.6593C1.62574 56.2925 1.62485 55.9265 1.62404 55.5643C1.6231 55.4493 1.62216 55.3343 1.62119 55.2166C1.62117 55.1108 1.62116 55.0049 1.62115 54.8954C1.62074 54.8014 1.62033 54.7084 1.61991 54.6116C1.6419 54.389 1.64191 54.389 1.82432 54.2065C2.0643 54.1951 2.0643 54.1951 2.28057 54.2065C2.27913 54.1171 2.2777 54.0276 2.27622 53.9355C2.27126 53.6033 2.26812 53.2712 2.26555 52.9408C2.26417 52.7976 2.2623 52.6534 2.25993 52.5101C2.2566 52.3039 2.25506 52.0968 2.25384 51.8906C2.25243 51.8266 2.25102 51.7628 2.24957 51.6971C2.24947 51.4188 2.26827 51.2208 2.39648 50.9708C2.55434 50.8321 2.55434 50.8321 2.91934 50.8321C2.92115 50.7556 2.92295 50.6788 2.92482 50.6003C2.93194 50.3165 2.93988 50.0336 2.94828 49.7507C2.9535 49.5673 2.95777 49.3848 2.96206 49.2014C2.96559 49.0864 2.96911 48.9724 2.97273 48.8538C2.9756 48.7479 2.97846 48.6411 2.98142 48.5326C3.01053 48.2771 3.01053 48.2771 3.19312 48.0946C3.4331 48.0832 3.4331 48.0832 3.64937 48.0946C3.64793 48.0274 3.64651 47.9604 3.64503 47.8911C3.63933 47.5863 3.63581 47.2815 3.63225 46.9786C3.62996 46.8727 3.62766 46.7669 3.6253 46.6583C3.62441 46.5561 3.62353 46.4548 3.62262 46.3499C3.62119 46.2559 3.61976 46.1628 3.61828 46.0661C3.65387 45.7786 3.71957 45.6536 3.92306 45.4501C4.16852 45.4273 4.16852 45.4273 4.37931 45.4501C4.37787 45.3686 4.37787 45.3686 4.37641 45.2859C4.37263 45.0404 4.37024 44.795 4.3679 44.5495C4.36637 44.464 4.36484 44.3789 4.36327 44.2903C4.36238 44.1681 4.36238 44.1681 4.36148 44.0431C4.36052 43.9676 4.35958 43.8925 4.35859 43.814C4.37931 43.626 4.3793 43.626 4.56208 43.4435C4.80115 43.4321 4.80115 43.4321 5.01833 43.4435C5.01621 43.36 5.01409 43.2766 5.01191 43.1908C5.01027 43.0822 5.00862 42.9736 5.00692 42.8623L5.00051 42.5347C5.0183 42.2573 5.0183 42.2573 5.20126 42.0748C5.44033 42.0634 5.44033 42.0634 5.65751 42.0748C5.65931 42.0177 5.66112 41.9607 5.66299 41.9014C5.67167 41.6432 5.6817 41.3859 5.69174 41.1276C5.69456 41.0377 5.69739 40.9479 5.7003 40.8557L5.71097 40.5956C5.71384 40.5163 5.7167 40.4369 5.71966 40.3556C5.74877 40.1595 5.74877 40.1595 5.93136 39.977C6.17043 39.9655 6.17043 39.9655 6.38761 39.977C6.38549 39.8935 6.38337 39.81 6.38119 39.7242C6.37955 39.6156 6.3779 39.507 6.3762 39.3957L6.36979 39.0681C6.38758 38.7907 6.38758 38.7907 6.57054 38.6082H7.11804V37.3307C7.32882 37.3006 7.53961 37.2705 7.75679 37.2395V36.0532C7.96757 36.0231 8.17836 35.993 8.39554 35.962C8.42565 35.5404 8.45576 35.1188 8.48679 34.6845C8.69757 34.6543 8.90836 34.6242 9.12554 34.5932V33.3157C9.33632 33.2856 9.54711 33.2555 9.76429 33.2245C9.76053 33.1379 9.75676 33.0511 9.75288 32.9617C9.76429 32.677 9.76429 32.677 9.94633 32.4945H10.4938V31.3082C10.7046 31.2781 10.9154 31.248 11.1326 31.217C11.1288 31.1157 11.1251 31.0135 11.1212 30.9085C11.1326 30.5782 11.1326 30.5782 11.3146 30.3957H11.7709C11.801 30.0042 11.8311 29.6128 11.8621 29.2095C12.0729 29.1793 12.2837 29.1492 12.5009 29.1182C12.4952 29.0316 12.4896 28.9448 12.4837 28.8554L12.5009 28.5707C12.7746 28.3882 12.7746 28.3882 13.1396 28.3882C13.1697 27.9967 13.1998 27.6053 13.2309 27.202C13.4417 27.1718 13.6525 27.1417 13.8696 27.1107V26.5632C14.0804 26.503 14.2912 26.4428 14.5084 26.3807V25.8332C14.7557 25.71 14.9655 25.7356 15.2384 25.742V25.1032C15.4492 25.0731 15.66 25.043 15.8771 25.012V23.8257C16.1244 23.7025 16.3343 23.7281 16.6071 23.7345V23.0957C16.8179 23.0656 17.0287 23.0355 17.2459 23.0045V22.457C17.4932 22.3338 17.703 22.3593 17.9759 22.3657V21.727C18.1867 21.6968 18.3975 21.6667 18.6146 21.6357V21.0882C18.8619 20.965 19.0718 20.9906 19.3446 20.997V20.4495C19.5554 20.4193 19.7662 20.3892 19.9834 20.3582V19.7195C20.1942 19.6893 20.405 19.6592 20.6221 19.6282V19.0807C20.8694 18.9575 21.0793 18.9831 21.3521 18.9895V18.3507C21.5629 18.3206 21.7737 18.2905 21.9909 18.2595V17.712C22.2382 17.5888 22.448 17.6143 22.7209 17.6207V16.982C22.9317 16.9518 23.1425 16.9217 23.3596 16.8907V16.3432C24.2183 16.1333 24.2183 16.1333 24.6371 16.1607L24.6257 15.9435C24.6371 15.7045 24.6371 15.7045 24.8192 15.522C25.1039 15.5106 25.1039 15.5106 25.3667 15.522V14.9745C25.614 14.8513 25.8238 14.8768 26.0967 14.8832V14.3357C26.344 14.2125 26.5538 14.2381 26.8267 14.2445V13.6057C27.0785 13.4798 27.2875 13.5053 27.5676 13.509C27.668 13.5098 27.7675 13.5106 27.8706 13.5115C27.9855 13.5131 27.9855 13.5131 28.1033 13.5147V12.9672C28.3505 12.844 28.5604 12.8695 28.8333 12.8759V12.2372C29.0851 12.1113 29.2941 12.1368 29.5742 12.1405C29.6746 12.1413 29.774 12.1421 29.8772 12.1429C29.9541 12.144 30.0314 12.1451 30.1098 12.1462V11.5987C30.3571 11.4755 30.567 11.501 30.8398 11.5074V10.8687C31.0917 10.7427 31.3007 10.7683 31.5808 10.7719C31.6812 10.7728 31.7806 10.7736 31.8837 10.7744C31.9607 10.7755 32.038 10.7765 32.1164 10.7776V10.2301C32.3573 10.2 32.5982 10.1699 32.8464 10.1389V9.59139C33.0079 9.56064 33.1695 9.53034 33.331 9.50014C33.4209 9.48317 33.5107 9.46629 33.6038 9.44886C33.8502 9.40889 33.8502 9.40889 34.1239 9.40889V8.86139C34.4241 8.76101 34.6477 8.76101 34.9625 8.76466C35.062 8.76549 35.1605 8.76631 35.2627 8.76716C35.3386 8.76821 35.4142 8.76927 35.4927 8.77037V8.22287C35.7929 8.12249 36.0165 8.12249 36.3313 8.12614C36.4307 8.12697 36.5293 8.12779 36.6315 8.12863C36.7073 8.12969 36.783 8.13075 36.8614 8.13185V7.4931C37.1616 7.39272 37.3852 7.39272 37.7 7.39637C37.7995 7.39719 37.898 7.39801 38.0002 7.39886C38.0761 7.39992 38.1517 7.40098 38.2302 7.40207V6.85457C38.4793 6.77172 38.6518 6.7469 38.91 6.73412C39.0259 6.72839 39.0259 6.72839 39.1445 6.72253C39.2249 6.71895 39.3051 6.71536 39.3881 6.71168C39.5104 6.70576 39.5104 6.70576 39.6354 6.69972C39.8362 6.69005 40.0369 6.68074 40.2386 6.67171V6.12421C40.5388 6.02383 40.7624 6.02383 41.0772 6.02748C41.2259 6.02872 41.2259 6.02872 41.3774 6.02997C41.4532 6.03103 41.5289 6.03209 41.6073 6.03319V5.48569C41.8565 5.40283 42.0289 5.37801 42.2872 5.36524C42.403 5.35951 42.403 5.35951 42.5217 5.35365C42.6021 5.35006 42.6823 5.34648 42.7653 5.34279C42.8876 5.33688 42.8876 5.33688 43.0126 5.33084C43.2133 5.32116 43.4141 5.31186 43.6158 5.30282C43.6073 5.19515 43.6073 5.19515 43.5986 5.08565C43.6043 5.00662 43.6099 4.92778 43.6158 4.84657C43.947 4.62575 44.1067 4.64491 44.5 4.65312C44.6076 4.65476 44.7153 4.65642 44.8257 4.65811C44.9082 4.66023 44.9909 4.66235 45.0758 4.66453V4.11703C45.3714 4.01848 45.5849 4.01574 45.8952 4.01665C46.001 4.01695 46.1078 4.01724 46.2173 4.01754C46.3277 4.01831 46.439 4.01908 46.5531 4.01986C46.6653 4.02027 46.7767 4.02069 46.8925 4.02111C47.169 4.02219 47.4455 4.0237 47.7229 4.02557V3.47807C48.5679 3.1961 49.5753 3.28279 50.4604 3.29557V2.74807C50.7095 2.66503 50.8528 2.64587 51.1083 2.64678C51.2205 2.64679 51.2205 2.64679 51.3355 2.6468C51.4159 2.64727 51.4961 2.64774 51.5791 2.64822C51.7032 2.64842 51.7032 2.64842 51.8292 2.64861C52.0929 2.64913 52.3575 2.65027 52.6212 2.65143C52.8001 2.65189 52.9789 2.65231 53.1578 2.65268C53.5967 2.65369 54.0356 2.65527 54.4718 2.65714V2.10964C54.7364 2.02131 54.9034 2.00744 55.179 2.00835C55.2666 2.00836 55.3542 2.00836 55.4445 2.00837C55.5385 2.00884 55.6334 2.00931 55.7301 2.00979C55.8268 2.00992 55.9236 2.01005 56.0239 2.01019C56.3333 2.0107 56.6435 2.01185 56.9547 2.013C57.1646 2.01346 57.3744 2.01388 57.5843 2.01425C58.099 2.01526 58.6154 2.01679 59.1264 2.01871V1.37996C59.4412 1.28415 59.7296 1.27685 60.0572 1.27685L60.0725 1.26843ZM74.855 2.01029V2.10154H75.7675V2.01029H74.855ZM3.77128 45.8103V46.2665H3.86253V45.8103H3.77128ZM2.40253 51.194V53.019H2.49378V51.194H2.40253ZM2.40253 78.0215V79.299H2.49378V78.0215H2.40253Z" fill="#6AC651"/>
<path d="M59.9817 26.4625C60.0624 26.4622 60.1432 26.462 60.2262 26.4617C60.3576 26.462 60.3576 26.462 60.4927 26.4623C60.5858 26.4621 60.6788 26.4619 60.7747 26.4618C61.0822 26.4614 61.3906 26.4616 61.6963 26.4619C61.9098 26.4619 62.1233 26.4618 62.3369 26.4617C62.7849 26.4615 63.232 26.4617 63.6782 26.4622C64.2531 26.4627 64.828 26.4624 65.4029 26.4618C65.8436 26.4615 66.2852 26.4616 66.726 26.4618C66.9377 26.4619 67.1494 26.4618 67.362 26.4616C67.6576 26.4614 67.9533 26.4617 68.2489 26.4622C68.337 26.4621 68.4251 26.4619 68.5154 26.4617C68.5959 26.4619 68.676 26.4622 68.759 26.4625C68.8289 26.4625 68.8986 26.4625 68.9707 26.4626C69.1532 26.4741 69.1532 26.4741 69.427 26.5657V27.2044H69.6095C69.6396 27.1442 69.6697 27.084 69.7007 27.0219C70.2044 27.0327 70.7045 27.044 71.2155 27.0559C71.387 27.0598 71.5586 27.0636 71.7292 27.0673C71.9756 27.0725 72.2211 27.0783 72.4674 27.0843C72.5444 27.0858 72.6216 27.0873 72.7001 27.0889C73.2431 27.1027 73.2431 27.1027 73.4456 27.2048V27.8435H73.7194C73.7495 27.7833 73.7796 27.7231 73.8106 27.661C74.2121 27.6711 74.6127 27.683 75.0151 27.6952C75.1858 27.6995 75.1858 27.6995 75.3601 27.7038C75.4696 27.7073 75.5791 27.7108 75.6922 27.7145C75.7926 27.7173 75.8939 27.7202 75.9979 27.7232C76.2799 27.7526 76.4833 27.7995 76.7325 27.9349C76.7952 28.2141 76.7952 28.2141 76.8237 28.4824C76.8839 28.5125 76.9442 28.5426 77.0062 28.5736C77.0363 28.5134 77.0664 28.4532 77.0975 28.3911C77.3347 28.404 77.5729 28.4173 77.8101 28.4311C77.8775 28.4347 77.9452 28.4382 78.0145 28.4419C78.3047 28.459 78.5538 28.4813 78.8312 28.5733V29.2121C78.9215 29.182 79.0119 29.1519 79.105 29.1208C79.3495 29.112 79.5904 29.1081 79.835 29.1094C79.901 29.1091 79.9673 29.1087 80.0357 29.1084C80.3277 29.1089 80.5604 29.1192 80.8387 29.2124C80.85 29.3155 80.8612 29.4195 80.8729 29.5263C80.8917 29.634 80.9106 29.7407 80.93 29.8511C80.9902 29.8812 81.0504 29.9114 81.1125 29.9424C81.1426 29.8822 81.1727 29.8219 81.2037 29.7599C81.5349 29.8201 81.8662 29.8803 82.2075 29.9424C82.2376 30.1231 82.2677 30.3037 82.2987 30.4899C82.368 30.4888 82.4374 30.4878 82.5086 30.4867C82.6445 30.4854 82.6445 30.4854 82.7832 30.4842C82.9183 30.4826 82.9183 30.4826 83.0561 30.481C83.3025 30.4899 83.3025 30.4899 83.5762 30.5813V31.2201C83.6291 31.2114 83.6821 31.2027 83.7368 31.1937C84.1931 31.1289 84.5106 31.122 84.9413 31.3114V31.9502C85.0773 31.905 85.0773 31.905 85.2151 31.8589C85.3519 31.8483 85.4888 31.843 85.6257 31.8418C85.7315 31.8398 85.7315 31.8398 85.8392 31.8379C86.0363 31.8588 86.0363 31.8588 86.3101 32.0413C86.3272 32.327 86.3272 32.327 86.3101 32.5888C86.4141 32.5606 86.4141 32.5606 86.5208 32.5318C86.7663 32.4976 86.7663 32.4976 87.0401 32.6796C87.0572 32.9643 87.0572 32.9643 87.0401 33.2271C87.0941 33.2184 87.1477 33.2097 87.2034 33.2008C87.6277 33.1413 87.927 33.104 88.3166 33.3185V33.9572C88.3712 33.9403 88.4261 33.9234 88.4818 33.9059C88.6816 33.866 88.6816 33.866 88.9554 33.9572C88.9667 34.0603 88.9779 34.1644 88.9896 34.2711C89.0084 34.3788 89.0273 34.4856 89.0466 34.596C89.1069 34.6261 89.1671 34.6562 89.2291 34.6872C89.2593 34.627 89.2894 34.5668 89.3204 34.5047C89.4408 34.565 89.5613 34.6252 89.6854 34.6872V35.326C89.8962 35.3561 90.107 35.3862 90.3241 35.4172C90.3543 35.5979 90.3844 35.7786 90.4154 35.9647C90.6262 35.9948 90.837 36.025 91.0541 36.056V36.6947C91.2649 36.7248 91.4757 36.755 91.6929 36.786C91.723 37.1774 91.7531 37.5689 91.7841 37.9722C91.9046 37.9421 92.025 37.912 92.1491 37.881C92.2395 37.9412 92.3298 38.0014 92.4229 38.0635C92.44 38.3938 92.44 38.3938 92.4229 38.7022C92.4775 38.6853 92.5324 38.6684 92.5881 38.6509C92.7879 38.611 92.7879 38.611 93.0616 38.7022V40.071C93.2423 40.0258 93.2423 40.0258 93.4266 39.9797C93.517 40.0098 93.6073 40.04 93.7004 40.071C93.7305 40.5227 93.7606 40.9744 93.7916 41.4397C93.9723 41.3946 93.9723 41.3946 94.1566 41.3485C94.247 41.3786 94.3373 41.4087 94.4304 41.4397V42.8085C94.6111 42.7633 94.6111 42.7633 94.7954 42.7172C94.8857 42.7473 94.9761 42.7775 95.0691 42.8085C95.0993 43.4408 95.1294 44.0769 95.1604 44.7247C95.3712 44.7548 95.582 44.785 95.7991 44.816C95.8293 46.8326 95.8594 48.8492 95.8904 50.9297H96.4379V53.0285H95.8904C95.8603 54.3516 95.8302 55.6747 95.7991 57.0435H95.1604C95.1303 57.9469 95.1002 58.8502 95.0691 59.781H94.4304V61.1497H93.7916C93.7615 61.5713 93.7314 61.9929 93.7004 62.4272C93.5197 62.4573 93.339 62.4875 93.1529 62.5185C93.1228 62.9401 93.0927 63.3616 93.0616 63.796H92.4229C92.3928 64.2176 92.3627 64.6391 92.3316 65.0735C92.1209 65.1036 91.9101 65.1337 91.6929 65.1647V65.8947H91.0541V67.1722C90.8434 67.2023 90.6326 67.2325 90.4154 67.2635C90.3853 67.4743 90.3552 67.6851 90.3241 67.9022H89.6854V68.541C89.4445 68.5711 89.2036 68.6012 88.9554 68.6322V69.3622H88.4079C88.3778 69.7838 88.3477 70.2054 88.3166 70.6397H87.5866V71.2785H86.9479V71.9172C86.7371 71.9473 86.5263 71.9775 86.3091 72.0085V72.556C86.0682 72.5861 85.8273 72.6162 85.5791 72.6472V73.286C85.3985 73.3161 85.2178 73.3462 85.0316 73.3772C85.0015 73.588 84.9714 73.7988 84.9404 74.016H84.2104V74.6547H83.5716V75.3847H82.8416V76.0235H82.2029V76.7535H81.4729V77.3922H80.8341V78.1222H80.1954V78.6697C79.9545 78.6998 79.7136 78.73 79.4654 78.761V79.9472C79.2847 80.0075 79.104 80.0677 78.9179 80.1297C78.8878 80.3104 78.8577 80.4911 78.8266 80.6772C78.6159 80.7375 78.4051 80.7977 78.1879 80.8597C78.1578 81.2512 78.1277 81.6427 78.0966 82.046C77.8859 82.0761 77.6751 82.1062 77.4579 82.1372V82.776C77.2471 82.8061 77.0363 82.8362 76.8191 82.8672C76.789 83.3189 76.7589 83.7706 76.7279 84.236H76.0891V86.2435H75.4504V87.521C75.2396 87.5511 75.0288 87.5812 74.8116 87.6122C74.7815 88.7255 74.7514 89.8387 74.7204 90.9885H74.0816V95.0035H63.9529C63.9228 94.8228 63.8927 94.6421 63.8616 94.456C63.0869 94.3869 62.3195 94.352 61.5439 94.3547C61.438 94.3547 61.3313 94.3547 61.2227 94.3546C60.8769 94.3547 60.5301 94.3554 60.1824 94.3561C59.9406 94.3563 59.6988 94.3564 59.457 94.3565C58.8885 94.3568 58.3164 94.3576 57.7506 94.3585C57.1028 94.3595 56.4549 94.36 55.807 94.3604C54.4748 94.3614 53.1425 94.363 51.8103 94.365C51.7801 94.1543 51.75 93.9435 51.719 93.7263H50.4415V90.35C50.6523 90.3199 50.8631 90.2898 51.0803 90.2588C51.0793 90.1602 51.0793 90.1602 51.0784 90.059C51.0729 89.4385 51.0687 88.818 51.0661 88.1975C51.0647 87.8781 51.0627 87.5596 51.0596 87.2393C51.0561 86.8725 51.0548 86.5066 51.0535 86.1443C51.0521 86.0294 51.0507 85.9144 51.0493 85.7967C51.0492 85.6908 51.0492 85.585 51.0492 85.4755C51.0483 85.3349 51.0483 85.3349 51.0474 85.1917C51.0582 85.1181 51.0691 85.0448 51.0803 84.969C51.354 84.7865 51.354 84.7865 51.8103 84.7865V82.2315C52.0211 82.2014 52.2319 82.1713 52.449 82.1403C52.448 82.0481 52.4469 81.955 52.4458 81.8601C52.445 81.737 52.4441 81.6138 52.4433 81.4906C52.4426 81.4299 52.4418 81.3692 52.441 81.3063C52.4392 80.9349 52.4683 80.5881 52.5405 80.2204C52.7513 80.1903 52.9621 80.1602 53.1792 80.1291V78.7604C53.39 78.7303 53.6008 78.7002 53.818 78.6691V77.3916C54.0288 77.3615 54.2396 77.3314 54.4567 77.3004V76.1141C54.6976 76.084 54.9385 76.0539 55.1867 76.0229V74.7454C55.3975 74.7153 55.6083 74.6852 55.8255 74.6541V74.0154C56.0363 73.9853 56.2471 73.9552 56.4642 73.9241C56.4943 73.5327 56.5245 73.1412 56.5555 72.7379C56.7362 72.7078 56.9168 72.6777 57.103 72.6466V72.0079C57.3439 71.9778 57.5848 71.9477 57.833 71.9166C57.8631 71.5252 57.8932 71.1337 57.9242 70.7304C58.1049 70.7003 58.2856 70.6702 58.4717 70.6391V70.0004C58.7126 69.9703 58.9535 69.9402 59.2017 69.9091V69.2704C59.4125 69.2403 59.6233 69.2102 59.8405 69.1791V68.6316C60.0513 68.6015 60.2621 68.5714 60.4792 68.5404V67.9929C60.7612 67.8323 60.8652 67.8104 61.2092 67.8104V67.2629C61.42 67.2328 61.6308 67.2027 61.848 67.1716V66.6241C62.0889 66.594 62.3298 66.5639 62.578 66.5329V65.8941H63.2167V65.2554C63.4275 65.2253 63.6383 65.1952 63.8555 65.1641V64.5254C64.0964 64.4953 64.3373 64.4652 64.5855 64.4341V63.2479C64.7963 63.1877 65.0071 63.1274 65.2242 63.0654C65.2543 62.8847 65.2845 62.704 65.3155 62.5179C65.5263 62.4878 65.7371 62.4577 65.9542 62.4266V61.7879C66.165 61.7578 66.3758 61.7277 66.593 61.6966C66.6231 61.3052 66.6532 60.9137 66.6842 60.5104C66.895 60.4803 67.1058 60.4502 67.323 60.4191V59.7804C67.5338 59.7503 67.7446 59.7202 67.9617 59.6891V58.4116C68.2026 58.3815 68.4435 58.3514 68.6917 58.3204V57.0429C68.8724 57.0128 69.0531 56.9827 69.2392 56.9516C69.2438 56.4826 69.2471 56.0118 69.2493 55.5464C69.2502 55.3867 69.2514 55.2279 69.253 55.0682C69.2552 54.8383 69.2563 54.6083 69.2571 54.3784C69.2585 54.2725 69.2585 54.2725 69.2599 54.1649C69.26 53.7214 69.1975 53.36 69.0564 52.9421C68.936 52.9722 68.8155 53.0023 68.6914 53.0334C68.6312 52.5516 68.571 52.0661 68.5089 51.5734H67.9614C67.9313 51.3325 67.9012 51.0916 67.8702 50.8434C67.6895 50.8735 67.5088 50.9036 67.3227 50.9346C67.2926 50.6636 67.2625 50.3926 67.2314 50.1134C67.0508 50.1435 66.8701 50.1736 66.6839 50.2046C66.6538 50.0239 66.6237 49.8433 66.5927 49.6571C66.3819 49.627 66.1711 49.5969 65.9539 49.5659C65.9408 49.4627 65.9276 49.3587 65.914 49.252C65.8981 48.9444 65.8981 48.9444 65.7716 48.8359C65.5718 48.8292 65.3719 48.8282 65.173 48.8302C65.0635 48.831 64.954 48.8318 64.8418 48.8326C64.7149 48.8342 64.7149 48.8342 64.5854 48.8359C64.5553 48.6251 64.5251 48.4143 64.4941 48.1971H63.1254C63.0953 48.0164 63.0651 47.8358 63.0341 47.6496C62.597 47.5374 62.17 47.5465 61.7201 47.5483C61.6346 47.5483 61.5495 47.5483 61.461 47.5483C61.179 47.5483 60.897 47.549 60.6151 47.5498C60.4189 47.5499 60.2236 47.5501 60.0274 47.5502C59.5128 47.5505 58.9963 47.5514 58.4853 47.5524C57.9597 47.5533 57.4359 47.5538 56.9067 47.5542C55.8756 47.5552 54.8444 47.5568 53.8133 47.5587V48.1062C52.9099 48.1363 52.0066 48.1664 51.0758 48.1974V48.7449C51.0247 48.75 50.9736 48.755 50.9207 48.7602C50.6889 48.7833 50.4571 48.8069 50.2254 48.8305C50.145 48.8384 50.0648 48.8464 49.9817 48.8546C49.9043 48.8625 49.8266 48.8705 49.7472 48.8787C49.676 48.8859 49.6049 48.893 49.5319 48.9004C49.3247 48.9241 49.3247 48.9241 49.0683 49.019C49.0382 49.1696 49.0081 49.3202 48.9771 49.4753C48.7279 49.544 48.4953 49.582 48.237 49.5957C48.1339 49.6015 48.1339 49.6015 48.0281 49.6073C47.9572 49.6109 47.8866 49.6145 47.8127 49.6182C47.7403 49.6221 47.6676 49.6261 47.5937 49.6301C47.4158 49.6398 47.2378 49.649 47.0599 49.6581V50.1144C46.5854 50.1936 46.1291 50.2175 45.6546 50.2111C45.5543 50.2105 45.5543 50.2105 45.4521 50.2099C45.2896 50.2088 45.1272 50.2072 44.9639 50.2054C44.9187 49.8897 44.9187 49.8897 44.8726 49.5667H44.3251C44.295 48.6359 44.2649 47.696 44.2339 46.7379C44.0231 46.768 43.8123 46.7981 43.5951 46.8292V44.2742C43.3843 44.2441 43.1736 44.2139 42.9564 44.1829C42.9541 44.1227 42.9518 44.0625 42.9495 44.0004C42.9388 43.7248 42.9276 43.4493 42.9164 43.1737C42.9128 43.0788 42.9092 42.9839 42.9056 42.8863C42.8855 42.3999 42.8549 41.9281 42.7742 41.4445H42.3179C42.3156 41.3875 42.3133 41.3304 42.311 41.272C42.3003 41.0102 42.2892 40.7483 42.278 40.4864C42.2744 40.3968 42.2708 40.3075 42.2671 40.2145C42.2451 39.7071 42.2066 39.2107 42.1357 38.7088H41.5882V36.0626C41.3774 36.0325 41.1666 36.0024 40.9494 35.9713C40.9472 35.9143 40.9449 35.8573 40.9425 35.7989C40.9318 35.537 40.9207 35.2751 40.9095 35.0132C40.9059 34.9236 40.9023 34.8344 40.8986 34.7413C40.8766 34.2339 40.8381 33.7375 40.7672 33.2357H40.2197V32.6882C40.5355 32.5978 40.5355 32.5978 40.8585 32.5057C40.8886 32.1142 40.9187 31.7227 40.9497 31.3194C41.917 31.1369 41.917 31.1369 42.2272 31.1369V30.5894C42.5393 30.4854 42.7829 30.489 43.1114 30.4927C43.273 30.4939 43.273 30.4939 43.4372 30.4952C43.5197 30.4962 43.6024 30.4973 43.6872 30.4984V29.9509C43.9774 29.8542 44.2019 29.8414 44.5067 29.8304C44.6663 29.8247 44.6663 29.8247 44.8288 29.8188C44.9392 29.8153 45.0505 29.8117 45.1646 29.808C45.2768 29.804 45.3881 29.8001 45.504 29.796C45.7805 29.7864 46.057 29.7771 46.3344 29.768V29.2205C46.5917 29.1347 46.7478 29.1183 47.0142 29.1201C47.0916 29.1204 47.1693 29.1207 47.2487 29.121C47.3291 29.1218 47.4093 29.1226 47.4924 29.1234C47.6146 29.124 47.6146 29.124 47.7396 29.1246C47.9404 29.1257 48.1411 29.1272 48.3428 29.1291V28.5816C48.633 28.4848 48.8575 28.4721 49.1622 28.4611C49.2681 28.4573 49.3748 28.4535 49.4843 28.4495C49.5948 28.4459 49.7061 28.4423 49.8201 28.4387C49.9324 28.4347 50.0437 28.4308 50.1596 28.4267C50.4361 28.417 50.7126 28.4077 50.99 28.3987C51.0201 28.218 51.0502 28.0373 51.0812 27.8512C51.4125 27.7408 51.7154 27.749 52.0576 27.7508C52.1607 27.751 52.1607 27.751 52.2647 27.7512C52.4828 27.7517 52.7018 27.7529 52.9199 27.754C53.0677 27.7545 53.2165 27.7549 53.3643 27.7553C53.7275 27.7563 54.0906 27.7579 54.4502 27.7597V27.2122C54.7175 27.1232 54.8873 27.11 55.1656 27.1109C55.2997 27.111 55.2997 27.111 55.4366 27.111C55.5333 27.1114 55.6291 27.1119 55.7286 27.1124C55.8773 27.1126 55.8773 27.1126 56.0279 27.1128C56.3436 27.1133 56.6602 27.1144 56.9769 27.1156C57.1913 27.1161 57.4048 27.1165 57.6193 27.1169C58.1449 27.1179 58.6687 27.1194 59.1979 27.1213V26.5738C59.4616 26.4985 59.6952 26.4707 59.969 26.4707L59.9817 26.4625Z" fill="#6AC651"/>
<path d="M62.7187 99.9186V100.466C62.7789 100.436 62.8391 100.406 62.9012 100.375C63.602 100.336 64.3064 100.38 65.0091 100.415C65.0847 100.418 65.1605 100.422 65.2381 100.426C65.3095 100.43 65.3804 100.433 65.4544 100.437C65.5502 100.442 65.5502 100.442 65.6469 100.447C65.8184 100.466 65.8184 100.466 66.0922 100.558V101.197C66.1524 101.166 66.2126 101.136 66.2747 101.105C66.532 101.096 66.7875 101.093 67.0448 101.094C67.1507 101.093 67.1507 101.093 67.2593 101.093C67.5622 101.093 67.8104 101.1 68.0997 101.197V101.836C68.19 101.817 68.2804 101.798 68.3734 101.779C68.7731 101.719 69.0843 101.812 69.4684 101.926V102.565C69.523 102.548 69.5779 102.531 69.6336 102.514C69.8334 102.474 69.8334 102.474 70.1072 102.565V103.204C70.1674 103.174 70.2276 103.144 70.2897 103.113C70.4576 103.118 70.6246 103.131 70.7916 103.147C70.881 103.155 70.9704 103.163 71.0626 103.172C71.2934 103.204 71.2934 103.204 71.4759 103.295V103.934H72.1147V104.573C72.1862 104.556 72.258 104.539 72.3319 104.521C72.5709 104.481 72.5709 104.481 72.7534 104.573C72.7819 104.805 72.8003 105.029 72.8105 105.262C72.814 105.327 72.8175 105.392 72.8212 105.459C72.8298 105.619 72.8373 105.78 72.8447 105.94H73.0272C73.0573 105.88 73.0874 105.82 73.1184 105.758C73.2088 105.818 73.2991 105.878 73.3922 105.94C73.4294 106.188 73.4043 106.419 73.3922 106.67H73.6659C73.6961 106.61 73.7262 106.55 73.7572 106.488C73.8776 106.548 73.9981 106.608 74.1222 106.67V108.039C74.2728 108.009 74.4233 107.979 74.5784 107.948C74.6387 107.978 74.6989 108.008 74.7609 108.039C74.7911 108.671 74.8212 109.307 74.8522 109.955C74.9124 109.985 74.9726 110.016 75.0347 110.047C75.0648 109.986 75.0949 109.926 75.1259 109.864C75.3997 110.047 75.3997 110.047 75.4617 110.312C75.5105 110.783 75.5003 111.252 75.4963 111.727C75.4959 111.82 75.4955 111.913 75.4951 112.008C75.494 112.235 75.4925 112.463 75.4906 112.69C75.5622 112.673 75.6339 112.656 75.7078 112.639C75.9469 112.599 75.9469 112.599 76.1294 112.69V118.713C75.9186 118.743 75.7078 118.773 75.4906 118.804C75.4913 118.89 75.4913 118.89 75.4921 118.978C75.494 119.241 75.4952 119.505 75.4963 119.767C75.4971 119.858 75.4979 119.948 75.4986 120.041C75.5002 120.521 75.4836 120.981 75.3992 121.446C75.2185 121.477 75.0378 121.507 74.8517 121.538C74.8216 121.989 74.7915 122.441 74.7604 122.906H74.1217V124.184C73.8808 124.214 73.6399 124.244 73.3917 124.275V124.914H72.8442C72.8461 125.022 72.8479 125.128 72.8499 125.239C72.8505 125.596 72.8116 125.93 72.7532 126.279H72.1144V126.918H71.4757V127.557C71.024 127.587 70.5723 127.617 70.1069 127.648V128.195C69.8961 128.225 69.6853 128.256 69.4682 128.287V128.925C69.0165 128.955 68.5648 128.986 68.0994 129.017V129.564C67.6477 129.594 67.196 129.624 66.7307 129.655V130.294C65.8273 130.324 64.9239 130.354 63.9932 130.385V130.933H57.9707V130.385C57.0673 130.355 56.1639 130.325 55.2332 130.294V129.655H53.8644V129.017H52.4957C52.4656 128.776 52.4354 128.535 52.4044 128.287H51.7657C51.7205 127.97 51.7205 127.97 51.6744 127.648H50.4882C50.4581 127.407 50.4279 127.166 50.3969 126.918H49.7582C49.7281 126.737 49.6979 126.556 49.6669 126.37C49.4862 126.34 49.3056 126.31 49.1194 126.279C49.0291 125.602 49.0291 125.602 48.9369 124.91H48.3894C48.3593 124.73 48.3292 124.549 48.2982 124.363C48.1175 124.333 47.9368 124.303 47.7507 124.272C47.7055 123.594 47.7055 123.594 47.6594 122.903H47.1119C47.0517 122.421 46.9915 121.936 46.9294 121.443C46.7487 121.473 46.5681 121.503 46.3819 121.534C46.3518 120.661 46.3217 119.791 46.2907 118.888H45.7432V112.683C45.954 112.653 46.1647 112.623 46.3819 112.592C46.3805 112.515 46.379 112.438 46.3776 112.36C46.3729 112.077 46.3695 111.793 46.3669 111.51C46.3648 111.327 46.3614 111.144 46.3579 110.961C46.357 110.846 46.3561 110.732 46.3552 110.613C46.353 110.454 46.353 110.454 46.3509 110.292C46.3611 110.208 46.3714 110.123 46.382 110.037C46.6557 109.854 46.6557 109.854 47.0207 109.854C47.0508 109.222 47.0809 108.586 47.112 107.938C47.4286 107.893 47.4286 107.893 47.7507 107.847V106.66C48.0674 106.615 48.0674 106.615 48.3895 106.569C48.4196 106.147 48.4497 105.726 48.4807 105.292C48.6915 105.261 48.9023 105.231 49.1195 105.2V104.562C49.3303 104.531 49.541 104.501 49.7582 104.47V103.923C49.9991 103.893 50.24 103.863 50.4882 103.832V103.193C50.699 103.163 50.9098 103.133 51.127 103.102V102.554C51.4272 102.454 51.6507 102.454 51.9656 102.457C52.1143 102.459 52.1143 102.459 52.2658 102.46C52.3416 102.461 52.4172 102.462 52.4957 102.463V101.916C52.6727 101.885 52.8489 101.854 53.0259 101.824C53.1244 101.807 53.223 101.79 53.3243 101.773C53.5907 101.733 53.5907 101.733 53.8645 101.733V101.186C54.1218 101.1 54.2778 101.083 54.5443 101.085C54.6217 101.085 54.6994 101.086 54.7788 101.086C54.8592 101.087 54.9394 101.088 55.0224 101.088C55.1039 101.089 55.1858 101.089 55.2697 101.09C55.4705 101.091 55.6712 101.092 55.8729 101.094V100.547C56.1959 100.439 56.4952 100.434 56.831 100.426C56.8974 100.424 56.9642 100.422 57.0327 100.42C57.2444 100.414 57.457 100.409 57.6687 100.404C57.8129 100.4 57.9561 100.396 58.1003 100.392C58.4525 100.382 58.8047 100.373 59.1588 100.364V99.9075C60.2173 99.5917 61.659 99.5826 62.7175 99.9075L62.7187 99.9186Z" fill="#6AC651"/>
<path d="M114.549 59.13C114.775 59.1752 114.775 59.1752 115.005 59.2213C115.146 62.9899 115.151 66.7676 115.005 70.5363H114.64C114.641 70.4432 114.641 70.3501 114.641 70.2543C114.643 69.36 114.644 68.4658 114.645 67.5715C114.646 67.1116 114.646 66.6499 114.647 66.1937C114.653 63.8394 114.63 61.4852 114.549 59.1309L114.549 59.13Z" fill="#6BC752"/>
<path d="M113.91 54.9325H114.275C114.38 55.1433 114.38 55.2701 114.386 55.5046C114.387 55.585 114.389 55.6652 114.391 55.7483C114.393 55.8351 114.394 55.9216 114.396 56.012C114.398 56.1008 114.399 56.1899 114.401 56.2812C114.407 56.5659 114.413 56.8506 114.418 57.1343C114.422 57.3269 114.426 57.5194 114.43 57.712C114.44 58.1846 114.449 58.661 114.458 59.1263H114.002C113.972 57.7393 113.942 56.3523 113.911 54.9288L113.91 54.9325Z" fill="#6BC752"/>
<path d="M114.002 70.6276H114.458C114.428 71.9507 114.398 73.2738 114.367 74.6426H114.002V70.6276Z" fill="#6BC752"/>
<path d="M113.362 74.7338H113.818C113.808 75.128 113.796 75.5231 113.784 75.92C113.78 76.0542 113.777 76.1883 113.773 76.3224C113.768 76.5159 113.762 76.7084 113.756 76.9019C113.751 77.0762 113.751 77.0762 113.746 77.2541C113.73 77.5205 113.697 77.7633 113.636 78.0215H113.271C113.301 76.9356 113.331 75.8498 113.362 74.7365L113.362 74.7338Z" fill="#6BC752"/>
<path d="M113.18 52.195C113.405 52.2402 113.405 52.2402 113.636 52.2862C113.702 52.6485 113.742 52.9989 113.756 53.363C113.76 53.4597 113.764 53.5574 113.768 53.6568C113.772 53.7563 113.775 53.8567 113.779 53.9598C113.783 54.062 113.787 54.1642 113.791 54.2691C113.8 54.52 113.81 54.7701 113.819 55.021H113.363C113.359 54.9314 113.359 54.9314 113.356 54.8403C113.345 54.5657 113.334 54.2919 113.323 54.0173C113.319 53.9233 113.315 53.8293 113.312 53.7326C113.29 53.2143 113.254 52.7106 113.18 52.1904L113.18 52.195Z" fill="#6BC752"/>
<path d="M108.436 40.6062C108.556 40.6363 108.677 40.6664 108.801 40.6975C108.814 40.7723 108.828 40.8471 108.841 40.9238C108.904 41.2231 108.969 41.505 109.074 41.7925C109.216 41.8771 109.216 41.8771 109.359 41.964C109.622 42.1575 109.622 42.1575 109.676 42.4622C109.698 42.7871 109.711 43.1092 109.712 43.4386H109.256V42.0699H108.708C108.631 41.6063 108.609 41.171 108.617 40.7011C108.557 40.671 108.497 40.6409 108.435 40.6099L108.436 40.6062Z" fill="#6BC752"/>
<path d="M112.633 78.11H113.089C113.059 78.9531 113.029 79.7981 112.998 80.665H112.633V78.11Z" fill="#6BC752"/>
<path d="M112.541 50.0963C112.766 50.1415 112.766 50.1415 112.997 50.1876C113.027 50.8802 113.057 51.5746 113.089 52.2863H112.632C112.602 51.5636 112.572 50.8446 112.541 50.0963Z" fill="#6BC752"/>
<path d="M111.994 80.7562H112.45C112.437 81.0227 112.424 81.2882 112.41 81.5547C112.405 81.6678 112.405 81.6678 112.399 81.7828C112.396 81.8557 112.392 81.9288 112.388 82.0036C112.385 82.0705 112.381 82.1378 112.378 82.2062C112.359 82.3996 112.32 82.5767 112.267 82.7637H111.902C111.932 82.1013 111.963 81.4406 111.994 80.7562H111.994Z" fill="#6BC752"/>
<path d="M111.173 46.0813H111.538C111.65 46.3049 111.639 46.4509 111.638 46.7009C111.638 46.8295 111.638 46.8295 111.637 46.9609C111.637 47.0508 111.636 47.1407 111.635 47.2329C111.635 47.3235 111.634 47.4145 111.634 47.5075C111.633 47.732 111.631 47.9556 111.629 48.18H111.264C111.234 47.4875 111.204 46.793 111.173 46.0813H111.173Z" fill="#6BC752"/>
<path d="M111.902 48.0887C112.128 48.1791 112.128 48.1791 112.359 48.2712C112.389 48.9036 112.419 49.5396 112.45 50.1875H111.994C111.963 49.4949 111.933 48.8005 111.902 48.0887Z" fill="#6BC752"/>
<path d="M84.2539 111.416C84.3744 111.446 84.4948 111.476 84.6189 111.508V114.063H84.2539V111.416Z" fill="#6BC752"/>
<path d="M69.2884 53.1075H69.4709C69.5841 53.447 69.575 53.7627 69.5741 54.1204C69.5741 54.1923 69.5742 54.2646 69.5743 54.3385C69.5744 54.49 69.5742 54.6424 69.5738 54.7938C69.5733 55.0265 69.5738 55.2592 69.5744 55.491C69.5743 55.6388 69.5742 55.7857 69.5741 55.9336C69.5742 56.0032 69.5744 56.0732 69.5746 56.1443C69.5733 56.4345 69.5632 56.6654 69.4706 56.9428H69.2881V53.1103L69.2884 53.1075Z" fill="#6BC752"/>
<path d="M110.625 84.2238H111.081C111.051 84.8561 111.021 85.4921 110.99 86.14H110.625V84.2238Z" fill="#6BC752"/>
<path d="M107.158 38.5987C107.512 38.6786 107.512 38.6786 107.614 38.7812C107.621 38.9655 107.622 39.1499 107.62 39.3342C107.619 39.4346 107.619 39.5359 107.618 39.6399C107.617 39.7179 107.616 39.7959 107.614 39.8762C107.686 39.8725 107.758 39.8687 107.832 39.8648C108.071 39.8762 108.071 39.8762 108.253 40.0583C108.29 40.27 108.321 40.4835 108.344 40.697H107.979C107.949 40.4862 107.919 40.2754 107.888 40.0583C107.617 40.0131 107.617 40.0131 107.341 39.967V38.6895C107.28 38.6594 107.22 38.6293 107.158 38.5983V38.5987Z" fill="#6BC752"/>
<path d="M84.8008 114.062C84.9212 114.093 85.0417 114.123 85.1658 114.154C85.226 114.786 85.2862 115.422 85.3483 116.07H84.9833C84.9528 115.752 84.9224 115.435 84.892 115.121C84.8833 115.03 84.8746 114.939 84.8657 114.846C84.8574 114.76 84.8492 114.674 84.8407 114.585C84.8331 114.506 84.8254 114.426 84.8176 114.344C84.8008 114.157 84.8008 114.157 84.8008 114.066V114.062Z" fill="#6BC752"/>
<path d="M86.1699 116.8C86.2904 116.83 86.4108 116.86 86.5349 116.891C86.5951 117.524 86.6554 118.16 86.7174 118.808H86.3524C86.2922 118.145 86.232 117.484 86.1699 116.8Z" fill="#6BC752"/>
<path d="M110.534 44.7125C110.899 44.8038 110.899 44.8038 110.99 44.895C111.012 45.1095 111.028 45.3248 111.042 45.5392C111.049 45.657 111.057 45.7747 111.065 45.896C111.07 45.9872 111.076 46.0785 111.082 46.1725H110.625C110.595 45.6907 110.565 45.2053 110.534 44.7125Z" fill="#6BC752"/>
<path d="M109.804 43.4349C110.029 43.4801 110.029 43.4801 110.26 43.5262C110.32 43.9478 110.38 44.3693 110.442 44.8037H109.986C109.926 44.352 109.866 43.9003 109.804 43.4349Z" fill="#6BC752"/>
<path d="M109.256 87.6H109.712C109.682 88.0216 109.652 88.4431 109.621 88.8775H109.256V87.6Z" fill="#6BC752"/>
<path d="M111.264 82.855H111.72C111.69 83.2766 111.66 83.6981 111.629 84.1325H111.264V82.855Z" fill="#6BC752"/>
<path d="M109.986 86.2312L110.351 86.3225C110.321 86.7139 110.291 87.1054 110.26 87.5087H109.895C109.925 87.0871 109.955 86.6656 109.986 86.2312Z" fill="#6BC752"/>
<path d="M106.428 37.23C106.653 37.2751 106.653 37.2751 106.884 37.3212C106.914 37.7729 106.944 38.2246 106.975 38.69H106.61V37.3212C106.55 37.2911 106.49 37.261 106.428 37.23Z" fill="#6BC752"/>
<path d="M87.5391 120.085L87.9041 120.268C87.9596 120.565 87.9596 120.565 87.9725 120.917C87.9777 121.034 87.9828 121.151 87.9882 121.271C87.9905 121.361 87.9929 121.451 87.9953 121.544H87.6303C87.6002 121.062 87.5701 120.577 87.5391 120.084L87.5391 120.085Z" fill="#6BC752"/>
<path d="M88.1777 121.545C88.2982 121.575 88.4186 121.605 88.5427 121.636C88.5728 122.058 88.603 122.479 88.634 122.914H88.269C88.2389 122.462 88.2088 122.01 88.1777 121.545Z" fill="#6BC752"/>
<path d="M86.9004 118.807C87.0208 118.838 87.1413 118.868 87.2654 118.899C87.2955 119.32 87.3256 119.742 87.3566 120.176H86.9916C86.9615 119.725 86.9314 119.273 86.9004 118.807Z" fill="#6BC752"/>
<path d="M105.059 35.3137C105.284 35.3589 105.284 35.3589 105.515 35.405C105.545 35.8265 105.575 36.2481 105.606 36.6825L105.241 36.5912V35.405C105.181 35.3749 105.121 35.3447 105.059 35.3137Z" fill="#6BC752"/>
<path d="M88.9074 122.822H89.1812C89.3107 123.081 89.3043 123.322 89.3235 123.609C89.3312 123.718 89.3388 123.826 89.3467 123.938C89.3522 124.021 89.3577 124.105 89.3635 124.19H88.9985C88.9684 123.739 88.9383 123.287 88.9072 122.822L88.9074 122.822Z" fill="#6BC752"/>
<path d="M102.412 31.9375C102.533 31.9676 102.653 31.9977 102.777 32.0287C102.837 32.4202 102.898 32.8117 102.96 33.215H102.595C102.534 32.7934 102.474 32.3718 102.412 31.9375Z" fill="#6BC752"/>
<path d="M104.603 95.0825C104.723 95.1126 104.843 95.1427 104.968 95.1738C104.937 95.5652 104.907 95.9567 104.876 96.36H104.603V95.0825Z" fill="#6BC752"/>
<path d="M106.61 92.345C106.731 92.3751 106.851 92.4052 106.975 92.4362C106.945 92.8277 106.915 93.2191 106.884 93.6225H106.61V92.345Z" fill="#6BC752"/>
<path d="M108.708 88.9688L109.073 89.06C109.013 89.4515 108.953 89.8429 108.891 90.2462H108.617C108.647 89.8247 108.677 89.4031 108.708 88.9688Z" fill="#6BC752"/>
<path d="M107.34 91.0675C107.46 91.0976 107.581 91.1277 107.705 91.1588C107.675 91.5201 107.645 91.8815 107.614 92.2538H107.34V91.0675Z" fill="#6BC752"/>
<path d="M120.754 142.441C120.979 142.486 120.979 142.486 121.21 142.532C121.24 142.773 121.27 143.014 121.301 143.262H120.845C120.815 142.991 120.785 142.72 120.754 142.441Z" fill="#6BC752"/>
<path d="M109.895 136.327C110.12 136.373 110.12 136.373 110.351 136.419C110.381 136.66 110.411 136.9 110.442 137.149H109.986C109.956 136.878 109.926 136.607 109.895 136.327Z" fill="#6BC752"/>
<path d="M112.541 137.696C112.661 137.726 112.782 137.757 112.906 137.788C113.089 138.415 113.089 138.415 113.089 138.518H112.632C112.602 138.247 112.572 137.976 112.541 137.696Z" fill="#6BC752"/>
<path d="M115.188 139.156C115.347 139.162 115.347 139.162 115.553 139.248C115.699 139.452 115.803 139.662 115.918 139.886H115.37C115.188 139.258 115.188 139.258 115.188 139.156Z" fill="#6BC752"/>
<path d="M123.4 143.901C123.626 143.946 123.626 143.946 123.857 143.992C123.887 144.203 123.917 144.414 123.948 144.631H123.492C123.462 144.39 123.431 144.149 123.4 143.901Z" fill="#6BC752"/>
<path d="M118.654 141.164C118.88 141.209 118.88 141.209 119.111 141.255C119.141 141.466 119.171 141.677 119.202 141.894H118.746C118.715 141.653 118.685 141.412 118.654 141.164Z" fill="#6BC752"/>
<path d="M117.286 140.525C117.512 140.57 117.512 140.57 117.742 140.616C117.772 140.827 117.803 141.038 117.834 141.255C117.683 141.225 117.533 141.195 117.377 141.164C117.347 140.953 117.317 140.742 117.286 140.525Z" fill="#6BC752"/>
<path d="M111.173 137.057H111.538C111.598 137.298 111.658 137.539 111.72 137.787H111.264C111.234 137.547 111.204 137.306 111.173 137.057Z" fill="#6BC752"/>
<path d="M113.91 138.426C114.031 138.456 114.151 138.486 114.275 138.518C114.335 138.728 114.396 138.939 114.458 139.156H114.001C113.971 138.915 113.941 138.674 113.91 138.426Z" fill="#6BC752"/>
<path d="M68.6499 51.6475L68.8324 51.7387C68.8751 51.9522 68.9078 52.1676 68.9346 52.3829C68.9499 52.5006 68.9651 52.6184 68.9809 52.7397C68.992 52.8309 69.003 52.9222 69.0144 53.0162H68.7407C68.7106 52.5645 68.6804 52.1128 68.6494 51.6475H68.6499Z" fill="#6BC752"/>
<path d="M122.031 143.262C122.257 143.308 122.257 143.308 122.488 143.354C122.518 143.534 122.548 143.715 122.579 143.901H122.123C122.092 143.69 122.062 143.48 122.031 143.262Z" fill="#6BC752"/>
<path d="M109.074 135.689C109.272 135.735 109.439 135.78 109.622 135.871C109.679 136.15 109.679 136.15 109.713 136.419H109.257V135.78C109.196 135.75 109.136 135.72 109.074 135.689Z" fill="#6BC752"/>
<path d="M106.428 134.32C106.653 134.365 106.653 134.365 106.884 134.411C106.914 134.652 106.944 134.893 106.975 135.141H106.61V134.411C106.55 134.381 106.49 134.351 106.428 134.32Z" fill="#6BC752"/>
<path d="M119.933 141.894H120.298C120.358 142.105 120.418 142.315 120.48 142.533H120.024C119.994 142.322 119.964 142.111 119.933 141.894Z" fill="#6BC752"/>
<path d="M116.1 139.886C116.22 139.916 116.341 139.946 116.465 139.977C116.495 140.158 116.525 140.339 116.556 140.525H116.1V139.886Z" fill="#6BC752"/>
<path d="M101.773 131.583C101.894 131.613 102.014 131.643 102.138 131.674C102.169 131.915 102.199 132.156 102.23 132.404H101.865C101.835 132.133 101.804 131.862 101.773 131.583Z" fill="#6BC752"/>
<path d="M90.915 125.469H91.1888C91.249 125.74 91.3092 126.011 91.3713 126.29H91.0063C90.9762 126.019 90.9461 125.748 90.915 125.469Z" fill="#6BC752"/>
<path d="M85.6225 115.979H85.805C85.8652 116.25 85.9254 116.521 85.9875 116.8H85.6225C85.5423 116.239 85.5423 116.239 85.5312 116.07C85.5614 116.04 85.5915 116.01 85.6225 115.979Z" fill="#6BC752"/>
<path d="M98.3975 129.575L98.7625 129.757C98.8309 130.088 98.8309 130.088 98.8537 130.396H98.4887C98.4586 130.125 98.4285 129.854 98.3975 129.575Z" fill="#6BC752"/>
<path d="M95.6602 128.206H95.9339C95.9941 128.477 96.0544 128.748 96.1164 129.028C95.996 128.997 95.8755 128.967 95.7514 128.936C95.7213 128.695 95.6912 128.454 95.6602 128.206Z" fill="#6BC752"/>
<path d="M104.42 34.5837C104.645 34.6289 104.645 34.6289 104.876 34.675C104.906 34.8858 104.936 35.0966 104.967 35.3137H104.602V34.675C104.542 34.6449 104.482 34.6148 104.42 34.5837Z" fill="#6BC752"/>
<path d="M103.143 33.2151C103.263 33.2452 103.383 33.2753 103.508 33.3063C103.538 33.5171 103.568 33.7279 103.599 33.9451H103.234C103.204 33.7042 103.174 33.4633 103.143 33.2151Z" fill="#6BC752"/>
<path d="M101.773 31.1162L102.138 31.2987C102.207 31.629 102.207 31.629 102.23 31.9375H101.865C101.835 31.6664 101.804 31.3954 101.773 31.1162Z" fill="#6BC752"/>
<path d="M100.404 29.7474C100.581 29.7987 100.581 29.7987 100.769 29.9299C100.838 30.2603 100.838 30.2603 100.861 30.5687C100.74 30.5386 100.62 30.5085 100.496 30.4774C100.465 30.2365 100.435 29.9956 100.404 29.7474Z" fill="#6BC752"/>
<path d="M97.668 27.1925C98.022 27.2723 98.022 27.2723 98.1242 27.375C98.1279 27.5274 98.1281 27.6789 98.1242 27.8313H97.7592C97.7291 27.6205 97.699 27.4097 97.668 27.1925Z" fill="#6BC752"/>
<path d="M95.6602 25.6412L96.0252 25.8237C96.0936 26.1541 96.0936 26.1541 96.1164 26.4625H95.7514C95.7213 26.1915 95.6912 25.9205 95.6602 25.6412Z" fill="#6BC752"/>
<path d="M90.915 22.265L91.28 22.4475C91.3485 22.7778 91.3485 22.7778 91.3713 23.0863H91.0063C90.9762 22.8153 90.9461 22.5442 90.915 22.265Z" fill="#6BC752"/>
<path d="M0.942383 69.8063H1.03363V70.9013H0.942383V69.8063Z" fill="#6BC752"/>
<path d="M0.942383 60.8638H1.03363V61.5938H0.942383V60.8638Z" fill="#6BC752"/>
<path d="M0.942383 71.175H1.03363V71.7225H0.942383V71.175Z" fill="#6BC752"/>
<path d="M0.942383 69.1675H1.03363V69.715H0.942383V69.1675Z" fill="#6BC752"/>
<path d="M29.5039 118.625C29.6399 118.715 29.6399 118.715 29.7777 118.808H29.5039V118.625Z" fill="#6BC752"/>
<path d="M119.477 141.894C119.75 141.985 119.75 141.985 119.75 141.985L119.477 141.894Z" fill="#6BC752"/>
<path d="M19.375 110.504C19.4352 110.564 19.4955 110.624 19.5575 110.686H19.375V110.504Z" fill="#6BC752"/>
</svg>
