<svg width="27" height="33" viewBox="0 0 27 33" fill="none" xmlns="http://www.w3.org/2000/svg">
<path d="M15.4462 29.625C15.2487 29.9662 14.9649 30.2496 14.6233 30.4465C14.2817 30.6435 13.8943 30.7471 13.5 30.7471C13.1057 30.7471 12.7183 30.6435 12.3767 30.4465C12.0351 30.2496 11.7513 29.9662 11.5538 29.625M20.25 15.45C20.25 13.5409 19.539 11.7094 18.2734 10.3594C17.0066 9.00937 15.2888 8.25 13.5 8.25C11.7101 8.25 9.99338 9.00825 8.72662 10.3594C7.461 11.7094 6.75 13.5409 6.75 15.45C6.75 23.8504 3.375 26.25 3.375 26.25H23.625C23.625 26.25 20.25 23.8504 20.25 15.45Z" stroke="white" stroke-width="1.6875" stroke-linecap="round" stroke-linejoin="round"/>
<circle cx="20" cy="7" r="6" fill="white" stroke="#55B33A" stroke-width="2"/>
</svg>
