<svg width="19" height="15" viewBox="0 0 19 15" fill="none" xmlns="http://www.w3.org/2000/svg">
<g clip-path="url(#clip0_204_480)">
<path d="M15.369 8.3261L16.8665 8.29191L14.9946 10.0933L14.9946 10.0932L14.991 10.0968L11.0949 14.0028L11.2715 14.1797L11.0945 14.0031L11.0946 14.0031C10.971 14.1267 10.9141 14.3022 10.9141 14.4629C10.9141 14.8048 11.2007 15.0742 11.5449 15.0742C11.724 15.0742 11.8741 15.0049 11.9952 14.8838L11.9957 14.8833L18.6846 8.15526C18.8055 8.03432 18.875 7.88433 18.875 7.70508C18.875 7.52597 18.8056 7.37608 18.6849 7.25519C18.6848 7.25509 18.6847 7.25499 18.6846 7.2549L12.0885 0.619832C12.0044 0.525333 11.9191 0.452751 11.8264 0.404487C11.7274 0.352926 11.6331 0.335938 11.5449 0.335938C11.1963 0.335938 10.9141 0.609685 10.9141 0.957031C10.9141 1.10526 10.9547 1.28081 11.0996 1.41214L14.991 5.31328L14.991 5.3133L14.9943 5.31648L16.8655 7.12505L15.3701 7.08407L15.3702 7.08398H15.3633H0.861328C0.522521 7.08398 0.240234 7.34786 0.240234 7.70508C0.240234 8.0623 0.522526 8.32617 0.861328 8.32617H15.3633V8.32623L15.369 8.3261ZM17.2357 7.13519L17.502 7.39258L17.1318 7.38244L17.2357 7.13519Z" fill="#297D12" stroke="#297D12" stroke-width="0.5"/>
</g>
<defs>
<clipPath id="clip0_204_480">
<rect width="19" height="15" fill="white"/>
</clipPath>
</defs>
</svg>
