<svg width="80" height="80" viewBox="0 0 80 80" fill="none" xmlns="http://www.w3.org/2000/svg">
<g clip-path="url(#clip0_125_184)">
<path d="M78.7894 62.4299L47.7337 8.64006C46.1195 5.84412 43.2282 4.17505 39.9999 4.17505C36.7716 4.17505 33.8804 5.84427 32.2662 8.64006L1.21062 62.4299C-0.403601 65.2258 -0.403601 68.5641 1.21062 71.36C2.82484 74.1558 5.71594 75.825 8.94439 75.825H71.0556C74.2839 75.825 77.1751 74.1558 78.7894 71.36C80.4034 68.5641 80.4034 65.2258 78.7894 62.4299ZM74.7269 69.0144C73.9605 70.3416 72.5881 71.1339 71.0556 71.1339H8.94439C7.41188 71.1339 6.03938 70.3416 5.27313 69.0144C4.50688 67.6872 4.50688 66.1024 5.27313 64.7752L36.3287 10.9854C37.0951 9.65818 38.4674 8.86584 39.9999 8.86584C41.5324 8.86584 42.9049 9.65818 43.6712 10.9854L74.7269 64.7752C75.4931 66.1024 75.4931 67.6872 74.7269 69.0144Z" fill="#399220"/>
<path d="M39.9999 55.4976C38.2755 55.4976 36.8726 56.9005 36.8726 58.6249C36.8726 60.3493 38.2755 61.7523 39.9999 61.7523C41.7243 61.7523 43.1273 60.3493 43.1273 58.6249C43.1273 56.9005 41.7243 55.4976 39.9999 55.4976Z" fill="#399220"/>
<path d="M42.3452 26.5693H37.6543V50.8061H42.3452V26.5693Z" fill="#399220"/>
</g>
<defs>
<clipPath id="clip0_125_184">
<rect width="80" height="80" fill="white"/>
</clipPath>
</defs>
</svg>
